/* XPM */
static char *result[] = {
/* columns rows colors chars-per-pixel */
"64 64 8 1 ",
"  c #859FA1",
". c #86A0A2",
"X c #86A1A3",
"o c #87A1A3",
"O c #87A2A4",
"+ c #88A2A4",
"@ c #88A3A5",
"# c #89A4A6",
/* pixels */
"######################################+         +###############",
"######################################o         @###############",
"#####@o +#############################o         ################",
"###@X   .#########@X##################X         ################",
"###      +#######@  .@################.         ################",
"###O     .######@     @#################@++oo..X################",
"####      @####@       @########################################",
"####O   O@####@         @#######################################",
"#####.O#######.          O###############@@#####################",
"#############.            @##############. O#################@+o",
"+############O           @##############O   X############@OX    ",
"o#############O         O##############@      @#########o       ",
".##############O       O###############       @#########@       ",
" ###############+     O###############@X     +###########       ",
" @###############@   o##################+   o############.      ",
" o################@ .####################@X.#############o      ",
" .#################@#####################################+      ",
"+#########################################################    .o",
"##########################################################OO@###",
"##########@o@##################.  ..O###########################",
"##########X   .o@##############     o############@X#############",
"##########        .o@##########     +###########@  .############",
"#########@          .#########@     +##########@     @##########",
"#########O          O#########+     @#########@       @#########",
"#########X          @#########@++Ooo##########@      .##########",
"#########           ###########################@    .###########",
"########@          .############################@   @###########",
"########O          O#############################@.@############",
"########X          @############################################",
"########@o.        ##########@O. @##############################",
"############OX    .#######@o     o#########@ O#######o@#########",
"###############@O.O######O        ########O   @#####@  .O#######",
"#########################@        @#####@.     @####.     @#####",
"##########################.       o#####@       @##@      ######",
"oo########################O       .######O     o###O     X##@+++",
"  @#######@+##############@        @######X   O####O     @##+   ",
"  +######@  X##############.     .O@#######. @#######@.  ###@   ",
"  o######.    @############O   o@##########@@##########@@####   ",
"  X#####O      @###########@o@###############################   ",
"  X####@      o##############################################.  ",
"########@     ###############################################@++",
"#########@.  @##################################################",
"###########Oo##################################@O.O#############",
"############################################@o.   .#############",
"##########################################@        #############",
"############O@#############################        O############",
"#########+.  .#####O .o+###########@.@#####.       .############",
"########O     #####.      XO@####+.  .#####O        ############",
"#########     @####          o##X     @####@        @###########",
"#########.    X###@          @##O     o#####.      .+##@++######",
"#########@   X@###O          ####      @####o   .O@####.    .###",
"##########o@######X         .####o    o@####@.O@#######     o###",
"##################.         o####@  O##################     o###",
"##################          +#####@###################@     +###",
"#################+          ##########################+     @###",
"#################O          ##########################@++Ooo####",
"###@Oo.@###########@OX.    X####################################",
"#@     o################+o.+####################################",
"##     o########################################################",
"##.    .###############################X.Xo++###################",
"##.     ###############################        .X###############",
"##o    .###############################         .###############",
"##@+@##################################         X###############",
"######################################+         o###############"
};
