/* XPM */
static char *result[] = {
/* columns rows colors chars-per-pixel */
"64 64 15 1 ",
"  c black",
". c #272729",
"X c #323234",
"o c #4C4C4F",
"O c #585861",
"+ c #874A00",
"@ c #A65B00",
"# c #D17300",
"$ c #FF9819",
"% c #6A2C82",
"& c #C261E8",
"* c #848491",
"= c #A2A2B0",
"- c white",
"; c None",
/* pixels */
";;;;;;;;;;;;;;;;++;;;;;;;;;;;;;;;;;;;;;;;;;;++;;;;;;;;;;;;;;;;;;",
";;;;;;;;;;;;;;;;++;;;;;;;;;;;;;;;;;;;;;;;;;;++;;;;;;;;;;;;;;;;;;",
";;;;;;;;;;;;;;++$$++;;;;;;;;;;++;;;;;;;;;;++$$++;;;;;;;;;;;;;;;;",
";;;;;;;;;;;;;;++$$++;;;;;;;;;;++;;;;;;;;;;++$$++;;;;;;;;;;;;;;;;",
";;;;;;;;;;;;++++@@++;;;;;;;;;;++;;;;;;;;;;++@@++++;;;;;;;;;;;;;;",
";;;;;;;;;;;;++++@@++;;;;;;;;;;++;;;;;;;;;;++@@++++;;;;;;;;;;;;;;",
";;;;;;;;;;++##$$++;;;;;;;;;;++##++;;;;;;;;;;++$$##++;;;;;;;;;;;;",
";;;;;;;;;;++##$$++;;;;;;;;;;++##++;;;;;;;;;;++$$##++;;;;;;;;;;;;",
";;;;;;;;++@@@@++;;;;;;;;;;;;++$$++;;;;;;;;;;;;++@@@@++;;;;;;;;;;",
";;;;;;;;++@@@@++;;;;;;;;;;;;++$$++;;;;;;;;;;;;++@@@@++;;;;;;;;;;",
";;;;;;++##$$++;;;;;;....;;;;++##++;;;;....;;;;;;++$$##++;;;;;;;;",
";;;;;;++##$$++;;;;;;....;;;;++##++;;;;....;;;;;;++$$##++;;;;;;;;",
";;;;;;++@@##++;;;;..XXXX..;;$$$$$$;;..XXXX..;;;;++##@@++;;;;;;;;",
";;;;;;++@@##++;;;;..XXXX..;;$$$$$$;;..XXXX..;;;;++##@@++;;;;;;;;",
";;;;;;++$$$$@@++..XXXXooXX++@@##@@++XXooXXXX..++@@$$$$++;;;;;;;;",
";;;;;;++$$$$@@++..XXXXooXX++@@##@@++XXooXXXX..++@@$$$$++;;;;;;;;",
";;;;;;++$$##$$##..XXoo##oo++##$$##++oo##ooXX..##$$##$$++;;;;;;;;",
";;;;;;++$$##$$##..XXoo##oo++##$$##++oo##ooXX..##$$##$$++;;;;;;;;",
";;;;;;++@@$$$$++XXoo##$$oo..++##++..oo$$##ooXX++$$$$@@++;;;;;;;;",
";;;;;;++@@$$$$++XXoo##$$oo..++##++..oo$$##ooXX++$$$$@@++;;;;;;;;",
";;;;;;;;++##++..XX##$$$$$$oo..++..oo$$$$$$##XX..++##++;;;;;;;;;;",
";;;;;;;;++##++..XX##$$$$$$oo..++..oo$$$$$$##XX..++##++;;;;;;;;;;",
";;;;;;;;;;++..XX##$$$$++$$$$oooooo$$$$++$$$$##XX..++;;;;;;;;;;;;",
";;;;;;;;;;++..XX##$$$$++$$$$oooooo$$$$++$$$$##XX..++;;;;;;;;;;;;",
";;;;;;;;;;;;..XX$$$$++OO++$$$$oo$$$$++OO++$$$$XX..;;;;;;;;;;;;;;",
";;;;;;;;;;;;..XX$$$$++OO++$$$$oo$$$$++OO++$$$$XX..;;;;;;;;;;;;;;",
";;;;++;;;;..XXXX$$++..OOOO++$$$$$$++OOOO..++$$XXXX..;;;;++;;;;;;",
";;;;++;;;;..XXXX$$++..OOOO++$$$$$$++OOOO..++$$XXXX..;;;;++;;;;;;",
";;++++;;;;..XXXX##++..%%--..++##++..%%--..++##XXXX..;;;;++++;;;;",
";;++++;;;;..XXXX##++..%%--..++##++..%%--..++##XXXX..;;;;++++;;;;",
";;++$$++;;..XXXXXX$$..&&&&..======..&&&&..$$XXXXXX..;;++$$++;;;;",
";;++$$++;;..XXXXXX$$..&&&&..======..&&&&..$$XXXXXX..;;++$$++;;;;",
";;++$$##++..XX##$$$$++....====  ====....++$$$$##XX..++##$$++;;;;",
";;++$$##++..XX##$$$$++....====  ====....++$$$$##XX..++##$$++;;;;",
";;;;++$$##++..XXXX##$$++====XXOOXX====++$$##XXXX..++##$$++;;;;;;",
";;;;++$$##++..XXXX##$$++====XXOOXX====++$$##XXXX..++##$$++;;;;;;",
";;;;++++$$####........##$$**********$$..........####$$++++;;;;;;",
";;;;++++$$####........##$$**********$$..........####$$++++;;;;;;",
";;;;++##++$$$$$$$$####++              ++####$$$$$$$$++##++;;;;;;",
";;;;++##++$$$$$$$$####++              ++####$$$$$$$$++##++;;;;;;",
";;++$$++$$##++++++++++##@@$$$$++$$$$@@##++++++++++##$$++$$++;;;;",
";;++$$++$$##++++++++++##@@$$$$++$$$$@@##++++++++++##$$++$$++;;;;",
";;;;++++##++....++##..++##@@$$@@$$@@##++..##++....++##++++;;;;;;",
";;;;++++##++....++##..++##@@$$@@$$@@##++..##++....++##++++;;;;;;",
";;;;;;..++XX..++##$$++..++++++++++++++..++$$##++..XX++..;;;;;;;;",
";;;;;;..++XX..++##$$++..++++++++++++++..++$$##++..XX++..;;;;;;;;",
";;;;;;..XXoo..++##XX..++XX$$XXXXXX$$XX++..XX##++..ooXX..;;;;;;;;",
";;;;;;..XXoo..++##XX..++XX$$XXXXXX$$XX++..XX##++..ooXX..;;;;;;;;",
";;;;..XXXXoo..........++##++$$$$$$++##++......    ooXXXX..;;;;;;",
";;;;..XXXXoo..........++##++$$$$$$++##++......    ooXXXX..;;;;;;",
";;;;..ooXXoo............XX##++$$++##XX..          ooXXoo..;;;;;;",
";;;;..ooXXoo............XX##++$$++##XX..          ooXXoo..;;;;;;",
";;..XXooXXoo..........XXooXXXXXXXXXXooXX..      ..ooXXooXX..;;;;",
";;..XXooXXoo..........XXooXXXXXXXXXXooXX..      ..ooXXooXX..;;;;",
";;..ooooXXoo........ooXXooXXooXXooXXooXXoo..  ....ooXXoooo..;;;;",
";;..ooooXXoo........ooXXooXXooXXooXXooXXoo..  ....ooXXoooo..;;;;",
";;;;..ooXXoo....;;..XXooooXXooXXooXXooooXX..;;....ooXXoo..;;;;;;",
";;;;..ooXXoo....;;..XXooooXXooXXooXXooooXX..;;....ooXXoo..;;;;;;",
";;;;;;......;;;;;;;;......................;;;;;;;;......;;;;;;;;",
";;;;;;......;;;;;;;;......................;;;;;;;;......;;;;;;;;",
";;;;;;;;;;;;;;;;;;;;;;;;;;;;;;;;;;;;;;;;;;;;;;;;;;;;;;;;;;;;;;;;",
";;;;;;;;;;;;;;;;;;;;;;;;;;;;;;;;;;;;;;;;;;;;;;;;;;;;;;;;;;;;;;;;",
";;;;;;;;;;;;;;;;;;;;;;;;;;;;;;;;;;;;;;;;;;;;;;;;;;;;;;;;;;;;;;;;",
";;;;;;;;;;;;;;;;;;;;;;;;;;;;;;;;;;;;;;;;;;;;;;;;;;;;;;;;;;;;;;;;"
};
