/* XPM */
static char *result[] = {
/* columns rows colors chars-per-pixel */
"64 64 63 1 ",
"  c #219B55",
". c #229B56",
"X c #219C55",
"o c #229C55",
"O c #219C56",
"+ c #229C56",
"@ c #229D56",
"# c #229D57",
"$ c #229E57",
"% c #229F57",
"& c #229F58",
"* c #239F58",
"= c #23A058",
"- c #23A159",
"; c #23A259",
": c #23A35A",
"> c #24A25A",
", c #24A35A",
"< c #24A45A",
"1 c #24A45B",
"2 c #24A55B",
"3 c #24A65C",
"4 c #25A65C",
"5 c #24A75C",
"6 c #25A85C",
"7 c #25A85D",
"8 c #25A95D",
"9 c #25AA5E",
"0 c #25AB5E",
"q c #25AB5F",
"w c #26AA5E",
"e c #26AB5F",
"r c #26AC5F",
"t c #26AE60",
"y c #26AF61",
"u c #27AF61",
"i c #27B161",
"p c #27B162",
"a c #27B263",
"s c #28B463",
"d c #28B464",
"f c #28B564",
"g c #28B665",
"h c #28B765",
"j c #29B866",
"k c #29B966",
"l c #29BA66",
"z c #29BA67",
"x c #29BB68",
"c c #2ABD68",
"v c #2BC06A",
"b c #2BC26B",
"n c #2BC36B",
"m c #2BC36C",
"M c #2CC46C",
"N c #2CC56D",
"B c #2CC66D",
"V c #2CC76E",
"C c #2DC86E",
"Z c #2DC96F",
"A c #2DCA70",
"S c #2ECC71",
"D c None",
/* pixels */
"DDDDDDDDDDDDDDDDDDDDDDDDDDDDDDDDDDDDDDDDDDDDDDDDDDDDDDDDDDDDDDDD",
"DDDDDDDDDDDDDDDDDDDDDDDDDDDDDDDDDDDDDDDDDDDDDDDDDDDDDDDDDDDDDDDD",
"DDDDDDDDDDDDDDDDDDDDDDDDDDDDDDo++oDDDDDDDDDDDDDDDDDDDDDDDDDDDDDD",
"DDDDDDDDDDDDDDDDDDDDDDDDDDDDDD+#%+DDDDDDDDDDDDDDDDDDDDDDDDDDDDDD",
"DDDDDDDDDDDDDDDDDDDDDDDDDDDDDO+qh+XDDDDDDDDDDDDDDDDDDDDDDDDDDDDD",
"DDDDDDDDDDDDDDDDDDDDDDDDDDDDD+:jS2+.DDDDDDDDDDDDDDDDDDDDDDDDDDDD",
"DDDDDDDDDDDDDDDDDDDDDDDDDDDD++pjSv++DDDDDDDDDDDDDDDDDDDDDDDDDDDD",
"DDDDDDDDDDDDDDDDDDDDDDDDDDDD+1jjSSt+oDDDDDDDDDDDDDDDDDDDDDDDDDDD",
"DDDDDDDDDDDDDDDDDDDDDDDDDDDX+ajjSSn++DDDDDDDDDDDDDDDDDDDDDDDDDDD",
"DDDDDDDDDDDDDDDDDDDDDDDDDDD+:jjjSSS0+DDDDDDDDDDDDDDDDDDDDDDDDDDD",
"DDDDDDDDDDDDDDDDDDDDDDDDDD +yjjjSSSc+ODDDDDDDDDDDDDDDDDDDDDDDDDD",
"DDDDDDDDDDDDDDDDDDDDDDDDDD+&jjjjSSSS;+DDDDDDDDDDDDDDDDDDDDDDDDDD",
"DDDDDDDDDDDDDDDDDDDDDDDDDD+3jjjjSSSSi+oDDDDDDDDDDDDDDDDDDDDDDDDD",
"DDDDDDDDDDDDDDDDDDDDDDDDDX+yjjjjSSSSn+XDDDDDDDDDDDDDDDDDDDDDDDDD",
"DDDDDDDDDDDDDDDDDDDDDDDDD+#jjjjjSSSSS%+DDDDDDDDDDDDDDDDDDDDDDDDD",
"DDDDDDDDDDDDDDD++++++DDDD+1jjjjjSSSSSt+DDDD +++++DDDDDDDDDDDDDDD",
"DDDDDDDDDDDDDDD+$=#+++XDD+qjjjjjSSSSSl+XoX+++$-@+DDDDDDDDDDDDDDD",
"DDDDDDDDDDDDDDD+$442-@++++ajjjjjSSSSSB++++*>244++DDDDDDDDDDDDDDD",
"DDDDDDDDDDDDDDD++44444>$++jjjjjjSSSSSS%+*24444>+ODDDDDDDDDDDDDDD",
"DDDDDDDDDDDDDDD +<444444,1jjjjjjSSSSSSe1444444*+.DDDDDDDDDDDDDDD",
"DDDDDDDDDDDDDDD.+=4444444wjjjjjjSSSSSSu4444444++DDDDDDDDDDDDDDDD",
"DDDDDDDDDDDDDDDD+@4444444ejjjjjjSSSSSSs444444>+ODDDDDDDDDDDDDDDD",
"DDDDDDDDDDDDDDDDX+;444444ujjjjjjSSSSSSk444444$+DDDDDDDDDDDDDDDDD",
"DDDDDDDDDDDDDDDDD+@444444ujjjjjjSSSSSSk44444,++DDDDDDDDDDDDDDDDD",
"DDDDDDDDDDDDDDDDD++;44444rjjjjjjSSSSSSk44444$+ODDDDDDDDDDDDDDDDD",
"DDDDDDDDDDDDD ++++++ruuuupjjjjjjSSSSSSkuuuu7++++++XDDDDDDDDDDDDD",
"DDDDDDDDDD ++++6icnSSSSSSScjjjjjSSSSSSSSSSSSSBvs6%+++XDDDDDDDDDD",
"DDDDDDD.++++0cBSSSSSSSSSSSCkjjjjSSSSSSSSSSSSSSSSSZvt%+++.DDDDDDD",
"DDDDD.+++2lZSSSSSSSSSSSSSSSCcjjjSSSSSSSSSSSSSSSSSSSSSc0+++oDDDDD",
"DDDDX++0nSSSSSSSSSSSSSSSSSSSSVbbSSSSSSSSSSSSSSSSSSSSSSSZt++XDDDD",
"DDo++6vSSSSSSSSSSSSSSSSSSSSSSSSSSSSSSSSSSSSSSSSSSSSSSSSSSn0++ DD",
"DD+;cSSSSSSSSSSSSSSSSSSSSSSSSSSSSSSSSSSSSSSSSSSSSSSSSSSSSSSv;+DD",
"DD+&yjjjjjjjjjjjjjjjjjjjjjjjxcNSSSNxjjjjjjjjjjjjjjjjjjjjjjjy&+DD",
"DD ++1djjjjjjjjjjjjjjjjjjjjjjjjmSSbjjjjjjjjjjjjjjjjjjjjjja1++XDD",
"DDDD+++7djjjjjjjjjjjjjjjjjjjjjjzSSMjjjjjjjjjjjjjjjjjjjja3+++oDDD",
"DDDDDo++#3ajjjjjjjjjjjjjjjjjjjjjSSAkjjjjjjjjjjjjjjjjjy3++++DDDDD",
"DDDDDDDo+++-qgjjjjjjjjjjjjjjjjjjSSSbjjjjjjjjjjjjjjd7&++++DDDDDDD",
"DDDDDDDDDo++++:9pgjjjjjjjjjjjjjjSSSSvjjjjjjjjjdy7-++++oDDDDDDDDD",
"DDDDDDDDDDDDX+++++-5uuuuupjjjjjjSSSSSZfuuuuu<&++++++DDDDDDDDDDDD",
"DDDDDDDDDDDDDDD. ++144444ejjjjjjSSSSSSp44444;++XDDDDDDDDDDDDDDDD",
"DDDDDDDDDDDDDDDD.+*444444ujjjjjjSSSSSSk444444@+DDDDDDDDDDDDDDDDD",
"DDDDDDDDDDDDDDDDX+1444444ujjjjjjSSSSSSk444444;++DDDDDDDDDDDDDDDD",
"DDDDDDDDDDDDDDDD+%4444444rjjjjjjSSSSSSs4444444++DDDDDDDDDDDDDDDD",
"DDDDDDDDDDDDDDD++;44444448jjjjjjSSSSSSu4444444*+DDDDDDDDDDDDDDDD",
"DDDDDDDDDDDDDDDX+144444<$&jjjjjjSSSSSS2-444444;++DDDDDDDDDDDDDDD",
"DDDDDDDDDDDDDDD+#4444,*+++jjjjjjSSSSSS+++-24442+XDDDDDDDDDDDDDDD",
"DDDDDDDDDDDDDDD+*41-@++OX+pjjjjjSSSSSn+++++*;24@+DDDDDDDDDDDDDDD",
"DDDDDDDDDDDDDDo+@#+++XDD.+qjjjjjSSSSSl+oDDO+++#++DDDDDDDDDDDDDDD",
"DDDDDDDDDDDDDDDX++ODDDDDD+1jjjjjSSSSSt+DDDDDD ++XDDDDDDDDDDDDDDD",
"DDDDDDDDDDDDDDDDDDDDDDDDD+&jjjjjSSSSS;+DDDDDDDDDDDDDDDDDDDDDDDDD",
"DDDDDDDDDDDDDDDDDDDDDDDDD +ajjjjSSSSB+ODDDDDDDDDDDDDDDDDDDDDDDDD",
"DDDDDDDDDDDDDDDDDDDDDDDDDD+9jjjjSSSSh+.DDDDDDDDDDDDDDDDDDDDDDDDD",
"DDDDDDDDDDDDDDDDDDDDDDDDDD+&jjjjSSSS;+DDDDDDDDDDDDDDDDDDDDDDDDDD",
"DDDDDDDDDDDDDDDDDDDDDDDDDD +pjjjSSSn+ DDDDDDDDDDDDDDDDDDDDDDDDDD",
"DDDDDDDDDDDDDDDDDDDDDDDDDDD+3jjjSSSt+DDDDDDDDDDDDDDDDDDDDDDDDDDD",
"DDDDDDDDDDDDDDDDDDDDDDDDDDD++djjSSZ+XDDDDDDDDDDDDDDDDDDDDDDDDDDD",
"DDDDDDDDDDDDDDDDDDDDDDDDDDDo+7jjSSi+oDDDDDDDDDDDDDDDDDDDDDDDDDDD",
"DDDDDDDDDDDDDDDDDDDDDDDDDDDD++djSZ%+DDDDDDDDDDDDDDDDDDDDDDDDDDDD",
"DDDDDDDDDDDDDDDDDDDDDDDDDDDDo+3jSt+oDDDDDDDDDDDDDDDDDDDDDDDDDDDD",
"DDDDDDDDDDDDDDDDDDDDDDDDDDDDD++pv++DDDDDDDDDDDDDDDDDDDDDDDDDDDDD",
"DDDDDDDDDDDDDDDDDDDDDDDDDDDDDo+&;+.DDDDDDDDDDDDDDDDDDDDDDDDDDDDD",
"DDDDDDDDDDDDDDDDDDDDDDDDDDDDDDX++XDDDDDDDDDDDDDDDDDDDDDDDDDDDDDD",
"DDDDDDDDDDDDDDDDDDDDDDDDDDDDDDDDDDDDDDDDDDDDDDDDDDDDDDDDDDDDDDDD",
"DDDDDDDDDDDDDDDDDDDDDDDDDDDDDDDDDDDDDDDDDDDDDDDDDDDDDDDDDDDDDDDD"
};
