/* XPM */
static char *c3d183822de04f87b01e5fb98cb24accph8F2bqchXrSjIVH[] = {
/* columns rows colors chars-per-pixel */
"64 64 140 2 ",
"   c None",
".  c #3F4F67",
"X  c #3D536C",
"o  c #3B5671",
"O  c #375B77",
"+  c #3A5A75",
"@  c #355D7B",
"#  c #3F5F79",
"$  c #34617F",
"%  c #3D627E",
"&  c #44465A",
"*  c #434A5E",
"=  c #414D63",
"-  c #435167",
";  c #41536A",
":  c #41586F",
">  c #405B74",
",  c #40627C",
"<  c #2F6687",
"1  c #2E6688",
"2  c #2D6A8D",
"3  c #326383",
"4  c #3E6682",
"5  c #3E6A86",
"6  c #30688A",
"7  c #3C708D",
"8  c #2B6D92",
"9  c #306F91",
"0  c #277197",
"q  c #297197",
"w  c #26739A",
"e  c #2A799F",
"r  c #327193",
"t  c #3C7593",
"y  c #35789A",
"u  c #397A9A",
"i  c #1F7FAB",
"p  c #2477A0",
"a  c #217AA5",
"s  c #287AA1",
"d  c #237EA8",
"f  c #367EA0",
"g  c #1E80AD",
"h  c #1B86B4",
"j  c #1988B7",
"k  c #178BBC",
"l  c #198DBD",
"z  c #2B86AE",
"x  c #3981A3",
"c  c #378AAD",
"v  c #388AAE",
"b  c #238CB8",
"n  c #368EB3",
"m  c #3690B5",
"M  c #148FC1",
"N  c #198FC0",
"B  c #1491C4",
"V  c #1696C9",
"C  c #1897C9",
"Z  c #1699CC",
"A  c #199BCD",
"S  c #169FD3",
"D  c #199FD3",
"F  c #2B99C4",
"G  c #249ECD",
"H  c #349DC4",
"J  c #309EC8",
"K  c #1BA2D5",
"L  c #1BA5D8",
"P  c #1EA9DB",
"I  c #33A2CB",
"U  c #20AADC",
"Y  c #32A8D3",
"T  c #31B1DE",
"R  c #1FB1E5",
"E  c #22AFE1",
"W  c #20AFE2",
"Q  c #20AEE1",
"!  c #23B0E1",
"~  c #20B0E3",
"^  c #23B1E3",
"/  c #23B2E3",
"(  c #23B3E5",
")  c #24B2E4",
"_  c #24B3E5",
"`  c #24B4E5",
"'  c #25B6E7",
"]  c #24B2E4",
"[  c #2BB6E5",
"{  c #2FB7E4",
"}  c #2EB7E5",
"|  c #2FB8E6",
" . c #22B6E9",
".. c #24B6E8",
"X. c #25B6E8",
"o. c #24B7E9",
"O. c #26B8EA",
"+. c #26B9EA",
"@. c #27B9EA",
"#. c #27B9EB",
"$. c #27BAEB",
"%. c #25BAEC",
"&. c #25BAED",
"*. c #27BAEC",
"=. c #27BBEC",
"-. c #22BAED",
";. c #28BCEE",
":. c #28BDEE",
">. c #2EBFEE",
",. c #2EBCEC",
"<. c #28BEF0",
"1. c #29C0F1",
"2. c #2AC0F1",
"3. c #29C0F2",
"4. c #2AC0F2",
"5. c #2AC1F2",
"6. c #2EC1F0",
"7. c #29C2F4",
"8. c #2BC3F4",
"9. c #2DC3F4",
"0. c #2BC4F5",
"q. c #2CC4F6",
"w. c #2CC5F6",
"e. c #2CC6F7",
"r. c #2DC6F7",
"t. c #2BC3F4",
"y. c #2CC7F8",
"u. c #2DC7F8",
"i. c #2CC7F8",
"p. c #2DC8F8",
"a. c #2CC8F9",
"s. c #2DC8F9",
"d. c #2EC8F9",
"f. c #2EC9F9",
"g. c #2EC9FA",
"h. c #2CCAFB",
"j. c #2ECAFA",
"k. c #2ECAFB",
"l. c #2CCCFE",
"z. c #2CCAFB",
/* pixels */
"                                                                                                                                ",
"                                                                                                                                ",
"                                                                                                                                ",
"                                                                                                                                ",
"                                                                                                                                ",
"                                                                                                                                ",
"                                                                                                                                ",
"                                                                                                                                ",
"                                                                                                                                ",
"                                                                                                                                ",
"                                                                                                                                ",
"                              * * * = * * * = * * * * * = * * * * = * * - * * * & = * * * * & - *                               ",
"                            * = * * * * * * * * = * * * * = * * * * - * * * * * = & * * * * * * * =                             ",
"                            * * * * * * * & * * & * * * & * * & * * * & & & * * * & * & * * * * - *                             ",
"                        * * * * * * * & & & & * & * & & & & & & & & & & & & & & & & & & & * * * * * & *                         ",
"                      * * = * * * * * * = * * * * * * * = & = * * * = & - * * * * * - * * * * * * * = * *                       ",
"                    * * * * * * = = X X X X o X X X X X X X X X X X o X X X X X X X X X X X = = * * * - * *                     ",
"                  * = * * * * & = X @ 3 1 1 < < < < 1 1 < 1 1 1 1 < 1 3 1 1 1 < 1 1 1 1 3 @ X = & & * & * * *                   ",
"                * * * * * * & * . @ 2 p a a a a a a a a a a a a a a a a a a a a a a d i p 8 @ = & & & = = * * *                 ",
"              * * * = * * * * = o 6 a j B B N N l N N N N N N N l N N l M l l M l B N N j a 6 + - * * * * * * * =               ",
"              * * * * * = . X + 3 s b A K K K S D D D D D D D D K S D D D D D K K K K S A b s 3 > ; = = = & * = *               ",
"              = * * * * = X @ 2 s b G U R R R W W Q W W W W W Q W W W W Q R Q Q W W R R U G b s 9 @ X = & * * * *               ",
"              * * * & & = + 2 a b K U $.<.<.=.=.<.;.;.<.<.;.<.;.;.;.=.<.=.<.<.=.<.=.<.<.@.U G l a 6 + = * & = * =               ",
"              * * * * & . @ 0 h C P o.5.e.e.e.e.8.i.8.8.i.8.8.i.8.e.e.e.q.q.q.q.q.q.y.y.5. .P V h w @ = & * * * *               ",
"              * * * & * . @ 0 j Z W &.q.f.k.f.f.f.i.k.i.f.i.f.i.i.f.i.f.i.d.d.d.d.g.k.k.e.;.W Z j w @ = & & * * *               ",
"              = * * * & . @ 0 j Z P &.q.f.f.f.f.i.f.k.i.i.f.i.f.f.i.f.i.k.i.k.i.i.d.g.g.8.#.P Z j 0 @ - * * * * *               ",
"              * * * & & . @ q h Z P  .5.e.e.8.t.8.8.8.8.8.8.8.8.8.8.8.8.8.8.8.8.8.8.e.e.<.o.P Z h 0 @ = & * * * =               ",
"              * * * & * - @ 0 j V K Q ' @.@.@.@.#.o.#.o.o.@.@.[ @.@.@.@.@.@.@.;.@.$.$.$.o.Q L V j 0 @ - & & * * *               ",
"              * * * & * - @ w j V S K P P P U P U U U U K U U U U U U U U U U U U U U U P L S Z j w @ - & * * * *               ",
"              * * * * & = @ w j B V A A A A A A Z C A A A C A A Z A Z Z Z A A Z Z S Z A Z Z Z B j w @ . * & * * *               ",
"              = = * & & = @ 8 g k B B B V C V B C C C C C B A B N V M B B B N B B B B B B B l j g 8 @ = * & * * =               ",
"              * * * * * = o 3 q d l G D K L K K D K D K K D D A V B M M M M M M M M M M M k h a w 3 o = * * * * *               ",
"              * = & * & = . o @ r z G )  . .) ) ! ! E ) ) ) Q U Z N M N M M M M M M B V M i p 2 @ o . = * * * * *               ",
"              * & = * = = * = = % u J [ 5.8.<.5.5.>.t.t.t.<.$.Q K V M M M M M M B B V M k i 2 O . = * = * * = * *               ",
"                = * = & & & & * + 7 m Y { ,.t.e.y.y.e.r.i.e.<.) K C M M B B B B M M l j i 0 3 . = & & = * * = *                 ",
"                  * * * = & & * - , t v H T t.f.l.z.e.g.g.i.8.) L C M M M B B V B k h p 8 3 o = & & & & * * *                   ",
"                    * * * * & & = - > 5 x H { e.z.z.q.i.f.i.<.) L V M M M B B V B j p 2 + X = = & = & = * *                     ",
"                      = * * = * * * * ; 5 c Y ,.8.q.e.e.i.i.t.) K V M M B M M M k d 8 @ . * * * = & * * *                       ",
"                        * = * * * & & * > t n I T ,.8.f.k.i.<.) K V M B B M k h d w 3 X * & & * & & = =                         ",
"                          * * * * & & * X # 7 x H T q.z.k.k.<.) S V M M V M h w 2 @ o = * * * * = = &                           ",
"                            * = * * * * = = ; 4 x I ,.g.k.d.<.X.K V B B M k i 2 O X . * = * * * = *                             ",
"                              * * * * * * & * ; 7 m Y | >.8.<.X.L V M k j z 8 @ . * & & * * * * *                               ",
"                                * * * * & & & = > t v H T >.q.-.L V k i p q 3 X = * & * * * * *                                 ",
"                                  * = * * & * = ; > 5 f H | <.-.L B h i 1 @ X . * & * * * * =                                   ",
"                                    = * * * * * & = - 5 v Y { ) L M i 2 + . * * * * * = * *                                     ",
"                                    * * * = * * & & = : u n H F b d q 3 X = & * * * * * * *                                     ",
"                                        * = * * & & = ; > t u u r 6 3 o . * & & * * * *                                         ",
"                                          * * * & = & = ; > > > + X X = = * * * * * =                                           ",
"                                            * * * * * * * * = & * = * * = * * * * *                                             ",
"                                              = * = * * * & & & & & & * * * * * =                                               ",
"                                                * * * * * & * & & * * * * * * =                                                 ",
"                                                  = * * * * * * * * * * * * *                                                   ",
"                                                    * = * * * = * * * * * =                                                     ",
"                                                      * * * * * * = * * *                                                       ",
"                                                        * = * * * * * =                                                         ",
"                                                          * * * = * *                                                           ",
"                                                            * * * *                                                             ",
"                                                                                                                                ",
"                                                                                                                                ",
"                                                                                                                                ",
"                                                                                                                                ",
"                                                                                                                                ",
"                                                                                                                                ",
"                                                                                                                                "
};
