/* XPM */
static char *result[] = {
/* columns rows colors chars-per-pixel */
"64 64 65 1 ",
"  c #219B55",
". c #229B56",
"X c #219C55",
"o c #229C55",
"O c #219C56",
"+ c #229C56",
"@ c #229D56",
"# c #229D57",
"$ c #229E57",
"% c #229F57",
"& c #229F58",
"* c #239F58",
"= c #23A058",
"- c #23A159",
"; c #23A259",
": c #23A35A",
"> c #24A25A",
", c #24A35A",
"< c #24A45A",
"1 c #24A45B",
"2 c #24A55B",
"3 c #24A65C",
"4 c #25A65C",
"5 c #24A75C",
"6 c #25A85C",
"7 c #25A85D",
"8 c #25A95D",
"9 c #25AA5E",
"0 c #25AB5E",
"q c #25AB5F",
"w c #26AA5E",
"e c #26AB5F",
"r c #26AC5F",
"t c #26AE60",
"y c #26AF61",
"u c #27AF61",
"i c #27B161",
"p c #27B162",
"a c #27B263",
"s c #28B463",
"d c #28B464",
"f c #28B564",
"g c #28B665",
"h c #28B765",
"j c #29B866",
"k c #29B966",
"l c #29BA66",
"z c #29BA67",
"x c #29BB68",
"c c #2ABD68",
"v c #2BC06A",
"b c #2BC26B",
"n c #2BC36B",
"m c #2BC36C",
"M c #2CC46C",
"N c #2CC56D",
"B c #2CC66D",
"V c #2CC76E",
"C c #2DC86E",
"Z c #2DC96F",
"A c #2DCA70",
"S c #2ECC71",
"D c #9EE3BB",
"F c #9CE8BB",
"G c None",
/* pixels */
"GGGGGGGjGGGGGGGGGGGGGGGGGGGGGGGGGGGGGGGGGGGGGGGGGGGGGGGGGGGGGGGG",
"GGGGGGjjjGGGGGGFGGGGGGGGGGGGGGGGGGGGGGGGGGGGGGGGGGGGGFGGGGGGGGGG",
"GGGGGjjSjjGGGGFjFGGGGGGGGGGGGGo++oGGGGGGGGGGGGGGGGGGFjFGGGGGGGGG",
"GGGGGjcSSjGGGGGFGGGGGGGGGGGGGG+#%+GGGGGGGGGGGGGFGGGGGFGGjGGGGGGG",
"GGGjjjcSSjjjGGGGGGGGGGGGGGGGGO+qh+XGGGGGGGGGGGFjFGGGGGGjjjGGGGGG",
"GjjjSScSSSSjjGGGGGGGGGGGGGGGG+:jS2+.GGGGGGGGGGGFGGGGGGjjjjjGGGGG",
"jjSSSSSSSSSSjjGGGGGGGGGGGGGG++pjSv++GGGGGGGGGGGGGGGGGGjjSjjGGGGG",
"GjjccccScccjjGGGGFGGGGGGGGGG+1jjSSt+oGGGGGGGGGGGGGGGGjjcSSjGGGGG",
"GGjjjjcSSjjjGGGGFjFGGGGGGGGX+ajjSSn++GGGGGGGGGGGGGGjjjjcSSjjjGGG",
"GGGGGjcSSjGGGGGGGFGGGGGGGGG+:jjjSSS0+GGGGGGGGGGGGGjjSSScSSSSjjGG",
"GGGGGjcSjjGGGGGGGGGGGGGGGG +yjjjSSSc+OGGGGGGGGGGGjjSSSSSSSSSSjjG",
"GGGGGjjSjGGGGGGGGGGGGGGGGG+&jjjjSSSS;+GGGGGGGGGGGGjjccccScccjjGG",
"GGGGGGjjGGGGGGGGGGGGGGGGGG+3jjjjSSSSi+oGGGGGGGGGGGGjjjjcSSjjjGGG",
"GGGGGGGjGGGGGGGGGGGGGGGGGX+yjjjjSSSSn+XGGGGGGGGGGGGGGGjcSSjGGGGG",
"GGFGGGGGGGGGGGGGGGGGGGGGG+#jjjjjSSSSS%+GGGGGGGGGGGGGGGjcSSjGGGGG",
"GFjFGGGGGGGGGGG++++++GGGG+1jjjjjSSSSSt+GGGG +++++GGGGGjjSjjGGGGG",
"GGFGGGGGGGGGGGG+$=#+++XGG+qjjjjjSSSSSl+XoX+++$-@+GGGGGGjjjGGGGGG",
"GGGGGGGGGGGGGGG+$442-@++++ajjjjjSSSSSB++++*>244++GGGGGGGjGGGGGGG",
"GGGGGGGGGGGGGGG++44444>$++jjjjjjSSSSSS%+*24444>+OGGGGGGGGGGGGGFG",
"GGGGGGGGGGGGGGG +<444444,1jjjjjjSSSSSSe1444444*+.GGGGGGGGGGGGFjF",
"GGGGGGGGGGGGGGG.+=4444444wjjjjjjSSSSSSu4444444++GGGGGGGGGGGGGGFG",
"GGGGGGGGGGGGGGGG+@4444444ejjjjjjSSSSSSs444444>+OGGGGGGFGGGGGGGGG",
"GGGGGGGGGGGGGGGGX+;444444ujjjjjjSSSSSSk444444$+GGGGGGFjFGGGGGGGG",
"GGGGGGGGGGGGGGGGG+@444444ujjjjjjSSSSSSk44444,++GGGGGGGFGGGGGGGGG",
"GGGGGGGGGGGGGGGGG++;44444rjjjjjjSSSSSSk44444$+OGGGGGGGGGGGGGGGGG",
"GGGGGGGGGGGGG ++++++ruuuupjjjjjjSSSSSSkuuuu7++++++XGGGGGGGGGGGGG",
"GGGGGGGGGG ++++6icnSSSSSSScjjjjjSSSSSSSSSSSSSBvs6%+++XGGGGGGGGGG",
"GGGGGGG.++++0cBSSSSSSSSSSSCkjjjjSSSSSSSSSSSSSSSSSZvt%+++.GGGGGGG",
"GGGGG.+++2lZSSSSSSSSSSSSSSSCcjjjSSSSSSSSSSSSSSSSSSSSSc0+++oGGGGG",
"GGGGX++0nSSSSSSSSSSSSSSSSSSSSVbbSSSSSSSSSSSSSSSSSSSSSSSZt++XGGGG",
"GGo++6vSSSSSSSSSSSSSSSSSSSSSSSSSSSSSSSSSSSSSSSSSSSSSSSSSSn0++ GG",
"GGG;cSSSSSSSSSSSSSSSSSSSSSSSSSSSSSSSSSSSSSSSSSSSSSSSSSSSSSSv;+GG",
"GGG&yjjjjjjjjjjjjjjjjjjjjjjjxcNSSSNxjjjjjjjjjjjjjjjjjjjjjjjy&+GG",
"GGG++1djjjjjjjjjjjjjjjjjjjjjjjjmSSbjjjjjjjjjjjjjjjjjjjjjja1++XGG",
"GGGG+++7djjjjjjjjjjjjjjjjjjjjjjzSSMjjjjjjjjjjjjjjjjjjjja3+++oGGG",
"GGGGGo++#3ajjjjjjjjjjjjjjjjjjjjjSSAkjjjjjjjjjjjjjjjjjy3++++GGGGG",
"GGGGGGGo+++-qgjjjjjjjjjjjjjjjjjjSSSbjjjjjjjjjjjjjjd7&++++GGGGGGG",
"GGGGGGGGGo++++:9pgjjjjjjjjjjjjjjSSSSvjjjjjjjjjdy7-++++oGGGGGGGGG",
"GGGGGGGGGGGGX+++++-5uuuuupjjjjjjSSSSSZfuuuuu<&++++++GGGGGGGGGGGG",
"GGGGGGGGGGGGGGG. ++144444ejjjjjjSSSSSSp44444;++XGGGGGGGGGGGGGGGG",
"GGGGGGGGGGGGGGGG.+*444444ujjjjjjSSSSSSk444444@+GGGGGGGGGGGGGGGGG",
"GGGDGGGGGGGGGGGGX+1444444ujjjjjjSSSSSSk444444;++GGGGGGGGGGGGGGGG",
"GGDjDGGGGGGGGGGG+%4444444rjjjjjjSSSSSSs4444444++GGGGGGGGGGGGFGGG",
"GGGDGGGGGGGGGGG++;44444448jjjjjjSSSSSSu4444444*+GGGGGGGGGGGFjFGG",
"GGGGGGGGGGGGGGGX+144444<$&jjjjjjSSSSSS2-444444;++GGGGGGGGGGGFGGG",
"GGGGGGGGGGGGGGG+#4444,*+++jjjjjjSSSSSS+++-24442+XGGGGGGGGGGGGGGG",
"GGGGGGGFGGGGGGG+*41-@++OX+pjjjjjSSSSSn+++++*;24@+GGFGGGGGGGGGGGG",
"GGGGGGFjFGGGGGo+@#+++XGG.+qjjjjjSSSSSl+oGGO+++#++GFjFGGGGGGGGGGG",
"GGGGGGGFGGGGGGGX++OGGGGGG+1jjjjjSSSSSt+GGGGGG ++XGGFGGGGGGGGGGGG",
"GGGGGGGGGGGGFGGGGGGGGGGGG+&jjjjjSSSSS;+GGGGGGGGGGGGGGGGGGGjGGGGG",
"GGFGGGGGGGGFjFGGGGGGGGGGG +ajjjjSSSSB+OGGGGGGGGGGGGGGGGGGjjjGGGG",
"GFjFGGGGGGGGFGGGGGGGGGGGGG+9jjjjSSSSh+.GGGGGGGGGGGGGGGGGjjjjjGGG",
"GGFGGjGGGGGGGGGGGGGGGGGGGG+&jjjjSSSS;+GGGGGGGFGGGGGGGGGGjjSjjGGG",
"GGGGjjjGGGGGGGFjGGGGGGGGGG +pjjjSSSn+ GGGGGGFjFGGGGGGGGGjcSSjGGG",
"GGGjjSjjGGGGGGjjFGGGGGGGGGG+3jjjSSSt+GGGGGGGGFGGGGGGGjjjjjSSjjjG",
"GGGjcSSjGGGGGGGFGGGGGGGGGGG++djjSSZ+XGGGGGGGGGGGGGGGjjSSScSSSSjj",
"GjjjcSSjjjGGGGGGGGGFGGGGGGGo+7jjSSi+oGGGGGGGGGGGGGGjjSSSSSSSSSSj",
"jSSScSSSSjjGGGGGGGFjFGGGGGGG++djSZ%+GGGGGGGGGGGGGGGGjjccccScccjj",
"SSSSSSSSSSjjGGGGGGGFGGGGGGGGo+3jSt+oGGGGGGGGGGGGGGGGGjjjjcSSjjjG",
"jccccSccjjjGGGGGGGGGGGGGGGGGG++pv++GGGGGGGGFGGGGGGGGGGGGjcSSjGGG",
"GjjjcSSjjjGGGGGGGGGGGGGGGGGGGo+&;+.GGGGGGGFjFGGGGGGGGGGGjcSSjGGG",
"GGGjcSSjGGGGGGFGGGGGGGGGGGGGGGX++XGGGGGGGGGFGGGGGGGGGGGGjjSjjGGG",
"GGGjcSjjGGGGGFjFGGGGGGGGGGGGGGGGGGGGGGGGGGGGGGGGGGGGGGGGGjjjGGGG",
"GGGGjSjGGGGGGGFGGGGGGGGGGGGGGGGGGGGGGGGGGGGGGGGGGGGGGGGGGGjGGGGG"
};
