/* XPM */
static char *result[] = {
/* columns rows colors chars-per-pixel */
"64 64 13 1 ",
"  c #4F3B35",
". c #795548",
"X c #825C50",
"o c #B8AEAB",
"O c #D1BAB3",
"+ c #9E8F8B",
"@ c #853C3C",
"# c #B85A5A",
"$ c #AB3F3F",
"% c #572121",
"& c #783030",
"* c #573C33",
"= c #773030",
/* pixels */
"                                                                ",
"..............................................................  ",
"XXXXXXXXXXXXXXXXXXXXXXXXXXXXXXXXXXXXXXXXXXXXXXXXXXXXXXXXXXXXXX  ",
"oooooooooooooooooooooooooooooooooooooooooooooooooooooooooooooo  ",
"oooooooooooooooooooooooooooooooooooooooooooooooooooooooooooooo  ",
"OOOOOOOOOOOOOOOOOOOOOOOOOOOOOOOOOOOOOOOOOOOOOOOOOOOOOOOOOOOOOO  ",
"OOOOOOOOOOOOOOOOOOOOOOOOOOOOOOOOOOOOOOOOOOOOOOOOOOOOOOOOOOOOOO  ",
"oooooooooooooooooooooooooooooooooooooooooooooooooooooooooooooo  ",
"oooooooooooooooooooooooooooooooooooooooooooooooooooooooooooooo  ",
"++++++++++++++++++++++++++++++++++++++++++++++++++++++++++++++  ",
"++++++++++++++++++++++++++++++++++++++++++++++++++++++++++++++  ",
"XXXXXXXXXXXXXXXXXXXXXXXXXXXXXXXXXXXXXXXXXXXXXXXXXXXXXXXXXXXXXX  ",
"..............................................................  ",
"                                                                ",
"                                                                ",
"@@@@@@@@@@@@@@@@@@@@@@@@@@@@@@@@@@@@@@@@@@@@@@@@@@@@@@####....  ",
"@@@@@@@@@@@@@@@@@@@@@@@@@@@@@@@@@@@@@@@@@@@@@@@@@@@@@@####....  ",
"@@@@@@@@@@@@@@@@@@@@@@@@@@@@@@@@@@@@@@@@@@@@@@@@@@@@@@####....  ",
"@@@@@@@@@@@@@@@@@@@@@@@@@@@@@@@@@@@@@@@@@@@@@@@@@@@@@@####....  ",
"$$%%%%%%%%%%$$$$$$$$$$$$$&&&&&&&&$$$$$$$$$$$$$$$$$$$##********  ",
"$$%%%%%%%%%%$$$$$$$$$$$$$&&&&&&&&$$$$$$###############********  ",
"$$%%%%%%%%%%$$$$$$$$$$$$$&&&&&&&&$$$$$$###############********  ",
"$$%%%%%%%%%%$$$$$$$$$$$$$&&&&&&&&$$$$$$###############********  ",
"$$$$$$$$$$$$$$$$$$$$$$$$$$$$$$$$$$$$$$$###############********  ",
"$$$$$$$$$$$$$$$$$$$$$$$$$$$$$$$$$$$$$$$###############********  ",
"$$$$$$$$$$$$$$$$$$$$$$$$$$$$$$$$$$$$$$$###############********  ",
"$$$$$$$$$$$$$$$$$$$$$$$$$$$$$$$$$$$$$$$###############********  ",
"$$$$$$$$$$$$$$$$$$$$$$$$$$$$$$$$$$$$$$$###################....  ",
"$$$$$$$$$$$$$#############$$$$$$$$$$$$$###################....  ",
"$$$$$$$$$$$$$#############$$$$$$$$$$$$$###################....  ",
"$$$$$$$$$$$$$#############$$$$$$$$$$$$$###################....  ",
"$$$$$$$$$$$$$#############$$$$$$$$%%%%%%%%################....  ",
"$$$$$$$$$$$$$#############$$$$$$$$%%%%%%%%$$$$$$$$$#######....  ",
"$$$$$$$$$$$$$#############$$$$$$$$%%%%%%%%$$$$$$$$$#######....  ",
"$$$$$$$$$$$$$#############$$$$$$$$%%%%%%%%$$$$$$$$$#######....  ",
"$$$$$$$$$$$$$#############$$$$$$$$%%%%%%%%$$$$$$$$$###********  ",
"$$$$$$$$$$$$$#############$$$$$$$$$$$$$$$$$$$$$$$$$###********  ",
"$$$$$$$$$$$$$$$$$$$$$$$$$$$$$$$$$$$$$$$$$$$$$$$$$$$###********  ",
"$$$$$$$$$$$$$$$$$$$$$$$$$$$$$$$$$$$$$$$$$$$$$$$$$$$###********  ",
"$$$$$$$$$$$$$$$$$$$$$$$$$$$$$$$$$$$$$$$$$$$$$$$$$$$###********  ",
"$$$$$$$$$$$$$$$$$$$$$$$$$$$$$$$$$$$$$$$$$$$$$$$$$$$###********  ",
"$$$$$$$&&&&&&&&&$$$$$$$$$$$$$$$$$$$$$$$$$$$$$$$$$$$###********  ",
"$$$$$$$&&&&&&&&&$$$$$$$$$$$$$$$$$$$$$$$$$$$$$$$$$$$###********  ",
"$$$$$$$&&&&&&&&&$$$$$$$$$$$$$$$$$$$$$$$$$$$$$$$$$$$#######....  ",
"$$$$$$$&&&&&&&&&$$$$$$$$$$$$$$$$$$$$$$$$$$$$$$$$$$$#######....  ",
"$$$$$$$&&&&&&&&&$$$$$$$$$$$$$$&&&&&&&&&&&&&&&&&&&&&&&&####....  ",
"$$$$$$$$$$$$$$$$$$$$$$$$$$$$$$&&&&&&&&&&&&&&&&&&&&&&&&####....  ",
"$$$$$$$$$$$$$$$$$$$$$$$$$$$$$$&&&&&&&&&&&&&&&&&&&&&&&&####....  ",
"$$$$$$$$$$$$$$$$$$$$$$$$$$$$$$&&&&&&&&&&==&&&&&&&&&&&&####....  ",
"$$$$$$$$$$$$$%%%%%%%%%%%%%%%%%%%&&&&&&=====&&&&&&&&&&&####....  ",
"$$$$$$$$$$$$$%%%%%%%%%%%%%%%%%%%&&&&&======&&&&&&&&&&&####....  ",
"$$$$$$$$$$$$$%%%%%%%%%%%%%%%%%%%&&&&&=======&&&&&&&&&&********  ",
"$$$$$$$$$$$$$%%%%%%%%%%%%%%%%%%%&&&&&=======&&&&&&&&&&********  ",
"$$$$$$$$$$$$$%%%%%%%%%%%%%%%%%%%&&&&&&=====&&&&&&&&&&&********  ",
"$$$$$$$$$$$$$%%%%%%%%%%%%%%%%%%%&&&&&&&&==&&&&&&&&&&&&********  ",
"$$$$$$$$$$$$$%%%%%%%%%%%%%%%%%%%&&&&&&&&&&&&&&&&&&&&&&********  ",
"$$$$$$$$$$$$$%%%%%%%%%%%%%%%%%%%&&&&&&&&&&&&&&&&&&&&&&********  ",
"$$$$$$$$$$$$$$$$$$$$$$$$$$$$$$&&&&&&&&&&&&&&&&&&&&&&&&********  ",
"$$$$$$$$$$$$$$$$$$$$$$$$$$$$$$&&&&&&&&&&&&&&&&&&&&&&&&********  ",
"$$$$$$$$$$$$$$$$$$$$$$$$$$$$$$$$$$$$$$$$$$$$$$$$$$$#######....  ",
"$$$$$$$$$$$$$$$$$$$$$$$$$$$$$$$$$$$$$$$$$$$$$$$$$$$#######....  ",
"$$$$$$$$$$$$$$$$$$$$$$$$$$$$$$$$$$$$$$$$$$$$$$$$$$$#######....  ",
"$$$$$$$$$$$$$$$$$$$$$$$$$$$$$$$$$$$$$$$$$$$$$$$$$$$#######....  ",
"$$$$$$$$$$$$$$$$$$$$$$$$$$$$$$$$$$$$$$$$$$$$$$$$$$$#######....  "
};
