/* XPM */
static char *result[] = {
/* columns rows colors chars-per-pixel */
"64 64 13 1 ",
"  c #AB3F3F",
". c #B85A5A",
"X c #795548",
"o c #4F3B35",
"O c #783030",
"+ c #573C33",
"@ c #572121",
"# c #773030",
"$ c #853C3C",
"% c #825C50",
"& c #9E8F8B",
"* c #B8AEAB",
"= c #D1BAB3",
/* pixels */
"                                                   .......XXXXoo",
"                                                   .......XXXXoo",
"                                                   .......XXXXoo",
"                                                   .......XXXXoo",
"                                                   .......XXXXoo",
"                              OOOOOOOOOOOOOOOOOOOOOOOO++++++++oo",
"                              OOOOOOOOOOOOOOOOOOOOOOOO++++++++oo",
"             @@@@@@@@@@@@@@@@@@@OOOOOOOOOOOOOOOOOOOOOO++++++++oo",
"             @@@@@@@@@@@@@@@@@@@OOOOOOOOOOOOOOOOOOOOOO++++++++oo",
"             @@@@@@@@@@@@@@@@@@@OOOOOOOO##OOOOOOOOOOOO++++++++oo",
"             @@@@@@@@@@@@@@@@@@@OOOOOO#####OOOOOOOOOOO++++++++oo",
"             @@@@@@@@@@@@@@@@@@@OOOOO#######OOOOOOOOOO++++++++oo",
"             @@@@@@@@@@@@@@@@@@@OOOOO#######OOOOOOOOOO++++++++oo",
"             @@@@@@@@@@@@@@@@@@@OOOOO######OOOOOOOOOOO....XXXXoo",
"             @@@@@@@@@@@@@@@@@@@OOOOOO#####OOOOOOOOOOO....XXXXoo",
"                              OOOOOOOOOO##OOOOOOOOOOOO....XXXXoo",
"                              OOOOOOOOOOOOOOOOOOOOOOOO....XXXXoo",
"                              OOOOOOOOOOOOOOOOOOOOOOOO....XXXXoo",
"       OOOOOOOOO              OOOOOOOOOOOOOOOOOOOOOOOO....XXXXoo",
"       OOOOOOOOO                                   .......XXXXoo",
"       OOOOOOOOO                                   .......XXXXoo",
"       OOOOOOOOO                                   ...++++++++oo",
"       OOOOOOOOO                                   ...++++++++oo",
"                                                   ...++++++++oo",
"                                                   ...++++++++oo",
"                                                   ...++++++++oo",
"                                                   ...++++++++oo",
"             .............                         ...++++++++oo",
"             .............        @@@@@@@@         ...++++++++oo",
"             .............        @@@@@@@@         .......XXXXoo",
"             .............        @@@@@@@@         .......XXXXoo",
"             .............        @@@@@@@@         .......XXXXoo",
"             .............        @@@@@@@@................XXXXoo",
"             .............             ...................XXXXoo",
"             .............             ...................XXXXoo",
"             .............             ...................XXXXoo",
"                                       ...................XXXXoo",
"                                       ...............++++++++oo",
"                                       ...............++++++++oo",
"                                       ...............++++++++oo",
"                                       ...............++++++++oo",
"  @@@@@@@@@@             OOOOOOOO      ...............++++++++oo",
"  @@@@@@@@@@             OOOOOOOO      ...............++++++++oo",
"  @@@@@@@@@@             OOOOOOOO      ...............++++++++oo",
"  @@@@@@@@@@             OOOOOOOO                   ..++++++++oo",
"$$$$$$$$$$$$$$$$$$$$$$$$$$$$$$$$$$$$$$$$$$$$$$$$$$$$$$....XXXXoo",
"$$$$$$$$$$$$$$$$$$$$$$$$$$$$$$$$$$$$$$$$$$$$$$$$$$$$$$....XXXXoo",
"$$$$$$$$$$$$$$$$$$$$$$$$$$$$$$$$$$$$$$$$$$$$$$$$$$$$$$....XXXXoo",
"$$$$$$$$$$$$$$$$$$$$$$$$$$$$$$$$$$$$$$$$$$$$$$$$$$$$$$....XXXXoo",
"oooooooooooooooooooooooooooooooooooooooooooooooooooooooooooooooo",
"oooooooooooooooooooooooooooooooooooooooooooooooooooooooooooooooo",
"XXXXXXXXXXXXXXXXXXXXXXXXXXXXXXXXXXXXXXXXXXXXXXXXXXXXXXXXXXXXXXoo",
"%%%%%%%%%%%%%%%%%%%%%%%%%%%%%%%%%%%%%%%%%%%%%%%%%%%%%%%%%%%%%%oo",
"&&&&&&&&&&&&&&&&&&&&&&&&&&&&&&&&&&&&&&&&&&&&&&&&&&&&&&&&&&&&&&oo",
"&&&&&&&&&&&&&&&&&&&&&&&&&&&&&&&&&&&&&&&&&&&&&&&&&&&&&&&&&&&&&&oo",
"**************************************************************oo",
"**************************************************************oo",
"==============================================================oo",
"==============================================================oo",
"**************************************************************oo",
"**************************************************************oo",
"%%%%%%%%%%%%%%%%%%%%%%%%%%%%%%%%%%%%%%%%%%%%%%%%%%%%%%%%%%%%%%oo",
"XXXXXXXXXXXXXXXXXXXXXXXXXXXXXXXXXXXXXXXXXXXXXXXXXXXXXXXXXXXXXXoo",
"oooooooooooooooooooooooooooooooooooooooooooooooooooooooooooooooo"
};
