/* XPM */
static char *result[] = {
/* columns rows colors chars-per-pixel */
"64 64 13 1 ",
"  c #572121",
". c #4F3B35",
"X c #573C33",
"o c #773030",
"O c #783030",
"+ c #795548",
"@ c #853C3C",
"# c #AB3F3F",
"$ c #825C50",
"% c #B85A5A",
"& c #9E8F8B",
"* c #B8AEAB",
"= c #D1BAB3",
/* pixels */
"................................................................",
"..++++++++++++++++++++++++++++++++++++++++++++++++++++++++++++++",
"..$$$$$$$$$$$$$$$$$$$$$$$$$$$$$$$$$$$$$$$$$$$$$$$$$$$$$$$$$$$$$$",
"..**************************************************************",
"..**************************************************************",
"..==============================================================",
"..==============================================================",
"..**************************************************************",
"..**************************************************************",
"..&&&&&&&&&&&&&&&&&&&&&&&&&&&&&&&&&&&&&&&&&&&&&&&&&&&&&&&&&&&&&&",
"..&&&&&&&&&&&&&&&&&&&&&&&&&&&&&&&&&&&&&&&&&&&&&&&&&&&&&&&&&&&&&&",
"..$$$$$$$$$$$$$$$$$$$$$$$$$$$$$$$$$$$$$$$$$$$$$$$$$$$$$$$$$$$$$$",
"..++++++++++++++++++++++++++++++++++++++++++++++++++++++++++++++",
"................................................................",
"................................................................",
"..++++%%%%@@@@@@@@@@@@@@@@@@@@@@@@@@@@@@@@@@@@@@@@@@@@@@@@@@@@@@",
"..++++%%%%@@@@@@@@@@@@@@@@@@@@@@@@@@@@@@@@@@@@@@@@@@@@@@@@@@@@@@",
"..++++%%%%@@@@@@@@@@@@@@@@@@@@@@@@@@@@@@@@@@@@@@@@@@@@@@@@@@@@@@",
"..++++%%%%@@@@@@@@@@@@@@@@@@@@@@@@@@@@@@@@@@@@@@@@@@@@@@@@@@@@@@",
"..XXXXXXXX%%###################OOOOOOOO#############          ##",
"..XXXXXXXX%%%%%%%%%%%%%%%######OOOOOOOO#############          ##",
"..XXXXXXXX%%%%%%%%%%%%%%%######OOOOOOOO#############          ##",
"..XXXXXXXX%%%%%%%%%%%%%%%######OOOOOOOO#############          ##",
"..XXXXXXXX%%%%%%%%%%%%%%%#######################################",
"..XXXXXXXX%%%%%%%%%%%%%%%#######################################",
"..XXXXXXXX%%%%%%%%%%%%%%%#######################################",
"..XXXXXXXX%%%%%%%%%%%%%%%#######################################",
"..++++%%%%%%%%%%%%%%%%%%%#######################################",
"..++++%%%%%%%%%%%%%%%%%%%#############%%%%%%%%%%%%%#############",
"..++++%%%%%%%%%%%%%%%%%%%#############%%%%%%%%%%%%%#############",
"..++++%%%%%%%%%%%%%%%%%%%#############%%%%%%%%%%%%%#############",
"..++++%%%%%%%%%%%%%%%%        ########%%%%%%%%%%%%%#############",
"..++++%%%%%%%#########        ########%%%%%%%%%%%%%#############",
"..++++%%%%%%%#########        ########%%%%%%%%%%%%%#############",
"..++++%%%%%%%#########        ########%%%%%%%%%%%%%#############",
"..XXXXXXXX%%%#########        ########%%%%%%%%%%%%%#############",
"..XXXXXXXX%%%#########################%%%%%%%%%%%%%#############",
"..XXXXXXXX%%%###################################################",
"..XXXXXXXX%%%###################################################",
"..XXXXXXXX%%%###################################################",
"..XXXXXXXX%%%###################################################",
"..XXXXXXXX%%%###################################OOOOOOOOO#######",
"..XXXXXXXX%%%###################################OOOOOOOOO#######",
"..++++%%%%%%%###################################OOOOOOOOO#######",
"..++++%%%%%%%###################################OOOOOOOOO#######",
"..++++%%%%OOOOOOOOOOOOOOOOOOOOOOOO##############OOOOOOOOO#######",
"..++++%%%%OOOOOOOOOOOOOOOOOOOOOOOO##############################",
"..++++%%%%OOOOOOOOOOOOOOOOOOOOOOOO##############################",
"..++++%%%%OOOOOOOOOOOOooOOOOOOOOOO##############################",
"..++++%%%%OOOOOOOOOOOoooooOOOOOO                   #############",
"..++++%%%%OOOOOOOOOOOooooooOOOOO                   #############",
"..XXXXXXXXOOOOOOOOOOoooooooOOOOO                   #############",
"..XXXXXXXXOOOOOOOOOOoooooooOOOOO                   #############",
"..XXXXXXXXOOOOOOOOOOOoooooOOOOOO                   #############",
"..XXXXXXXXOOOOOOOOOOOOooOOOOOOOO                   #############",
"..XXXXXXXXOOOOOOOOOOOOOOOOOOOOOO                   #############",
"..XXXXXXXXOOOOOOOOOOOOOOOOOOOOOO                   #############",
"..XXXXXXXXOOOOOOOOOOOOOOOOOOOOOOOO##############################",
"..XXXXXXXXOOOOOOOOOOOOOOOOOOOOOOOO##############################",
"..++++%%%%%%%###################################################",
"..++++%%%%%%%###################################################",
"..++++%%%%%%%###################################################",
"..++++%%%%%%%###################################################",
"..++++%%%%%%%###################################################"
};
