/* XPM */
static char *result[] = {
/* columns rows colors chars-per-pixel */
"64 64 13 1 ",
"  c #4F3B35",
". c #795548",
"X c #B85A5A",
"o c #AB3F3F",
"O c #573C33",
"+ c #783030",
"@ c #572121",
"# c #773030",
"$ c #853C3C",
"% c #825C50",
"& c #9E8F8B",
"* c #B8AEAB",
"= c #D1BAB3",
/* pixels */
"  ....XXXXXXXooooooooooooooooooooooooooooooooooooooooooooooooooo",
"  ....XXXXXXXooooooooooooooooooooooooooooooooooooooooooooooooooo",
"  ....XXXXXXXooooooooooooooooooooooooooooooooooooooooooooooooooo",
"  ....XXXXXXXooooooooooooooooooooooooooooooooooooooooooooooooooo",
"  ....XXXXXXXooooooooooooooooooooooooooooooooooooooooooooooooooo",
"  OOOOOOOO++++++++++++++++++++++++oooooooooooooooooooooooooooooo",
"  OOOOOOOO++++++++++++++++++++++++oooooooooooooooooooooooooooooo",
"  OOOOOOOO++++++++++++++++++++++@@@@@@@@@@@@@@@@@@@ooooooooooooo",
"  OOOOOOOO++++++++++++++++++++++@@@@@@@@@@@@@@@@@@@ooooooooooooo",
"  OOOOOOOO++++++++++++##++++++++@@@@@@@@@@@@@@@@@@@ooooooooooooo",
"  OOOOOOOO+++++++++++#####++++++@@@@@@@@@@@@@@@@@@@ooooooooooooo",
"  OOOOOOOO++++++++++#######+++++@@@@@@@@@@@@@@@@@@@ooooooooooooo",
"  OOOOOOOO++++++++++#######+++++@@@@@@@@@@@@@@@@@@@ooooooooooooo",
"  ....XXXX+++++++++++######+++++@@@@@@@@@@@@@@@@@@@ooooooooooooo",
"  ....XXXX+++++++++++#####++++++@@@@@@@@@@@@@@@@@@@ooooooooooooo",
"  ....XXXX++++++++++++##++++++++++oooooooooooooooooooooooooooooo",
"  ....XXXX++++++++++++++++++++++++oooooooooooooooooooooooooooooo",
"  ....XXXX++++++++++++++++++++++++oooooooooooooooooooooooooooooo",
"  ....XXXX++++++++++++++++++++++++oooooooooooooo+++++++++ooooooo",
"  ....XXXXXXXooooooooooooooooooooooooooooooooooo+++++++++ooooooo",
"  ....XXXXXXXooooooooooooooooooooooooooooooooooo+++++++++ooooooo",
"  OOOOOOOOXXXooooooooooooooooooooooooooooooooooo+++++++++ooooooo",
"  OOOOOOOOXXXooooooooooooooooooooooooooooooooooo+++++++++ooooooo",
"  OOOOOOOOXXXooooooooooooooooooooooooooooooooooooooooooooooooooo",
"  OOOOOOOOXXXooooooooooooooooooooooooooooooooooooooooooooooooooo",
"  OOOOOOOOXXXooooooooooooooooooooooooooooooooooooooooooooooooooo",
"  OOOOOOOOXXXooooooooooooooooooooooooooooooooooooooooooooooooooo",
"  OOOOOOOOXXXoooooooooooooooooooooooooXXXXXXXXXXXXXooooooooooooo",
"  OOOOOOOOXXXooooooooo@@@@@@@@ooooooooXXXXXXXXXXXXXooooooooooooo",
"  ....XXXXXXXooooooooo@@@@@@@@ooooooooXXXXXXXXXXXXXooooooooooooo",
"  ....XXXXXXXooooooooo@@@@@@@@ooooooooXXXXXXXXXXXXXooooooooooooo",
"  ....XXXXXXXooooooooo@@@@@@@@ooooooooXXXXXXXXXXXXXooooooooooooo",
"  ....XXXXXXXXXXXXXXXX@@@@@@@@ooooooooXXXXXXXXXXXXXooooooooooooo",
"  ....XXXXXXXXXXXXXXXXXXXoooooooooooooXXXXXXXXXXXXXooooooooooooo",
"  ....XXXXXXXXXXXXXXXXXXXoooooooooooooXXXXXXXXXXXXXooooooooooooo",
"  ....XXXXXXXXXXXXXXXXXXXoooooooooooooXXXXXXXXXXXXXooooooooooooo",
"  ....XXXXXXXXXXXXXXXXXXXooooooooooooooooooooooooooooooooooooooo",
"  OOOOOOOOXXXXXXXXXXXXXXXooooooooooooooooooooooooooooooooooooooo",
"  OOOOOOOOXXXXXXXXXXXXXXXooooooooooooooooooooooooooooooooooooooo",
"  OOOOOOOOXXXXXXXXXXXXXXXooooooooooooooooooooooooooooooooooooooo",
"  OOOOOOOOXXXXXXXXXXXXXXXooooooooooooooooooooooooooooooooooooooo",
"  OOOOOOOOXXXXXXXXXXXXXXXoooooo++++++++ooooooooooooo@@@@@@@@@@oo",
"  OOOOOOOOXXXXXXXXXXXXXXXoooooo++++++++ooooooooooooo@@@@@@@@@@oo",
"  OOOOOOOOXXXXXXXXXXXXXXXoooooo++++++++ooooooooooooo@@@@@@@@@@oo",
"  OOOOOOOOXXooooooooooooooooooo++++++++ooooooooooooo@@@@@@@@@@oo",
"  ....XXXX$$$$$$$$$$$$$$$$$$$$$$$$$$$$$$$$$$$$$$$$$$$$$$$$$$$$$$",
"  ....XXXX$$$$$$$$$$$$$$$$$$$$$$$$$$$$$$$$$$$$$$$$$$$$$$$$$$$$$$",
"  ....XXXX$$$$$$$$$$$$$$$$$$$$$$$$$$$$$$$$$$$$$$$$$$$$$$$$$$$$$$",
"  ....XXXX$$$$$$$$$$$$$$$$$$$$$$$$$$$$$$$$$$$$$$$$$$$$$$$$$$$$$$",
"                                                                ",
"                                                                ",
"  ..............................................................",
"  %%%%%%%%%%%%%%%%%%%%%%%%%%%%%%%%%%%%%%%%%%%%%%%%%%%%%%%%%%%%%%",
"  &&&&&&&&&&&&&&&&&&&&&&&&&&&&&&&&&&&&&&&&&&&&&&&&&&&&&&&&&&&&&&",
"  &&&&&&&&&&&&&&&&&&&&&&&&&&&&&&&&&&&&&&&&&&&&&&&&&&&&&&&&&&&&&&",
"  **************************************************************",
"  **************************************************************",
"  ==============================================================",
"  ==============================================================",
"  **************************************************************",
"  **************************************************************",
"  %%%%%%%%%%%%%%%%%%%%%%%%%%%%%%%%%%%%%%%%%%%%%%%%%%%%%%%%%%%%%%",
"  ..............................................................",
"                                                                "
};
