/* XPM */
static char *result[] = {
/* columns rows colors chars-per-pixel */
"64 64 151 2 ",
"   c black",
".  c #231010",
"X  c #231111",
"o  c #241010",
"O  c #261111",
"+  c #261212",
"@  c #271212",
"#  c #291313",
"$  c #2A1313",
"%  c #2A1414",
"&  c #2B1414",
"*  c #2C1414",
"=  c #2C1515",
"-  c #2D1515",
";  c #2E1515",
":  c #2F1515",
">  c #2E1616",
",  c #2F1616",
"<  c #301616",
"1  c #301717",
"2  c #311717",
"3  c #331717",
"4  c #331818",
"5  c #381A1A",
"6  c #391B1B",
"7  c #4F3114",
"8  c #573717",
"9  c #403434",
"0  c #413535",
"q  c #413636",
"w  c #423636",
"e  c #433737",
"r  c #443838",
"t  c #453939",
"y  c #463A3A",
"u  c #473B3B",
"i  c #483C3C",
"p  c #483D3D",
"a  c #493D3D",
"s  c #4A3E3E",
"d  c #4B3F3F",
"f  c #783030",
"g  c #68431D",
"h  c #7A4F24",
"j  c #4C4040",
"k  c #4D4040",
"l  c #4D4141",
"z  c #4E4242",
"x  c #504343",
"c  c #504444",
"v  c #514545",
"b  c #524646",
"n  c #534747",
"m  c #534848",
"M  c #544848",
"N  c #554949",
"B  c #574B4B",
"V  c #584C4C",
"C  c #594D4D",
"Z  c #5A4E4E",
"A  c #5B4F4F",
"S  c #5C5050",
"D  c #5D5050",
"F  c #5E5252",
"G  c #5F5353",
"H  c #605454",
"J  c #615555",
"K  c #625656",
"L  c #635757",
"P  c #635858",
"I  c #655959",
"U  c #665A5A",
"Y  c #675B5B",
"T  c #685C5C",
"R  c #915050",
"E  c #A38888",
"W  c #A38989",
"Q  c #A48989",
"!  c #A48A8A",
"~  c #A48B8B",
"^  c #A58B8B",
"/  c #A48C8C",
"(  c #A58C8C",
")  c #A58D8D",
"_  c #A58E8E",
"`  c #A58F8F",
"'  c #A68E8E",
"]  c #A68F8F",
"[  c #A69090",
"{  c #A79090",
"}  c #A69191",
"|  c #A79191",
" . c #A79292",
".. c #A79393",
"X. c #A79494",
"o. c #A89393",
"O. c #A89494",
"+. c #A89595",
"@. c #A89696",
"#. c #A99696",
"$. c #A99797",
"%. c #A99898",
"&. c #AA9898",
"*. c #AA9999",
"=. c #AA9A9A",
"-. c #AB9A9A",
";. c #AA9B9B",
":. c #AB9B9B",
">. c #AB9C9C",
",. c #AB9D9D",
"<. c #AB9E9E",
"1. c #AC9D9D",
"2. c #AC9E9E",
"3. c #AC9F9F",
"4. c #AD9F9F",
"5. c #ACA0A0",
"6. c #ADA0A0",
"7. c #ADA1A1",
"8. c #ADA2A2",
"9. c #AEA2A2",
"0. c #AEA3A3",
"q. c #AEA4A4",
"w. c #AFA4A4",
"e. c #AEA5A5",
"r. c #AFA5A5",
"t. c #AFA6A6",
"y. c #AFA7A7",
"u. c #AFA8A8",
"i. c #B0A7A7",
"p. c #B0A8A8",
"a. c #B0A9A9",
"s. c #B1A9A9",
"d. c #B0AAAA",
"f. c #B1AAAA",
"g. c #B1ABAB",
"h. c #B1ACAC",
"j. c #B1ADAD",
"k. c #B2ACAC",
"l. c #B2ADAD",
"z. c #B2AEAE",
"x. c #B2AFAF",
"c. c #B3AFAF",
"v. c #B3B0B0",
"b. c #B3B1B1",
"n. c #B4B1B1",
"m. c #B4B2B2",
"M. c #B4B3B3",
"N. c #B5B3B3",
"B. c #B4B4B4",
"V. c #B5B4B4",
"C. c gray71",
/* pixels */
"< , ; < < 2 < 2 < 2 < 2 < 2 < 2 < 2 < 2 < 2 < 2 < 2 < 2 < 2 < 2 < 2 < 2 < 2 < 2 < 2 < 2 < 2 < 2 < 2 < 2 < 2 < 2 < 2 < 2 : > , 2 ",
"% O X + % $ % % % $ % % % $ % % % $ % % % $ % % % $ % % % $ % % % $ % % % $ % % % $ % % % $ % % % $ % % % $ % % % $ % % + . @ % ",
"< & o & < 2 < 2 < 2 < 2 < 2 < 2 < 2 < 2 < 2 < 2 < 2 < 2 < 2 < 2 < 2 < 2 < 2 < 2 < 2 < 2 < 2 < 2 < 2 < 2 < 2 < 2 < 2 < 2 # + # 2 ",
"5 < % < 5 5 5 5 2 % 1 5 5 5 5 5 5 5 5 5 5 5 5 5 5 5 5 5 5 5 5 5 5 5 5 5 5 5 5 5 5 5 5 5 5 5 5 5 5 5 5 5 2 % 1 5 5 5 5 5 2 % 1 5 ",
"5 2 $ 2 R R R R f f f f f f f f f f f f f f f f f f f f f f f f f f f f f f f f f f f f f f f f f f f f f f f f R R R R < % < 6 ",
"5 < % < R R R R f f f f f f f f f f f f f f f f f f f f f f f f f f f f f f f f f f f f f f f f f f f f f f f f R R R R 1 $ 2 5 ",
"3 2 $ 2 R R R R f f f f f f f f f f f f f f f f f f f f f f f f f f f f f f f f f f f f f f f f f f f f f f f f R R R R < & < 4 ",
"- < % < R R R R f f f f f f f f f f f f f f f f f f f f f f f f f f f f f f f f f f f f f f f f f f f f f f f f R R R R 2 % 1 = ",
"$ 2 $ 2 f f f f $ % $ & $ % $ & $ % $ & $ % $ & $ % $ & $ % $ & $ % $ & $ % $ & $ % $ & $ % $ & $ % $ & $ % $ & f f f f < % < 6 ",
"= < % < f f f f = * - = = * - = = * - = = * - = = * - = = * - = = * - = = * - = = * - = = * - = = * - = = * - = f f f f 1 $ 2 = ",
"3 2 $ 2 f f f f 3 4 3 4 3 4 3 4 3 4 3 4 3 4 3 4 3 4 3 4 3 4 3 4 3 4 3 4 3 4 3 4 3 4 3 4 3 4 3 4 3 4 3 4 3 4 3 4 f f f f < & < 4 ",
"5 < % < f f f f 2 % 1 5 5 5 5 5 5 5 5 5 5 5 5 5 5 5 5 5 5 5 5 5 5 5 5 5 5 5 5 5 5 5 5 5 5 5 5 5 5 5 5 5 2 % 1 5 f f f f 2 % 1 5 ",
"5 2 $ 2 f f f f < % < 6 9 9 9 9 9 9 9 9 9 9 9 9 9                             9 9 9 9 9 9 9 9 9 9 9 9 9 < % < 6 f f f f < % < 6 ",
"5 < % < f f f f 1 $ 2 5 9 9 9 9 9 9 9 9 9 9 9 9 9                             9 9 9 9 9 9 9 9 9 9 9 9 9 1 $ 2 5 f f f f 1 $ 2 5 ",
"5 2 $ 2 f f f f < 6 < 5 9 9 9 9 9 9 9 9 9 9 9 9 9                             9 9 9 9 0 9 0 9 0 9 9 9 9 < 6 < 5 f f f f < & < 5 ",
"5 < % < f f f f 2 % 1 5 0 w w w 0 w q w 0 w w w 0                             w 0 w q w 0 w w w 0 w q w 2 % 1 5 f f f f 2 % 1 5 ",
"5 2 $ 2 f f f f < % < 6 w w w w w 0 w w w w w w w                             w w w w w w w w w w w w w < % < 6 f f f f < % < 6 ",
"5 < % < f f f f 1 $ 2 5 e e e e w w w e e C.C.e e                             e e C.C.e e e e e e e e e 1 $ 2 5 f f f f 1 $ 2 5 ",
"5 2 $ 2 f f f f < 6 < 5 r r r r w r r e C.C.C.r r                             r r C.C.C.r r r r r r r r < 6 < 5 f f f f < & < 5 ",
"5 < % < f f f f 2 % 1 5 t t t t t t t r C.C.C.t t                             t t C.C.B.t t t t t t t t 2 % 1 5 f f f f 2 % 1 5 ",
"5 2 $ 2 f f f f < % < 6 t t t y t t t C.C.C.C.y t                             y t V.M.M.b.t t y t t t y < % < 6 f f f f < % < 6 ",
"5 < % < f f f f 1 $ 2 5 u u u u u u C.C.C.C.C.u u                             u u m.m.b.n.v.u u u u u u 1 $ 2 5 f f f f 1 $ 2 5 ",
"5 2 $ 2 f f f f < 6 < 5 u u u u u C.C.C.C.C.C.u u                             u u b.v.v.x.x.l.u u u u u < 6 < 5 f f f f < & < 5 ",
"5 < % < f f f f 2 % 1 5 p a a a C.C.C.C.C.C.C.a i                             a i c.c.z.z.l.l.h.i a a a 2 % 1 5 f f f f 2 % 1 5 ",
"5 2 $ 2 f f f f < % < 6 a a a a C.C.C.C.C.C.C.a a                             a a z.l.l.h.h.g.g.a a a a < % < 6 f f f f < % < 6 ",
"5 < % < f f f f 1 $ 2 5 s s s s C.C.C.C.C.C.C.s s                             s s l.k.g.g.f.f.a.s s s s 1 $ 2 5 f f f f 1 $ 2 5 ",
"5 2 $ 2 f f f f < 6 < 5 d d d d C.C.C.C.C.C.C.d d                             d d g.f.f.a.a.p.p.d d d d < 6 < 5 f f f f < & < 5 ",
"5 < % < f f f f 2 % 1 5 j j j j C.C.C.C.C.C.C.j j                             j j d.f.a.p.y.i.t.j j j j 2 % 1 5 f f f f 2 % 1 5 ",
"5 2 $ 2 f f f f < % < 6 j k j l C.C.C.C.C.C.B.l j                             l j a.u.i.t.t.e.r.j k j l < % < 6 f f f f < % < 6 ",
"5 < % < f f f f 1 $ 2 5 z z z z C.C.C.C.C.M.N.z z                             z z y.i.t.t.e.w.0.z z z z 1 $ 2 5 f f f f 1 $ 2 5 ",
"5 2 $ 2 f f f f < 6 < 5 z z z z C.C.B.B.m.m.b.z z                             z z t.e.r.q.0.8.9.z z z z < 6 < 5 f f f f < & < 5 ",
"5 < % < f f f f 2 % 1 5 x c c c V.M.M.m.m.b.b.c x                             c x q.q.0.0.8.8.7.x c c c 2 % 1 5 f f f f 2 % 1 5 ",
"5 2 $ 2 f f f f < % < 6 c c c c m.m.b.b.v.c.z.c c                             c c 0.8.8.7.7.5.3.c c c c < % < 6 f f f f < % < 6 ",
"5 < % < f f f f 1 $ 2 5 v v v v n.v.v.c.c.z.z.v v                             v v 7.7.6.6.3.3.2.v v v v 1 $ 2 5 f f f f 1 $ 2 5 ",
"5 2 $ 2 f f f f < 6 < 5 b b b b x.c.z.z.l.l.h.b b                             b b 6.3.3.2.2.,.,.b b b b < 6 < 5 f f f f < & < 5 ",
"5 < % < f f f f 2 % 1 5 n n n n c.z.l.h.k.g.g.n n                             n n 3.3.1.1.>.>.:.n n n n 2 % 1 5 f f f f 2 % 1 5 ",
"5 2 $ 2 f f f f < % < 6 n M n M j.k.g.g.d.f.a.M n                             M n 2.>.>.;.:.=.=.n m n M < % < 6 f f f f < % < 6 ",
"5 < % < f f f f 1 $ 2 5 N N N N k.g.g.d.s.p.p.N N                             N N >.>.;.:.*.*.%.N N N N 1 $ 2 5 f f f f 1 $ 2 5 ",
"5 2 $ 2 f f f f < 6 < 5 N N N N d.f.p.p.y.i.t.N N                             N N :.=.=.%.&.$.$.N N N N < 6 < 5 f f f f < & < 5 ",
"5 < % < f f f f 2 % 1 5 B B B B a.p.p.y.y.r.r.B B                             B B *.*.%.&.$.$.+.B B B B 2 % 1 5 f f f f 2 % 1 5 ",
"5 2 $ 2 f f f f < % < 6 B B B B y.y.t.t.q.q.0.B B                             B B %.$.$.@.@.O.O.B B B B < % < 6 f f f f < % < 6 ",
"5 < % < f f f f 1 $ 2 5 V V V V t.r.r.q.q.0.0.V V                             V V #.#.+.+.O.O...V V V V 1 $ 2 5 f f f f 1 $ 2 5 ",
"5 2 $ 2 f f f f < 6 < 5 C C C C q.q.0.0.8.8.6.C C                             C C +.O.O..... .| C C C C < 6 < 5 f f f f < & < 5 ",
"5 < % < f f f f 2 % 1 5 Z Z Z Z q.8.9.7.7.5.6.Z Z                             Z Z O.o. . .| | [ Z Z Z Z 2 % 1 5 f f f f 2 % 1 5 ",
"5 2 $ 2 f f f f < % < 6 Z A Z A 7.7.5.6.3.3.<.A Z                             A Z  .} | [ [ ] ] Z A Z A < % < 6 f f f f < % < 6 ",
"5 < % < f f f f 1 $ 2 5 S S S S 7.5.4.2.2.,.1.S S                             S S } | [ ] _ ' ) S S S S 1 $ 2 5 f f f f 1 $ 2 5 ",
"5 2 $ 2 f f f f < 6 < 5 S S S D 3.2.,.1.>.>.;.D S                             D S [ ` ' ) ) / ( S S S S < 6 < 5 f f f f < & < 5 ",
"5 < % < f f f f 2 % 1 5 F F F F 2.,.1.>.:.=.-.F F                             F F _ ' ) ) / ^ ! F F F F 2 % 1 5 f f f f 2 % 1 5 ",
"5 2 $ 2 f f f f < % < 6 F F F F >.>.;.=.*.*.%.F F                             F F ) / ( ! ! W Q F F F F < % < 6 f f f f < % < 6 ",
"5 < % < f f f f 1 $ 2 5 G G G G :.=.=.*.*.%.$.G G                             G G ~ ~ ! ! W W E G G G G 1 $ 2 5 f f f f 1 $ 2 5 ",
"5 2 $ 2 f f f f < 6 < 5 H H H H *.*.%.%.$.#.+.H H                             H H ! W W E E E E H H H H < 6 < 5 f f f f < & < 5 ",
"5 < % < f f f f 2 % 1 5 J J J J &.$.$.#.#.+.+.J J                             J J E E E E E E E J J J J 2 % 1 5 f f f f 2 % 1 5 ",
"5 2 $ 2 f f f f < % < 6 J K J K @.#.+.+.X.O...K J                             K J E E E E E E E J K J K < % < 6 f f f f < % < 6 ",
"5 < % < f f f f 1 $ 2 5 L L L L #.O.O...o. . .L L                             L L E E E E E E E L L L L 1 $ 2 5 f f f f 1 $ 2 5 ",
"5 2 $ 2 f f f f < 6 < 5 L L L P ..o. . .} | [ P L                             P L E E E E E E E L L L L < 6 < 5 f f f f < & < 5 ",
"5 < % < f f f f 2 % 1 5 I I I I o. . .[ { ] ] I I                             I I E E E E E E E I I I I 2 % 1 5 f f f f 2 % 1 5 ",
"5 2 $ 2 R R R R < % < 6 I I I I I I ] ] _ ' ) I I                             I I E E E E E I I I I I I < % < 6 R R R R < % < 6 ",
"5 < % < R R R R 1 $ 2 5 U U U U U U U _ _ ( ( U U                             U U E E E E U U U U U U U 1 $ 2 5 R R R R 1 $ 2 5 ",
"5 2 $ 2 R R R R < 6 < 5 Y Y Y Y Y Y Y Y Y ~ ! Y Y                             Y Y E E Y Y Y Y Y Y Y Y Y < 6 < 5 R R R R < & < 5 ",
"5 < % < R R R R 2 % 1 5 T T T T T T T T T T T T T                             T T T T T T T T T T T T T 2 % 1 5 R R R R 2 % 1 5 ",
"5 2 $ 2 5 5 5 6 < % < 6 h h h h h h h h h h h h h h h h h h h h h h h h h h h h h h h h h h h h h h h h < % < 6 5 5 5 6 < % < 6 ",
"5 < % < 5 5 5 5 1 $ 2 5 g g g g g g g g g g g g g g g g g g g g g g g g g g g g g g g g g g g g g g g g 1 $ 2 5 5 5 5 5 1 $ 2 5 ",
"5 2 $ 2 5 6 5 5 < 6 < 5 8 8 8 8 8 8 8 8 8 8 8 8 8 8 8 8 8 8 8 8 8 8 8 8 8 8 8 8 8 8 8 8 8 8 8 8 8 8 8 8 < 6 < 5 5 6 5 5 < & < 5 ",
"5 < % < 5 5 5 5 2 % 1 5 7 7 7 7 7 7 7 7 7 7 7 7 7 7 7 7 7 7 7 7 7 7 7 7 7 7 7 7 7 7 7 7 7 7 7 7 7 7 7 7 2 % 1 5 5 5 5 5 2 % 1 5 "
};
