/* XPM */
static char *result[] = {
/* columns rows colors chars-per-pixel */
"64 64 114 2 ",
"   c black",
".  c #231010",
"X  c #231111",
"o  c #241010",
"O  c #261111",
"+  c #261212",
"@  c #271212",
"#  c #291313",
"$  c #2A1313",
"%  c #2A1414",
"&  c #2B1414",
"*  c #2C1414",
"=  c #2C1515",
"-  c #2D1515",
";  c #2E1515",
":  c #2F1515",
">  c #2E1616",
",  c #2F1616",
"<  c #301616",
"1  c #301717",
"2  c #311717",
"3  c #331717",
"4  c #331818",
"5  c #381A1A",
"6  c #391B1B",
"7  c #4F3114",
"8  c #573717",
"9  c #403434",
"0  c #413535",
"q  c #423636",
"w  c #433737",
"e  c #443838",
"r  c #453939",
"t  c #463A3A",
"y  c #783030",
"u  c #68431D",
"i  c #7A4F24",
"p  c #915050",
"a  c #A38888",
"s  c #A38989",
"d  c #A48989",
"f  c #A48A8A",
"g  c #A48B8B",
"h  c #A58B8B",
"j  c #A48C8C",
"k  c #A58C8C",
"l  c #A58D8D",
"z  c #A58E8E",
"x  c #A58F8F",
"c  c #A68E8E",
"v  c #A68F8F",
"b  c #A69090",
"n  c #A79090",
"m  c #A69191",
"M  c #A79191",
"N  c #A79292",
"B  c #A79393",
"V  c #A79494",
"C  c #A89393",
"Z  c #A89494",
"A  c #A89595",
"S  c #A89696",
"D  c #A99696",
"F  c #A99797",
"G  c #A99898",
"H  c #AA9898",
"J  c #AA9999",
"K  c #AA9A9A",
"L  c #AB9A9A",
"P  c #AA9B9B",
"I  c #AB9B9B",
"U  c #AB9C9C",
"Y  c #AB9D9D",
"T  c #AB9E9E",
"R  c #AC9D9D",
"E  c #AC9E9E",
"W  c #AC9F9F",
"Q  c #AD9F9F",
"!  c #ACA0A0",
"~  c #ADA0A0",
"^  c #ADA1A1",
"/  c #ADA2A2",
"(  c #AEA2A2",
")  c #AEA3A3",
"_  c #AEA4A4",
"`  c #AFA4A4",
"'  c #AEA5A5",
"]  c #AFA5A5",
"[  c #AFA6A6",
"{  c #AFA7A7",
"}  c #AFA8A8",
"|  c #B0A7A7",
" . c #B0A8A8",
".. c #B0A9A9",
"X. c #B1A9A9",
"o. c #B0AAAA",
"O. c #B1AAAA",
"+. c #B1ABAB",
"@. c #B1ACAC",
"#. c #B1ADAD",
"$. c #B2ACAC",
"%. c #B2ADAD",
"&. c #B2AEAE",
"*. c #B2AFAF",
"=. c #B3AFAF",
"-. c #B3B0B0",
";. c #B3B1B1",
":. c #B4B1B1",
">. c #B4B2B2",
",. c #B4B3B3",
"<. c #B5B3B3",
"1. c #B4B4B4",
"2. c #B5B4B4",
"3. c gray71",
/* pixels */
"< , ; < < 2 < 2 < 2 < 2 < 2 < 2 < 2 < 2 < 2 < 2 < 2 < 2 < 2 < 2 < 2 < 2 < 2 < 2 < 2 < 2 < 2 < 2 < 2 < 2 < 2 < 2 < 2 < 2 : > , 2 ",
"% O X + % $ % % % $ % % % $ % % % $ % % % $ % % % $ % % % $ % % % $ % % % $ % % % $ % % % $ % % % $ % % % $ % % % $ % % + . @ % ",
"< & o & < 2 < 2 < 2 < 2 < 2 < 2 < 2 < 2 < 2 < 2 < 2 < 2 < 2 < 2 < 2 < 2 < 2 < 2 < 2 < 2 < 2 < 2 < 2 < 2 < 2 < 2 < 2 < 2 # + # 2 ",
"5 < % < 5 5 5 5 2 % 1 5 5 5 5 5 5 5 5 5 5 5 5 5 5 5 5 5 5 5 5 5 5 5 5 5 5 5 5 5 5 5 5 5 5 5 5 5 5 5 5 5 2 % 1 5 5 5 5 5 2 % 1 5 ",
"5 2 $ 2 p p p p y y y y y y y y y y y y y y y y y y y y y y y y y y y y y y y y y y y y y y y y y y y y y y y y p p p p < % < 6 ",
"5 < % < p p p p y y y y y y y y y y y y y y y y y y y y y y y y y y y y y y y y y y y y y y y y y y y y y y y y p p p p 1 $ 2 5 ",
"3 2 $ 2 p p p p y y y y y y y y y y y y y y y y y y y y y y y y y y y y y y y y y y y y y y y y y y y y y y y y p p p p < & < 4 ",
"- < % < p p p p y y y y y y y y y y y y y y y y y y y y y y y y y y y y y y y y y y y y y y y y y y y y y y y y p p p p 2 % 1 = ",
"$ 2 $ 2 y y y y $ % $ & $ % $ & $ % $ & $ % $ & $ % $ & $ % $ & $ % $ & $ % $ & $ % $ & $ % $ & $ % $ & $ % $ & y y y y < % < 6 ",
"= < % < y y y y = * - = = * - = = * - = = * - = = * - = = * - = = * - = = * - = = * - = = * - = = * - = = * - = y y y y 1 $ 2 = ",
"3 2 $ 2 y y y y 3 4 3 4 3 4 3 4 3 4 3 4 3 4 3 4 3 4 3 4 3 4 3 4 3 4 3 4 3 4 3 4 3 4 3 4 3 4 3 4 3 4 3 4 3 4 3 4 y y y y < & < 4 ",
"5 < % < y y y y 2 % 1 5 5 5 5 5 5 5 5 5 5 5 5 5 5 5 5 5 5 5 5 5 5 5 5 5 5 5 5 5 5 5 5 5 5 5 5 5 5 5 5 5 2 % 1 5 y y y y 2 % 1 5 ",
"5 2 $ 2 y y y y < % < 6 9 9 9 9 9 9 9 9 9 9 9 9 9 9 9                     9 9 9 9 9 9 9 9 9 9 9 9 9 9 9 < % < 6 y y y y < % < 6 ",
"5 < % < y y y y 1 $ 2 5 9 9 9 9 9 9 9 9 9 9 9 9 9 9 9                     9 9 9 9 9 9 9 9 9 9 9 9 9 9 9 1 $ 2 5 y y y y 1 $ 2 5 ",
"5 2 $ 2 y y y y < 6 < 5 9 9 9 9 9 9 9 9 9 9 9 9 9 9 9                     9 9 9 9 9 9 9 9 0 9 0 9 9 9 9 < 6 < 5 y y y y < & < 5 ",
"5 < % < y y y y 2 % 1 5 9 9 9 9 9 9 9 9 9 9 9 9 0 9 9                     9 9 0 9 9 9 9 9 9 q q 9 9 9 9 2 % 1 5 y y y y 2 % 1 5 ",
"5 2 $ 2 y y y y < % < 6 9 9 9 9 9 0 9 9 9 9 9 9 0 9 9                     9 9 q 9 9 9 9 9 9 q w 9 9 9 9 < % < 6 y y y y < % < 6 ",
"5 < % < y y y y 1 $ 2 5 9 9 9 9 q q 9 9 9 9 9 9 w 9 9                     9 9 w 9 9 9 9 9 9 e e 9 9 9 9 1 $ 2 5 y y y y 1 $ 2 5 ",
"5 2 $ 2 y y y y < 6 < 5 9 9 9 9 9 9 9 9 9 9 3.3.w 9 9                     9 9 e 3.3.9 9 9 9 9 9 9 9 9 9 < 6 < 5 y y y y < & < 5 ",
"5 < % < y y y y 2 % 1 5 9 9 9 9 9 9 e e 3.3.3.3.r 9 9                     9 9 r 3.3.3.1.t r 9 9 9 9 9 9 2 % 1 5 y y y y 2 % 1 5 ",
"5 2 $ 2 y y y y < % < 6 9 9 9 9 9 9 3.3.3.3.3.3.3.9 9                     9 9 3.1.2.,.,.;.:.9 9 9 9 9 9 < % < 6 y y y y < % < 6 ",
"5 < % < y y y y 1 $ 2 5 9 9 9 9 9 9 3.3.3.3.3.3.3.9 9                     9 9 ,.<.>.>.;.:.-.9 9 9 9 9 9 1 $ 2 5 y y y y 1 $ 2 5 ",
"5 2 $ 2 y y y y < 6 < 5 9 9 9 9 9 3.3.3.3.3.3.3.3.9 9                     9 9 >.;.;.-.-.*.*.%.9 9 9 9 9 < 6 < 5 y y y y < & < 5 ",
"5 < % < y y y y 2 % 1 5 9 9 9 9 3.3.3.3.3.3.3.3.3.9 9                     9 9 ;.;.=.=.&.&.%.%.@.9 9 9 9 2 % 1 5 y y y y 2 % 1 5 ",
"5 2 $ 2 y y y y < % < 6 9 9 9 9 3.3.3.3.3.3.3.3.3.9 9                     9 9 =.&.&.%.%.@.@.+.+.9 9 9 9 < % < 6 y y y y < % < 6 ",
"5 < % < y y y y 1 $ 2 5 9 9 9 9 3.3.3.3.3.3.3.3.3.9 9                     9 9 &.&.%.$.+.+.O.O...9 9 9 9 1 $ 2 5 y y y y 1 $ 2 5 ",
"5 2 $ 2 y y y y < 6 < 5 9 9 9 9 3.3.3.3.3.3.3.3.3.9 9                     9 9 %.@.+.O.O..... . .9 9 9 9 < 6 < 5 y y y y < & < 5 ",
"5 < % < y y y y 2 % 1 5 9 9 9 9 3.3.3.3.3.3.3.3.3.9 9                     9 9 +.+.o.O... .{ | [ 9 9 9 9 2 % 1 5 y y y y 2 % 1 5 ",
"5 2 $ 2 y y y y < % < 6 9 9 9 9 3.3.3.3.3.3.1.2.,.9 9                     9 9 O.....} | [ [ ' ] 9 9 9 9 < % < 6 y y y y < % < 6 ",
"5 < % < y y y y 1 $ 2 5 9 9 9 9 3.3.3.3.3.,.<.>.>.9 9                     9 9  . .{ | [ [ ' ` ) 9 9 9 9 1 $ 2 5 y y y y 1 $ 2 5 ",
"5 2 $ 2 y y y y < 6 < 5 9 9 9 9 3.3.1.1.>.>.;.;.-.9 9                     9 9 | [ [ ' ] _ ) / ( 9 9 9 9 < 6 < 5 y y y y < & < 5 ",
"5 < % < y y y y 2 % 1 5 9 9 9 9 2.,.,.>.>.;.;.=.=.9 9                     9 9 ] ] _ _ ) ) / / ^ 9 9 9 9 2 % 1 5 y y y y 2 % 1 5 ",
"5 2 $ 2 y y y y < % < 6 9 9 9 9 >.>.;.;.-.=.&.&.%.9 9                     9 9 _ ) ) / / ^ ^ ! W 9 9 9 9 < % < 6 y y y y < % < 6 ",
"5 < % < y y y y 1 $ 2 5 9 9 9 9 :.-.-.=.=.&.&.%.$.9 9                     9 9 ) ) ^ ^ ~ ~ W W E 9 9 9 9 1 $ 2 5 y y y y 1 $ 2 5 ",
"5 2 $ 2 y y y y < 6 < 5 9 9 9 9 *.=.&.&.%.%.@.+.O.9 9                     9 9 / ~ ~ W W E E Y Y 9 9 9 9 < 6 < 5 y y y y < & < 5 ",
"5 < % < y y y y 2 % 1 5 9 9 9 9 =.&.%.@.$.+.+.o.O.9 9                     9 9 ! ~ W W R R U U I 9 9 9 9 2 % 1 5 y y y y 2 % 1 5 ",
"5 2 $ 2 y y y y < % < 6 9 9 9 9 #.$.+.+.o.O.....} 9 9                     9 9 W T E U U P I K K 9 9 9 9 < % < 6 y y y y < % < 6 ",
"5 < % < y y y y 1 $ 2 5 9 9 9 9 $.+.+.o.X. . .{ | 9 9                     9 9 Y R U U P I J J G 9 9 9 9 1 $ 2 5 y y y y 1 $ 2 5 ",
"5 2 $ 2 y y y y < 6 < 5 9 9 9 9 o.O. . .{ | [ [ ' 9 9                     9 9 U P I K K G H F F 9 9 9 9 < 6 < 5 y y y y < & < 5 ",
"5 < % < y y y y 2 % 1 5 9 9 9 9 .. . .{ { ] ] _ _ 9 9                     9 9 K L J J G H F F A 9 9 9 9 2 % 1 5 y y y y 2 % 1 5 ",
"5 2 $ 2 y y y y < % < 6 9 9 9 9 { { [ [ _ _ ) ) / 9 9                     9 9 J G G F F S S Z Z 9 9 9 9 < % < 6 y y y y < % < 6 ",
"5 < % < y y y y 1 $ 2 5 9 9 9 9 [ ] ] _ _ ) ) ^ ^ 9 9                     9 9 G F D D A A Z Z B 9 9 9 9 1 $ 2 5 y y y y 1 $ 2 5 ",
"5 2 $ 2 y y y y < 6 < 5 9 9 9 9 _ _ ) ) / / ~ ~ W 9 9                     9 9 D A A Z Z B B N M 9 9 9 9 < 6 < 5 y y y y < & < 5 ",
"5 < % < y y y y 2 % 1 5 9 9 9 9 _ / ( ^ ^ ! ~ W W 9 9                     9 9 A A Z C N N M M b 9 9 9 9 2 % 1 5 y y y y 2 % 1 5 ",
"5 2 $ 2 y y y y < % < 6 9 9 9 9 ^ ^ ! ~ W W T E U 9 9                     9 9 Z B N m M b b v v 9 9 9 9 < % < 6 y y y y < % < 6 ",
"5 < % < y y y y 1 $ 2 5 9 9 9 9 ^ ! Q E E Y R U U 9 9                     9 9 N N m M b v z c l 9 9 9 9 1 $ 2 5 y y y y 1 $ 2 5 ",
"5 2 $ 2 y y y y < 6 < 5 9 9 9 9 W E Y R U U P I K 9 9                     9 9 M b b x c l l j k 9 9 9 9 < 6 < 5 y y y y < & < 5 ",
"5 < % < y y y y 2 % 1 5 9 9 9 9 E Y R U I K L J J 9 9                     9 9 v v z c l l j h f 9 9 9 9 2 % 1 5 y y y y 2 % 1 5 ",
"5 2 $ 2 y y y y < % < 6 9 9 9 9 U U P K J J G G F 9 9                     9 9 c l l j k f f s d 9 9 9 9 < % < 6 y y y y < % < 6 ",
"5 < % < y y y y 1 $ 2 5 9 9 9 9 I K K J J G F D D 9 9                     9 9 k k g g f f s s a 9 9 9 9 1 $ 2 5 y y y y 1 $ 2 5 ",
"5 2 $ 2 y y y y < 6 < 5 9 9 9 9 J J G G F D A A Z 9 9                     9 9 g f f s s a a a a 9 9 9 9 < 6 < 5 y y y y < & < 5 ",
"5 < % < y y y y 2 % 1 5 9 9 9 9 H F F D D A A Z C 9 9                     9 9 f f a a a a a a a 9 9 9 9 2 % 1 5 y y y y 2 % 1 5 ",
"5 2 $ 2 y y y y < % < 6 9 9 9 9 S D A A V Z B N m 9 9                     9 9 s a a a a a a a a 9 9 9 9 < % < 6 y y y y < % < 6 ",
"5 < % < y y y y 1 $ 2 5 9 9 9 9 D Z Z B C N N m M 9 9                     9 9 a a a a a a a a a 9 9 9 9 1 $ 2 5 y y y y 1 $ 2 5 ",
"5 2 $ 2 y y y y < 6 < 5 9 9 9 9 B C N N m M b b x 9 9                     9 9 a a a a a a a a a 9 9 9 9 < 6 < 5 y y y y < & < 5 ",
"5 < % < y y y y 2 % 1 5 9 9 9 9 C N N b n v v z c 9 9                     9 9 a a a a a a a a a 9 9 9 9 2 % 1 5 y y y y 2 % 1 5 ",
"5 2 $ 2 p p p p < % < 6 9 9 9 9 9 9 v v z c l l j 9 9                     9 9 a a a a a a a 9 9 9 9 9 9 < % < 6 p p p p < % < 6 ",
"5 < % < p p p p 1 $ 2 5 9 9 9 9 9 9 9 9 z k k g g 9 9                     9 9 a a a a a 9 9 9 9 9 9 9 9 1 $ 2 5 p p p p 1 $ 2 5 ",
"5 2 $ 2 p p p p < 6 < 5 9 9 9 9 9 9 9 9 9 9 f f s 9 9                     9 9 a a a 9 9 9 9 9 9 9 9 9 9 < 6 < 5 p p p p < & < 5 ",
"5 < % < p p p p 2 % 1 5 9 9 9 9 9 9 9 9 9 9 9 9 9 9 9                     9 9 9 9 9 9 9 9 9 9 9 9 9 9 9 2 % 1 5 p p p p 2 % 1 5 ",
"5 2 $ 2 5 5 5 6 < % < 6 i i i i i i i i i i i i i i i i i i i i i i i i i i i i i i i i i i i i i i i i < % < 6 5 5 5 6 < % < 6 ",
"5 < % < 5 5 5 5 1 $ 2 5 u u u u u u u u u u u u u u u u u u u u u u u u u u u u u u u u u u u u u u u u 1 $ 2 5 5 5 5 5 1 $ 2 5 ",
"5 2 $ 2 5 6 5 5 < 6 < 5 8 8 8 8 8 8 8 8 8 8 8 8 8 8 8 8 8 8 8 8 8 8 8 8 8 8 8 8 8 8 8 8 8 8 8 8 8 8 8 8 < 6 < 5 5 6 5 5 < & < 5 ",
"5 < % < 5 5 5 5 2 % 1 5 7 7 7 7 7 7 7 7 7 7 7 7 7 7 7 7 7 7 7 7 7 7 7 7 7 7 7 7 7 7 7 7 7 7 7 7 7 7 7 7 2 % 1 5 5 5 5 5 2 % 1 5 "
};
