/* XPM */
static char *result[] = {
/* columns rows colors chars-per-pixel */
"64 64 147 2 ",
"   c black",
".  c #231010",
"X  c #231111",
"o  c #241010",
"O  c #261111",
"+  c #261212",
"@  c #271212",
"#  c #291313",
"$  c #2A1313",
"%  c #2A1414",
"&  c #2B1414",
"*  c #2C1414",
"=  c #2C1515",
"-  c #2D1515",
";  c #2E1515",
":  c #2F1515",
">  c #2E1616",
",  c #2F1616",
"<  c #301616",
"1  c #301717",
"2  c #311717",
"3  c #331717",
"4  c #331818",
"5  c #381A1A",
"6  c #391B1B",
"7  c #4F3114",
"8  c #573717",
"9  c #403434",
"0  c #413535",
"q  c #423636",
"w  c #433737",
"e  c #443838",
"r  c #453939",
"t  c #463A3A",
"y  c #473B3B",
"u  c #483C3C",
"i  c #493D3D",
"p  c #4A3E3E",
"a  c #4B3F3F",
"s  c #783030",
"d  c #68431D",
"f  c #7A4F24",
"g  c #4C4040",
"h  c #4D4141",
"j  c #4E4242",
"k  c #4F4343",
"l  c #504444",
"z  c #514545",
"x  c #524646",
"c  c #534747",
"v  c #544848",
"b  c #554949",
"n  c #564A4A",
"m  c #574B4B",
"M  c #584C4C",
"N  c #594D4D",
"B  c #5A4E4E",
"V  c #5B4F4F",
"C  c #5C5050",
"Z  c #5D5151",
"A  c #5E5252",
"S  c #5F5353",
"D  c #605454",
"F  c #615555",
"G  c #625656",
"H  c #635757",
"J  c #645858",
"K  c #655959",
"L  c #665A5A",
"P  c #675B5B",
"I  c #685C5C",
"U  c #695D5D",
"Y  c #6A5E5E",
"T  c #915050",
"R  c #A38888",
"E  c #A38989",
"W  c #A48989",
"Q  c #A48A8A",
"!  c #A48B8B",
"~  c #A58B8B",
"^  c #A48C8C",
"/  c #A58C8C",
"(  c #A58D8D",
")  c #A58E8E",
"_  c #A58F8F",
"`  c #A68E8E",
"'  c #A68F8F",
"]  c #A69090",
"[  c #A79090",
"{  c #A69191",
"}  c #A79191",
"|  c #A79292",
" . c #A79393",
".. c #A79494",
"X. c #A89393",
"o. c #A89494",
"O. c #A89595",
"+. c #A89696",
"@. c #A99696",
"#. c #A99797",
"$. c #A99898",
"%. c #AA9898",
"&. c #AA9999",
"*. c #AA9A9A",
"=. c #AA9B9B",
"-. c #AB9B9B",
";. c #AB9C9C",
":. c #AB9D9D",
">. c #AC9D9D",
",. c #AC9E9E",
"<. c #AC9F9F",
"1. c #AD9F9F",
"2. c #ACA0A0",
"3. c #ADA0A0",
"4. c #ADA1A1",
"5. c #ADA2A2",
"6. c #AEA2A2",
"7. c #AEA3A3",
"8. c #AEA4A4",
"9. c #AFA4A4",
"0. c #AEA5A5",
"q. c #AFA5A5",
"w. c #AFA6A6",
"e. c #AFA7A7",
"r. c #AFA8A8",
"t. c #B0A7A7",
"y. c #B0A8A8",
"u. c #B0A9A9",
"i. c #B1A9A9",
"p. c #B0AAAA",
"a. c #B1AAAA",
"s. c #B1ABAB",
"d. c #B1ACAC",
"f. c #B1ADAD",
"g. c #B2ACAC",
"h. c #B2ADAD",
"j. c #B2AEAE",
"k. c #B2AFAF",
"l. c #B3AFAF",
"z. c #B3B0B0",
"x. c #B3B1B1",
"c. c #B4B1B1",
"v. c #B4B2B2",
"b. c #B4B3B3",
"n. c #B4B4B4",
"m. c #B5B4B4",
"M. c gray71",
/* pixels */
"< , ; < < 2 < 2 < 2 < 2 < 2 < 2 < 2 < 2 < 2 < 2 < 2 < 2 < 2 < 2 < 2 < 2 < 2 < 2 < 2 < 2 < 2 < 2 < 2 < 2 < 2 < 2 < 2 < 2 : > , 2 ",
"% O X + % $ % % % $ % % % $ % % % $ % % % $ % % % $ % % % $ % % % $ % % % $ % % % $ % % % $ % % % $ % % % $ % % % $ % % + . @ % ",
"< & o & < 2 < 2 < 2 < 2 < 2 < 2 < 2 < 2 < 2 < 2 < 2 < 2 < 2 < 2 < 2 < 2 < 2 < 2 < 2 < 2 < 2 < 2 < 2 < 2 < 2 < 2 < 2 < 2 # + # 2 ",
"5 < % < 5 5 5 5 2 % 1 5 5 5 5 5 5 5 5 5 5 5 5 5 5 5 5 5 5 5 5 5 5 5 5 5 5 5 5 5 5 5 5 5 5 5 5 5 5 5 5 5 2 % 1 5 5 5 5 5 2 % 1 5 ",
"5 2 $ 2 T T T T s s s s s s s s s s s s s s s s s s s s s s s s s s s s s s s s s s s s s s s s s s s s s s s s T T T T < % < 6 ",
"5 < % < T T T T s s s s s s s s s s s s s s s s s s s s s s s s s s s s s s s s s s s s s s s s s s s s s s s s T T T T 1 $ 2 5 ",
"3 2 $ 2 T T T T s s s s s s s s s s s s s s s s s s s s s s s s s s s s s s s s s s s s s s s s s s s s s s s s T T T T < & < 4 ",
"- < % < T T T T s s s s s s s s s s s s s s s s s s s s s s s s s s s s s s s s s s s s s s s s s s s s s s s s T T T T 2 % 1 = ",
"$ 2 $ 2 s s s s $ % $ & $ % $ & $ % $ & $ % $ & $ % $ & $ % $ & $ % $ & $ % $ & $ % $ & $ % $ & $ % $ & $ % $ & s s s s < % < 6 ",
"= < % < s s s s = * - = = * - = = * - = = * - = = * - = = * - = = * - = = * - = = * - = = * - = = * - = = * - = s s s s 1 $ 2 = ",
"3 2 $ 2 s s s s 3 4 3 4 3 4 3 4 3 4 3 4 3 4 3 4 3 4 3 4 3 4 3 4 3 4 3 4 3 4 3 4 3 4 3 4 3 4 3 4 3 4 3 4 3 4 3 4 s s s s < & < 4 ",
"5 < % < s s s s 2 % 1 5 5 5 5 5 5 5 5 5 5 5 5 5 5 5 5 5 5 5 5 5 5 5 5 5 5 5 5 5 5 5 5 5 5 5 5 5 5 5 5 5 2 % 1 5 s s s s 2 % 1 5 ",
"5 2 $ 2 s s s s < % < 6 9 0 9 0 9 0 9 0 9 9 9 9                                 9 9 9 9 9 9 9 9 9 9 9 9 < % < 6 s s s s < % < 6 ",
"5 < % < s s s s 1 $ 2 5 q 0 q 0 q 0 q 0 q 0 q 0                                 0 9 0 9 0 9 0 9 0 9 0 9 1 $ 2 5 s s s s 1 $ 2 5 ",
"5 2 $ 2 s s s s < 6 < 5 q q q q q q q q q q q q                                 0 q 0 0 0 0 0 0 0 0 0 0 < 6 < 5 s s s s < & < 5 ",
"5 < % < s s s s 2 % 1 5 e w e w w w w w w w w w                                 w q w q w q q q q q q q 2 % 1 5 s s s s 2 % 1 5 ",
"5 2 $ 2 s s s s < % < 6 e e e e e 0 e e w e w e                                 w w w w w w w w w w q w < % < 6 s s s s < % < 6 ",
"5 < % < s s s s 1 $ 2 5 r r r r r r r r r r r e                                 e e e e e e e e e e e e 1 $ 2 5 s s s s 1 $ 2 5 ",
"5 2 $ 2 s s s s < 6 < 5 r t r t r t r t r M.r t                                 e r M.r e r e r e r e r < 6 < 5 s s s s < & < 5 ",
"5 < % < s s s s 2 % 1 5 y y y t y t y e M.M.y t                                 t t M.n.t r t r t r t r 2 % 1 5 s s s s 2 % 1 5 ",
"5 2 $ 2 s s s s < % < 6 y u y u y y M.M.M.M.y y                                 t y b.b.x.c.t t t t t t < % < 6 s s s s < % < 6 ",
"5 < % < s s s s 1 $ 2 5 i u i u i M.M.M.M.M.u u                                 u y v.x.c.z.z.y u y y y 1 $ 2 5 s s s s 1 $ 2 5 ",
"5 2 $ 2 s s s s < 6 < 5 i i i i M.M.M.M.M.M.i i                                 u u z.z.k.k.h.h.u u u u < 6 < 5 s s s s < & < 5 ",
"5 < % < s s s s 2 % 1 5 a p p p M.M.M.M.M.M.p p                                 p i l.j.j.h.h.d.i i i i 2 % 1 5 s s s s 2 % 1 5 ",
"5 2 $ 2 s s s s < % < 6 a a a a M.M.M.M.M.M.p a                                 p p h.h.d.d.s.s.i p i p < % < 6 s s s s < % < 6 ",
"5 < % < s s s s 1 $ 2 5 g g g g M.M.M.M.M.M.g a                                 a a g.s.s.a.a.u.a p a p 1 $ 2 5 s s s s 1 $ 2 5 ",
"5 2 $ 2 s s s s < 6 < 5 g h g h M.M.M.M.M.M.g g                                 a g a.a.u.u.y.y.a g a g < 6 < 5 s s s s < & < 5 ",
"5 < % < s s s s 2 % 1 5 j h j h M.M.M.M.M.M.j h                                 h g a.u.y.e.t.w.h g h g 2 % 1 5 s s s s 2 % 1 5 ",
"5 2 $ 2 s s s s < % < 6 j k j j M.M.M.M.M.M.j j                                 h j r.t.w.w.0.q.h h h h < % < 6 s s s s < % < 6 ",
"5 < % < s s s s 1 $ 2 5 l k l k M.M.M.M.M.b.k k                                 k j t.w.w.0.9.7.j j j j 1 $ 2 5 s s s s 1 $ 2 5 ",
"5 2 $ 2 s s s s < 6 < 5 l l l l M.M.n.n.v.v.k l                                 k k 0.q.8.7.5.6.k k j k < 6 < 5 s s s s < & < 5 ",
"5 < % < s s s s 2 % 1 5 z z z z m.b.b.v.v.x.z z                                 l l 8.7.7.5.5.4.l l l l 2 % 1 5 s s s s 2 % 1 5 ",
"5 2 $ 2 s s s s < % < 6 x x z x v.v.x.x.z.l.z x                                 z z 5.5.4.4.2.<.l z l z < % < 6 s s s s < % < 6 ",
"5 < % < s s s s 1 $ 2 5 c c c c c.z.z.l.l.j.c x                                 x x 4.3.3.<.<.,.x z x z 1 $ 2 5 s s s s 1 $ 2 5 ",
"5 2 $ 2 s s s s < 6 < 5 c v c v k.l.j.j.h.h.c c                                 x c <.<.,.,.:.:.x x x x < 6 < 5 s s s s < & < 5 ",
"5 < % < s s s s 2 % 1 5 b v b v l.j.h.d.g.s.b v                                 v c <.>.>.;.;.-.v c v c 2 % 1 5 s s s s 2 % 1 5 ",
"5 2 $ 2 s s s s < % < 6 b b b b f.g.s.s.p.a.b b                                 v v ;.;.=.-.*.*.v v v v < % < 6 s s s s < % < 6 ",
"5 < % < s s s s 1 $ 2 5 m n n n g.s.s.p.i.y.n n                                 n b ;.=.-.&.&.$.b b b b 1 $ 2 5 s s s s 1 $ 2 5 ",
"5 2 $ 2 s s s s < 6 < 5 m m m m p.a.y.y.e.t.n m                                 n n *.*.$.%.#.#.b n b n < 6 < 5 s s s s < & < 5 ",
"5 < % < s s s s 2 % 1 5 M M M M u.y.y.e.e.q.M m                                 m m &.$.%.#.#.O.m m m n 2 % 1 5 s s s s 2 % 1 5 ",
"5 2 $ 2 s s s s < % < 6 M N M N e.e.w.w.8.8.M N                                 m M #.#.+.+.o.o.m M m M < % < 6 s s s s < % < 6 ",
"5 < % < s s s s 1 $ 2 5 B N B N w.q.q.8.8.7.B N                                 N N @.O.O.o.o. .N M N M 1 $ 2 5 s s s s 1 $ 2 5 ",
"5 2 $ 2 s s s s < 6 < 5 B V B V 8.8.7.7.5.5.B B                                 N B o.o. . .| } N N N N < 6 < 5 s s s s < & < 5 ",
"5 < % < s s s s 2 % 1 5 C V C V 8.5.6.4.4.2.V V                                 V B X.| | } } ] V B B B 2 % 1 5 s s s s 2 % 1 5 ",
"5 2 $ 2 s s s s < % < 6 C C C C 4.4.2.3.<.<.C C                                 V V { } ] ] ' ' V V V V < % < 6 s s s s < % < 6 ",
"5 < % < s s s s 1 $ 2 5 Z Z Z Z 4.2.1.,.,.:.Z Z                                 Z C } ] ' ) ` ( C C C C 1 $ 2 5 s s s s 1 $ 2 5 ",
"5 2 $ 2 s s s s < 6 < 5 A A Z A <.,.:.>.;.;.Z A                                 Z Z _ ` ( ( ^ / C Z C Z < 6 < 5 s s s s < & < 5 ",
"5 < % < s s s s 2 % 1 5 S S S S ,.:.>.;.-.*.S A                                 A A ` ( ( ^ ~ Q A Z A Z 2 % 1 5 s s s s 2 % 1 5 ",
"5 2 $ 2 s s s s < % < 6 S D S D ;.;.=.*.&.&.S S                                 A S ^ / Q Q E W A S A A < % < 6 s s s s < % < 6 ",
"5 < % < s s s s 1 $ 2 5 F D F D -.*.*.&.&.$.F D                                 D S ! Q Q E E R D S D S 1 $ 2 5 s s s s 1 $ 2 5 ",
"5 2 $ 2 s s s s < 6 < 5 F F F F &.&.$.$.#.@.F F                                 D F E E R R R R D D D D < 6 < 5 s s s s < & < 5 ",
"5 < % < s s s s 2 % 1 5 H G H G %.#.#.@.@.O.G G                                 G F R R R R R R F F F F 2 % 1 5 s s s s 2 % 1 5 ",
"5 2 $ 2 s s s s < % < 6 H H H H +.@.O.O...o.G H                                 G G R R R R R R G G F G < % < 6 s s s s < % < 6 ",
"5 < % < s s s s 1 $ 2 5 J J J J @.o.o. .X.| J H                                 H H R R R R R R H H H H 1 $ 2 5 s s s s 1 $ 2 5 ",
"5 2 $ 2 s s s s < 6 < 5 J K J K  .X.| | { } J K                                 J J R R R R R R H J H J < 6 < 5 s s s s < & < 5 ",
"5 < % < s s s s 2 % 1 5 L L L K X.| | ] [ ' L K                                 K K R R R R R R K J K J 2 % 1 5 s s s s 2 % 1 5 ",
"5 2 $ 2 T T T T < % < 6 L P L P L { ' ' ) ` L L                                 K L R R R R R K K K K K < % < 6 T T T T < % < 6 ",
"5 < % < T T T T 1 $ 2 5 I P I P I P ' ) ) / P P                                 P L R R R R P L P L P L 1 $ 2 5 T T T T 1 $ 2 5 ",
"5 2 $ 2 T T T T < 6 < 5 I I I I I I I ( ! ! I I                                 P P R R R P P P P P P P < 6 < 5 T T T T < & < 5 ",
"5 < % < T T T T 2 % 1 5 Y U U U U U U U U U U U                                 U I I I I I I I I I I I 2 % 1 5 T T T T 2 % 1 5 ",
"5 2 $ 2 5 5 5 6 < % < 6 f f f f f f f f f f f f f f f f f f f f f f f f f f f f f f f f f f f f f f f f < % < 6 5 5 5 6 < % < 6 ",
"5 < % < 5 5 5 5 1 $ 2 5 d d d d d d d d d d d d d d d d d d d d d d d d d d d d d d d d d d d d d d d d 1 $ 2 5 5 5 5 5 1 $ 2 5 ",
"5 2 $ 2 5 6 5 5 < 6 < 5 8 8 8 8 8 8 8 8 8 8 8 8 8 8 8 8 8 8 8 8 8 8 8 8 8 8 8 8 8 8 8 8 8 8 8 8 8 8 8 8 < 6 < 5 5 6 5 5 < & < 5 ",
"5 < % < 5 5 5 5 2 % 1 5 7 7 7 7 7 7 7 7 7 7 7 7 7 7 7 7 7 7 7 7 7 7 7 7 7 7 7 7 7 7 7 7 7 7 7 7 7 7 7 7 2 % 1 5 5 5 5 5 2 % 1 5 "
};
