/* XPM */
static char *result[] = {
/* columns rows colors chars-per-pixel */
"64 64 153 2 ",
"   c #231010",
".  c #231111",
"X  c #241010",
"o  c #261111",
"O  c #261212",
"+  c #271212",
"@  c #291313",
"#  c #2A1313",
"$  c #2A1414",
"%  c #2B1414",
"&  c #2C1414",
"*  c #2C1515",
"=  c #2D1515",
"-  c #2E1515",
";  c #2F1515",
":  c #2E1616",
">  c #2F1616",
",  c #301616",
"<  c #301717",
"1  c #311717",
"2  c #331717",
"3  c #331818",
"4  c #381A1A",
"5  c #391B1B",
"6  c #4F3114",
"7  c #573717",
"8  c #403434",
"9  c #413535",
"0  c #423636",
"q  c #433737",
"w  c #443838",
"e  c #453939",
"r  c #463A3A",
"t  c #473B3B",
"y  c #483C3C",
"u  c #493D3D",
"i  c #4A3E3E",
"p  c #4B3F3F",
"a  c #783030",
"s  c #68431D",
"d  c #7A4F24",
"f  c #4C4040",
"g  c #4D4141",
"h  c #4E4242",
"j  c #4F4343",
"k  c #504444",
"l  c #514545",
"z  c #524646",
"x  c #534747",
"c  c #544848",
"v  c #554949",
"b  c #564A4A",
"n  c #574B4B",
"m  c #584C4C",
"M  c #594D4D",
"N  c #5A4E4E",
"B  c #5B4F4F",
"V  c #5C5050",
"C  c #5D5151",
"Z  c #5E5252",
"A  c #5F5353",
"S  c #605454",
"D  c #615555",
"F  c #625656",
"G  c #635757",
"H  c #645858",
"J  c #655959",
"K  c #665A5A",
"L  c #675B5B",
"P  c #685C5C",
"I  c #695D5D",
"U  c #6A5E5E",
"Y  c #6B5F5F",
"T  c #6C6060",
"R  c #6D6161",
"E  c #6E6262",
"W  c #915050",
"Q  c #A38888",
"!  c #A38989",
"~  c #A48989",
"^  c #A48A8A",
"/  c #A48B8B",
"(  c #A58B8B",
")  c #A48C8C",
"_  c #A58C8C",
"`  c #A58D8D",
"'  c #A58E8E",
"]  c #A58F8F",
"[  c #A68E8E",
"{  c #A68F8F",
"}  c #A69090",
"|  c #A79090",
" . c #A69191",
".. c #A79191",
"X. c #A79292",
"o. c #A79393",
"O. c #A79494",
"+. c #A89393",
"@. c #A89494",
"#. c #A89595",
"$. c #A89696",
"%. c #A99696",
"&. c #A99797",
"*. c #A99898",
"=. c #AA9898",
"-. c #AA9999",
";. c #AA9A9A",
":. c #AB9A9A",
">. c #AA9B9B",
",. c #AB9B9B",
"<. c #AB9C9C",
"1. c #AB9D9D",
"2. c #AB9E9E",
"3. c #AC9D9D",
"4. c #AC9E9E",
"5. c #AC9F9F",
"6. c #AD9F9F",
"7. c #ACA0A0",
"8. c #ADA0A0",
"9. c #ADA1A1",
"0. c #ADA2A2",
"q. c #AEA2A2",
"w. c #AEA3A3",
"e. c #AEA4A4",
"r. c #AFA4A4",
"t. c #AEA5A5",
"y. c #AFA5A5",
"u. c #AFA6A6",
"i. c #AFA7A7",
"p. c #AFA8A8",
"a. c #B0A7A7",
"s. c #B0A8A8",
"d. c #B0A9A9",
"f. c #B1A9A9",
"g. c #B0AAAA",
"h. c #B1AAAA",
"j. c #B1ABAB",
"k. c #B1ACAC",
"l. c #B1ADAD",
"z. c #B2ACAC",
"x. c #B2ADAD",
"c. c #B2AEAE",
"v. c #B2AFAF",
"b. c #B3AFAF",
"n. c #B3B0B0",
"m. c #B3B1B1",
"M. c #B4B1B1",
"N. c #B4B2B2",
"B. c #B4B3B3",
"V. c #B5B3B3",
"C. c #B4B4B4",
"Z. c #B5B4B4",
"A. c gray71",
/* pixels */
", > - , , 1 , 1 , 1 , 1 , 1 , 1 , 1 , 1 , 1 , 1 , 1 , 1 , 1 , 1 , 1 , 1 , 1 , 1 , 1 , 1 , 1 , 1 , 1 , 1 , 1 , 1 , 1 , 1 ; : > 1 ",
"$ o . O $ # $ $ $ # $ $ $ # $ $ $ # $ $ $ # $ $ $ # $ $ $ # $ $ $ # $ $ $ # $ $ $ # $ $ $ # $ $ $ # $ $ $ # $ $ $ # $ $ O   + $ ",
", % X % , 1 , 1 , 1 , 1 , 1 , 1 , 1 , 1 , 1 , 1 , 1 , 1 , 1 , 1 , 1 , 1 , 1 , 1 , 1 , 1 , 1 , 1 , 1 , 1 , 1 , 1 , 1 , 1 @ O @ 1 ",
"4 , $ , 4 4 4 4 1 $ < 4 4 4 4 4 4 4 4 4 4 4 4 4 4 4 4 4 4 4 4 4 4 4 4 4 4 4 4 4 4 4 4 4 4 4 4 4 4 4 4 4 1 $ < 4 4 4 4 4 1 $ < 4 ",
"4 1 # 1 W W W W a a a a a a a a a a a a a a a a a a a a a a a a a a a a a a a a a a a a a a a a a a a a a a a a W W W W , $ , 5 ",
"4 , $ , W W W W a a a a a a a a a a a a a a a a a a a a a a a a a a a a a a a a a a a a a a a a a a a a a a a a W W W W < # 1 4 ",
"2 1 # 1 W W W W a a a a a a a a a a a a a a a a a a a a a a a a a a a a a a a a a a a a a a a a a a a a a a a a W W W W , % , 3 ",
"= , $ , W W W W a a a a a a a a a a a a a a a a a a a a a a a a a a a a a a a a a a a a a a a a a a a a a a a a W W W W 1 $ < * ",
"# 1 # 1 a a a a # $ # % # $ # % # $ # % # $ # % # $ # % # $ # % # $ # % # $ # % # $ # % # $ # % # $ # % # $ # % a a a a , $ , 5 ",
"* , $ , a a a a * & = * * & = * * & = * * & = * * & = * * & = * * & = * * & = * * & = * * & = * * & = * * & = * a a a a < # 1 * ",
"2 1 # 1 a a a a 2 3 2 3 2 3 2 3 2 3 2 3 2 3 2 3 2 3 2 3 2 3 2 3 2 3 2 3 2 3 2 3 2 3 2 3 2 3 2 3 2 3 2 3 2 3 2 3 a a a a , % , 3 ",
"4 , $ , a a a a 1 $ < 4 4 4 4 4 4 4 4 4 4 4 4 4 4 4 4 4 4 4 4 4 4 4 4 4 4 4 4 4 4 4 4 4 4 4 4 4 4 4 4 4 1 $ < 4 a a a a 1 $ < 4 ",
"4 1 # 1 a a a a , $ , 5 8 8 8 8 8 8 8 8 8 8 8 8 8 8 8 8 8 8 8 8 8 8 8 8 8 8 8 8 8 8 8 8 8 8 8 8 8 8 8 8 , $ , 5 a a a a , $ , 5 ",
"4 , $ , a a a a < # 1 4 8 8 8 8 8 8 8 8 8 8 8 8 8 8 8 8 8 8 8 8 8 8 8 8 8 8 8 8 8 8 8 8 8 8 8 8 8 8 8 8 < # 1 4 a a a a < # 1 4 ",
"4 1 # 1 a a a a , 5 , 4 8 8 8 8 8 8 8 8 8 8 8 8 8 8 8 8 8 8 8 8 8 8 8 8 8 8 8 8 8 8 8 9 8 9 8 9 8 9 9 9 , 5 , 4 a a a a , % , 4 ",
"4 , $ , a a a a 1 $ < 4 8 8 8 8 8 8 8 8 8 8 8 8 9 8 9 8 9 8 9 9 9 9 9 9 9 9 9 9 0 9 0 9 0 9 0 0 0 0 0 0 1 $ < 4 a a a a 1 $ < 4 ",
"4 1 # 1 a a a a , $ , 5 8 9 8 9 8 9 8 9 A.A.A.A.9 9 9 0 9 0 9 0 9 0 9 0 0 0 0 0 A.A.A.A.0 q 0 q 0 q q q , $ , 5 a a a a , $ , 5 ",
"4 , $ , a a a a < # 1 4 0 9 0 9 0 0 0 0 A.A.A.A.q 0 q 0 q 0 q q q q q q q q q q A.A.A.A.w q w w w w w w < # 1 4 a a a a < # 1 4 ",
"4 1 # 1 a a a a , 5 , 4 0 q 0 q 0 q 0 q A.A.A.A.q q q w q w q w q w q w w w w w A.A.A.A.w e w e w e e e , 5 , 4 a a a a , % , 4 ",
"4 , $ , a a a a 1 $ < 4 w q w q w w w w A.A.A.A.e w e w e w e e e e e e e e e e A.A.A.C.r e r r r r r r 1 $ < 4 a a a a 1 $ < 4 ",
"4 1 # 1 a a a a , $ , 5 w e w e A.A.A.A.A.A.A.A.A.A.A.A.e r e r e r e r A.A.A.A.C.Z.B.B.m.M.n.n.r t r t , $ , 5 a a a a , $ , 5 ",
"4 , $ , a a a a < # 1 4 r e r e A.A.A.A.A.A.A.A.A.A.A.A.t r t t t t t t A.A.A.B.V.N.N.m.M.n.n.c.y y y y < # 1 4 a a a a < # 1 4 ",
"4 1 # 1 a a a a , 5 , 4 r t r t A.A.A.A.A.A.A.A.A.A.A.A.t y t y t y t y C.C.N.N.m.m.n.n.v.v.x.x.y u y u , 5 , 4 a a a a , % , 4 ",
"4 , $ , a a a a 1 $ < 4 y t y t A.A.A.A.A.A.A.A.A.A.A.A.u y u u u u u u B.N.N.m.m.b.b.c.c.x.x.k.i i i i 1 $ < 4 a a a a 1 $ < 4 ",
"4 1 # 1 a a a a , $ , 5 y u y u A.A.A.A.A.A.A.A.A.A.A.A.u i u i u i u i m.m.n.b.c.c.x.x.k.k.j.j.i p i p , $ , 5 a a a a , $ , 5 ",
"4 , $ , a a a a < # 1 4 i u i u A.A.A.A.A.A.A.A.A.A.A.A.p i p i p p p p n.b.b.c.c.x.z.j.j.h.h.d.f f f f < # 1 4 a a a a < # 1 4 ",
"4 1 # 1 a a a a , 5 , 4 i p i p A.A.A.A.A.A.A.A.A.A.C.Z.p f p f p f p f c.c.x.x.k.j.h.h.d.d.s.s.f g f g , 5 , 4 a a a a , % , 4 ",
"4 , $ , a a a a 1 $ < 4 f p f p A.A.A.A.A.A.A.A.A.C.Z.N.g f g f g g g g x.k.z.j.j.g.h.d.s.i.a.u.h h h h 1 $ < 4 a a a a 1 $ < 4 ",
"4 1 # 1 a a a a , $ , 5 f g f g A.A.A.A.A.A.C.Z.B.B.m.M.g h g h g h g h j.j.g.h.d.d.p.a.u.u.t.y.h j h j , $ , 5 a a a a , $ , 5 ",
"4 , $ , a a a a < # 1 4 h g h g A.A.A.A.A.B.V.N.N.m.M.n.j h j h j j j j j.g.f.s.s.i.a.u.u.t.r.w.k k k k < # 1 4 a a a a < # 1 4 ",
"4 1 # 1 a a a a , 5 , 4 h j h j A.A.C.C.N.N.m.m.n.n.v.v.j k j k j k j k s.s.i.a.u.u.t.y.e.w.0.q.k l k l , 5 , 4 a a a a , % , 4 ",
"4 , $ , a a a a 1 $ < 4 k j k j Z.B.B.N.N.m.m.b.b.c.c.x.l k l k l l l l s.i.i.y.y.e.e.w.w.0.0.9.z z z z 1 $ < 4 a a a a 1 $ < 4 ",
"4 1 # 1 a a a a , $ , 5 k l k l N.N.m.m.n.b.c.c.x.x.k.k.l z l z l z l z u.u.e.e.w.w.0.0.9.9.7.5.z x z x , $ , 5 a a a a , $ , 5 ",
"4 , $ , a a a a < # 1 4 z l z l M.n.n.b.b.c.c.x.z.j.j.h.x z x z x x x x y.e.e.w.w.9.9.8.8.5.5.4.c c c c < # 1 4 a a a a < # 1 4 ",
"4 1 # 1 a a a a , 5 , 4 z x z x v.b.c.c.x.x.k.j.h.h.d.d.x c x c x c x c w.w.0.0.8.8.5.5.4.4.1.1.c v c v , 5 , 4 a a a a , % , 4 ",
"4 , $ , a a a a 1 $ < 4 c x c x b.c.x.k.z.j.j.g.h.d.s.i.v c v c v v v v q.9.9.7.8.5.5.3.3.<.<.,.b b b b 1 $ < 4 a a a a 1 $ < 4 ",
"4 1 # 1 a a a a , $ , 5 c v c v l.z.j.j.g.h.d.d.p.a.4 5 v b v b v b v b 4 4 5.5.2.4.<.<.>.,.;.;.b n b n , $ , 5 a a a a , $ , 5 ",
"4 , $ , a a a a < # 1 4 b v b v z.j.j.g.f.s.s.i.a.u.4 4 n b n b n n n n 4 4 4.1.3.<.<.>.,.-.-.*.m m m m < # 1 4 a a a a < # 1 4 ",
"4 1 # 1 a a a a , 5 , 4 b n b n g.h.s.s.i.a.u.u.t.5 4 4 n m n m n m n m 4 5 4 <.>.,.;.;.*.=.&.&.m M m M , 5 , 4 a a a a , % , 4 ",
"4 , $ , a a a a 1 $ < 4 m n m n d.s.s.i.i.y.y.e.e.4 4 4 M m M m M M M M 4 4 4 ;.:.-.-.*.=.&.&.#.N N N N 1 $ < 4 a a a a 1 $ < 4 ",
"4 1 # 1 a a a a , $ , 5 m M m M i.i.u.u.e.e.w.w.0.0.4 5 M N M N M N M N 4 4 -.-.*.*.&.&.$.$.@.@.N B N B , $ , 5 a a a a , $ , 5 ",
"4 , $ , a a a a < # 1 4 N M N M u.y.y.e.e.w.w.9.9.8.4 4 B N B N B B B B 4 4 -.*.&.%.%.#.#.@.@.o.V V V V < # 1 4 a a a a < # 1 4 ",
"4 1 # 1 a a a a , 5 , 4 N B N B e.e.w.w.0.0.8.8.5.5.4.4.B V B V B V B V *.*.&.%.#.#.@.@.o.o.X...V C V C , 5 , 4 a a a a , % , 4 ",
"4 , $ , a a a a 1 $ < 4 V B V B e.0.q.9.9.7.8.5.5.3.3.<.C V C V C C C C &.%.%.#.#.@.+.X.X.....} Z Z Z Z 1 $ < 4 a a a a 1 $ < 4 ",
"4 1 # 1 a a a a , $ , 5 V V V C 9.9.7.8.5.5.2.4.<.<.>.,.C Z C Z C Z C Z #.#.O.@.o.X. ...} } { { Z A Z A , $ , 5 a a a a , $ , 5 ",
"4 , $ , a a a a < # 1 4 Z C Z C 9.7.6.4.4.1.3.<.<.>.,.-.A Z A Z A A A A @.o.+.X.X. ...} { ' [ ` S S S S < # 1 4 a a a a < # 1 4 ",
"4 1 # 1 a a a a , 5 , 4 Z Z Z A 5.4.1.3.<.<.>.,.;.;.*.=.A S A S A S A S X.X. ...} } ] [ ` ` ) _ S D S D , 5 , 4 a a a a , % , 4 ",
"4 , $ , a a a a 1 $ < 4 S A S A 4.1.3.<.,.;.:.-.-.*.=.&.D S D S D D D D X.} | { { ' [ ` ` ) ( ^ F F F F 1 $ < 4 a a a a 1 $ < 4 ",
"4 1 # 1 a a a a , $ , 5 S S S D <.<.>.;.-.-.*.*.&.&.$.$.D F D F D F D F { { ' [ ` ` ) _ ^ ^ ! ~ F G F G , $ , 5 a a a a , $ , 5 ",
"4 , $ , a a a a < # 1 4 F D F D ,.;.;.-.-.*.&.%.%.#.#.@.G F G F G G G G { ' ' _ _ / / ^ ^ ! ! Q H H H H < # 1 4 a a a a < # 1 4 ",
"4 1 # 1 a a a a , 5 , 4 F F F G -.-.*.*.&.%.#.#.@.@.o.o.G H G H G H G H ` ` / / ^ ^ ! ! Q Q Q Q H J H J , 5 , 4 a a a a , % , 4 ",
"4 , $ , a a a a 1 $ < 4 H G H G =.&.&.%.%.#.#.@.+.X.X...J H J H J J J J _ / / ^ ^ Q Q Q Q Q Q Q K K K K 1 $ < 4 a a a a 1 $ < 4 ",
"4 1 # 1 a a a a , $ , 5 H H H J $.%.#.#.O.@.o.X. ...} } J J J K J K J K ^ ^ ! ! Q Q Q Q Q Q Q Q K L K L , $ , 5 a a a a , $ , 5 ",
"4 , $ , a a a a < # 1 4 K J K J %.@.@.o.+.X.X. ...} { ' L K L K L L L L ~ Q Q Q Q Q Q Q Q Q Q Q P P P P < # 1 4 a a a a < # 1 4 ",
"4 1 # 1 a a a a , 5 , 4 K K K L o.+.X.X. ...} } ] [ ` ` L L L P L P L P Q Q Q Q Q Q Q Q Q Q Q Q P I P I , 5 , 4 a a a a , % , 4 ",
"4 , $ , a a a a 1 $ < 4 P L P L +.X.X.} | { { ' [ ` ` ) I P I P I P I I Q Q Q Q Q Q Q Q Q Q Q Q U U U U 1 $ < 4 a a a a 1 $ < 4 ",
"4 1 # 1 W W W W , $ , 5 P P P I  . .{ { ' [ ` ` ) _ ^ ^ I I I U I U I U Q Q Q Q Q Q Q Q Q Q Q Q U Y U Y , $ , 5 W W W W , $ , 5 ",
"4 , $ , W W W W < # 1 4 U I U I } { { ' ' _ _ / / ^ ^ ! Y U Y U Y U Y Y Q Q Q Q Q Q Q Q Q Q Q Q T T T T < # 1 4 W W W W < # 1 4 ",
"4 1 # 1 W W W W , 5 , 4 U U U Y ' ' ` ` / / ^ ^ ! ! Q Q Y Y Y T Y T Y T Q Q Q Q Q Q Q Q Q Q Q Q T R T R , 5 , 4 W W W W , % , 4 ",
"4 , $ , W W W W 1 $ < 4 T Y T Y ` _ _ / / ^ ^ Q Q Q Q Q R T R T R T R R Q Q Q Q Q Q Q Q Q Q Q Q E E E E 1 $ < 4 W W W W 1 $ < 4 ",
"4 1 # 1 4 4 4 5 , $ , 5 d d d d d d d d d d d d d d d d d d d d d d d d d d d d d d d d d d d d d d d d , $ , 5 4 4 4 5 , $ , 5 ",
"4 , $ , 4 4 4 4 < # 1 4 s s s s s s s s s s s s s s s s s s s s s s s s s s s s s s s s s s s s s s s s < # 1 4 4 4 4 4 < # 1 4 ",
"4 1 # 1 4 5 4 4 , 5 , 4 7 7 7 7 7 7 7 7 7 7 7 7 7 7 7 7 7 7 7 7 7 7 7 7 7 7 7 7 7 7 7 7 7 7 7 7 7 7 7 7 , 5 , 4 4 5 4 4 , % , 4 ",
"4 , $ , 4 4 4 4 1 $ < 4 6 6 6 6 6 6 6 6 6 6 6 6 6 6 6 6 6 6 6 6 6 6 6 6 6 6 6 6 6 6 6 6 6 6 6 6 6 6 6 6 1 $ < 4 4 4 4 4 1 $ < 4 "
};
