/* XPM */
static char *result[] = {
/* columns rows colors chars-per-pixel */
"64 64 147 2 ",
"   c black",
".  c #231010",
"X  c #231111",
"o  c #241010",
"O  c #261111",
"+  c #261212",
"@  c #271212",
"#  c #291313",
"$  c #2A1313",
"%  c #2A1414",
"&  c #2B1414",
"*  c #2C1414",
"=  c #2C1515",
"-  c #2D1515",
";  c #2E1515",
":  c #2F1515",
">  c #2E1616",
",  c #2F1616",
"<  c #301616",
"1  c #301717",
"2  c #311717",
"3  c #331717",
"4  c #331818",
"5  c #381A1A",
"6  c #391B1B",
"7  c #4F3114",
"8  c #573717",
"9  c #403434",
"0  c #413535",
"q  c #423636",
"w  c #433737",
"e  c #443838",
"r  c #453939",
"t  c #463A3A",
"y  c #473B3B",
"u  c #483C3C",
"i  c #493D3D",
"p  c #4A3E3E",
"a  c #4B3F3F",
"s  c #783030",
"d  c #68431D",
"f  c #7A4F24",
"g  c #4C4040",
"h  c #4D4141",
"j  c #4E4242",
"k  c #4F4343",
"l  c #504444",
"z  c #514545",
"x  c #524646",
"c  c #534747",
"v  c #544848",
"b  c #554949",
"n  c #564A4A",
"m  c #574B4B",
"M  c #584C4C",
"N  c #594D4D",
"B  c #5A4E4E",
"V  c #5B4F4F",
"C  c #5C5050",
"Z  c #5D5151",
"A  c #5E5252",
"S  c #5F5353",
"D  c #605454",
"F  c #615555",
"G  c #625656",
"H  c #635757",
"J  c #645858",
"K  c #655959",
"L  c #665A5A",
"P  c #675B5B",
"I  c #685C5C",
"U  c #695D5D",
"Y  c #6A5E5E",
"T  c #6B5F5F",
"R  c #6C6060",
"E  c #915050",
"W  c #A38888",
"Q  c #A38989",
"!  c #A48989",
"~  c #A48A8A",
"^  c #A48B8B",
"/  c #A58B8B",
"(  c #A48C8C",
")  c #A58C8C",
"_  c #A58D8D",
"`  c #A58E8E",
"'  c #A68E8E",
"]  c #A68F8F",
"[  c #A69090",
"{  c #A79090",
"}  c #A69191",
"|  c #A79191",
" . c #A79292",
".. c #A79393",
"X. c #A79494",
"o. c #A89393",
"O. c #A89494",
"+. c #A89595",
"@. c #A89696",
"#. c #A99696",
"$. c #A99797",
"%. c #A99898",
"&. c #AA9898",
"*. c #AA9999",
"=. c #AA9A9A",
"-. c #AA9B9B",
";. c #AB9B9B",
":. c #AB9C9C",
">. c #AB9D9D",
",. c #AC9D9D",
"<. c #AC9E9E",
"1. c #AC9F9F",
"2. c #AD9F9F",
"3. c #ACA0A0",
"4. c #ADA0A0",
"5. c #ADA1A1",
"6. c #ADA2A2",
"7. c #AEA2A2",
"8. c #AEA3A3",
"9. c #AEA4A4",
"0. c #AFA4A4",
"q. c #AEA5A5",
"w. c #AFA5A5",
"e. c #AFA6A6",
"r. c #AFA7A7",
"t. c #B0A7A7",
"y. c #B0A8A8",
"u. c #B0A9A9",
"i. c #B1A9A9",
"p. c #B0AAAA",
"a. c #B1AAAA",
"s. c #B1ABAB",
"d. c #B1ACAC",
"f. c #B1ADAD",
"g. c #B2ACAC",
"h. c #B2ADAD",
"j. c #B2AEAE",
"k. c #B2AFAF",
"l. c #B3AFAF",
"z. c #B3B0B0",
"x. c #B3B1B1",
"c. c #B4B1B1",
"v. c #B4B2B2",
"b. c #B4B3B3",
"n. c #B4B4B4",
"m. c #B5B4B4",
"M. c gray71",
/* pixels */
"9 , ; < < 2 < 2 < 2 < 2 < 2 < 2 < 2 < 2 < 2 < 2 < 2 < 2 < 2 < 2 < 2 < 2 < 2 < 2 < 2 < 2 < 2 < 2 < 2 < 2 < 2 < 2 < 2 < 2 : > , 2 ",
"% O X + % $ % % % $ % % % $ % % % $ % % % $ % % % $ % % % $ % % % $ % % % $ % % % $ % % % $ % % % $ % % % $ % % % $ % % + . @ % ",
"< & o & < 2 < 2 < 2 < 2 < 2 < 2 < 2 < 2 < 2 < 2 < 2 < 2 < 2 < 2 < 2 < 2 < 2 < 2 < 2 < 2 < 2 < 2 < 2 < 2 < 2 < 2 < 2 < 2 # + # 2 ",
"5 < % < 5 5 5 5 2 % 1 5 5 5 5 5 5 5 5 5 5 5 5 5 5 5 5 5 5 5 5 5 5 5 5 5 5 5 5 5 5 5 5 5 5 5 5 5 5 5 5 5 2 % 1 5 5 5 5 5 2 % 1 5 ",
"5 2 $ 2 E E E E s s s s s s s s s s s s s s s s s s s s s s s s s s s s s s s s s s s s s s s s s s s s s s s s E E E E < % < 6 ",
"5 < % < E E E E s s s s s s s s s s s s s s s s s s s s s s s s s s s s s s s s s s s s s s s s s s s s s s s s E E E E 1 $ 2 5 ",
"3 2 $ 2 E E E E s s s s s s s s s s s s s s s s s s s s s s s s s s s s s s s s s s s s s s s s s s s s s s s s E E E E < & < 4 ",
"- < % < E E E E s s s s s s s s s s s s s s s s s s s s s s s s s s s s s s s s s s s s s s s s s s s s s s s s E E E E 2 % 1 = ",
"$ 2 $ 2 s s s s $ % $ & $ % $ & $ % $ & $ % $ & $ % $ & $ % $ & $ % $ & $ % $ & $ % $ & $ % $ & $ % $ & $ % $ & s s s s < % < 6 ",
"= < % < s s s s = * - = = * - = = * - = = * - = = * - = = * - = = * - = = * - = = * - = = * - = = * - = = * - = s s s s 1 $ 2 = ",
"3 2 $ 2 s s s s 3 4 3 4 3 4 3 4 3 4 3 4 3 4 3 4 3 4 3 4 3 4 3 4 3 4 3 4 3 4 3 4 3 4 3 4 3 4 3 4 3 4 3 4 3 4 3 4 s s s s < & < 4 ",
"5 < % < s s s s 2 % 1 5 5 5 5 5 5 5 5 5 5 5 5 5 5 5 5 5 5 5 5 5 5 5 5 5 5 5 5 5 5 5 5 5 5 5 5 5 5 5 5 5 2 % 1 5 s s s s 2 % 1 5 ",
"5 2 $ 2 s s s s < % < 6 9 9 9 9 9 9 9 9 9 9 9                                     9 9 9 9 9 9 9 9 9 9 9 < % < 6 s s s s < % < 6 ",
"5 < % < s s s s 1 $ 2 5 9 9 9 9 9 9 9 9 9 9 9                                     9 9 9 9 9 9 9 9 9 9 9 1 $ 2 5 s s s s 1 $ 2 5 ",
"5 2 $ 2 s s s s < 6 < 5 9 9 9 9 9 9 9 9 9 9 9                                     9 9 0 9 9 9 9 9 9 9 9 < 6 < 5 s s s s < & < 5 ",
"5 < % < s s s s 2 % 1 5 0 9 0 9 0 9 0 9 0 9 0                                     9 9 9 9 9 9 9 9 9 9 9 2 % 1 5 s s s s 2 % 1 5 ",
"5 2 $ 2 s s s s < % < 6 0 q 0 q 0 q 0 q 0 0 0                                     0 0 0 9 0 9 0 9 0 9 0 < % < 6 s s s s < % < 6 ",
"5 < % < s s s s 1 $ 2 5 w q w q w q w q w q w                                     q q q q q q q q q q q 1 $ 2 5 s s s s 1 $ 2 5 ",
"5 2 $ 2 s s s s < 6 < 5 w e w e w e w e w w w                                     w w w q w q w q w q w < 6 < 5 s s s s < & < 5 ",
"5 < % < s s s s 2 % 1 5 r e r e r e r e r e r                                     e e e e e e e e e e e 2 % 1 5 s s s s 2 % 1 5 ",
"5 2 $ 2 s s s s < % < 6 r t r t r t r M.M.r r                                     r r b.x.r e r e r e r < % < 6 s s s s < % < 6 ",
"5 < % < s s s s 1 $ 2 5 y t y t y M.M.M.M.t y                                     t t x.c.z.z.t t t t t 1 $ 2 5 s s s s 1 $ 2 5 ",
"5 2 $ 2 s s s s < 6 < 5 y u y u M.M.M.M.M.y y                                     y y z.k.k.h.h.t y t y < 6 < 5 s s s s < & < 5 ",
"5 < % < s s s s 2 % 1 5 i u i u M.M.M.M.M.u i                                     u u j.j.h.h.d.u u u u 2 % 1 5 s s s s 2 % 1 5 ",
"5 2 $ 2 s s s s < % < 6 i p i p M.M.M.M.M.i i                                     i i h.d.d.s.s.u i u i < % < 6 s s s s < % < 6 ",
"5 < % < s s s s 1 $ 2 5 a p a p M.M.M.M.M.p a                                     p p s.s.a.a.u.p p p p 1 $ 2 5 s s s s 1 $ 2 5 ",
"5 2 $ 2 s s s s < 6 < 5 a g a g M.M.M.M.M.a a                                     a a a.u.u.y.y.p a p a < 6 < 5 s s s s < & < 5 ",
"5 < % < s s s s 2 % 1 5 h g h g M.M.M.M.M.g h                                     g g u.y.r.t.e.g g g g 2 % 1 5 s s s s 2 % 1 5 ",
"5 2 $ 2 s s s s < % < 6 h j h j M.M.M.M.M.h h                                     h h t.e.e.q.w.g h g h < % < 6 s s s s < % < 6 ",
"5 < % < s s s s 1 $ 2 5 k j k j M.M.M.M.M.j k                                     j j e.e.q.0.8.j j j j 1 $ 2 5 s s s s 1 $ 2 5 ",
"5 2 $ 2 s s s s < 6 < 5 k l k l M.M.n.n.v.k k                                     k k w.9.8.6.7.j k j k < 6 < 5 s s s s < & < 5 ",
"5 < % < s s s s 2 % 1 5 z l z l m.b.b.v.v.l z                                     l l 8.8.6.6.5.l l l l 2 % 1 5 s s s s 2 % 1 5 ",
"5 2 $ 2 s s s s < % < 6 z x z x v.v.x.x.z.z z                                     z z 6.5.5.3.1.l z l z < % < 6 s s s s < % < 6 ",
"5 < % < s s s s 1 $ 2 5 c x c x c.z.z.l.l.x c                                     x x 4.4.1.1.<.x x x x 1 $ 2 5 s s s s 1 $ 2 5 ",
"5 2 $ 2 s s s s < 6 < 5 c v c v k.l.j.j.h.c c                                     c c 1.<.<.>.>.x c x c < 6 < 5 s s s s < & < 5 ",
"5 < % < s s s s 2 % 1 5 b v b v l.j.h.d.g.v b                                     v v ,.,.:.:.;.v v v v 2 % 1 5 s s s s 2 % 1 5 ",
"5 2 $ 2 s s s s < % < 6 b n b n f.g.s.s.p.b b                                     b b :.-.;.=.=.v b v b < % < 6 s s s s < % < 6 ",
"5 < % < s s s s 1 $ 2 5 m n m n g.s.s.p.i.n m                                     n n -.;.*.*.%.n n n n 1 $ 2 5 s s s s 1 $ 2 5 ",
"5 2 $ 2 s s s s < 6 < 5 m M m M p.a.y.y.r.m m                                     m m =.%.&.$.$.n m n m < 6 < 5 s s s s < & < 5 ",
"5 < % < s s s s 2 % 1 5 N M N M u.y.y.r.r.M N                                     M M %.&.$.$.+.M M M M 2 % 1 5 s s s s 2 % 1 5 ",
"5 2 $ 2 s s s s < % < 6 N B N B r.r.e.e.9.N N                                     N N $.@.@.O.O.M N M N < % < 6 s s s s < % < 6 ",
"5 < % < s s s s 1 $ 2 5 V B V B e.w.w.9.9.B V                                     B B +.+.O.O...B B B B 1 $ 2 5 s s s s 1 $ 2 5 ",
"5 2 $ 2 s s s s < 6 < 5 V C V C 9.9.8.8.6.V V                                     V V O..... .| B V B V < 6 < 5 s s s s < & < 5 ",
"5 < % < s s s s 2 % 1 5 Z C Z C 9.6.7.5.5.C Z                                     C C  . .| | [ C C C C 2 % 1 5 s s s s 2 % 1 5 ",
"5 2 $ 2 s s s s < % < 6 Z A Z A 5.5.3.4.1.Z Z                                     Z Z | [ [ ] ] C Z C Z < % < 6 s s s s < % < 6 ",
"5 < % < s s s s 1 $ 2 5 S A S A 5.3.2.<.<.A S                                     A A [ ] ` ' _ A A A A 1 $ 2 5 s s s s 1 $ 2 5 ",
"5 2 $ 2 s s s s < 6 < 5 S D S D 1.<.>.,.:.S S                                     S S ' _ _ ( ) A S A S < 6 < 5 s s s s < & < 5 ",
"5 < % < s s s s 2 % 1 5 F D F D <.>.,.:.;.D F                                     D D _ _ ( / ~ D D D D 2 % 1 5 s s s s 2 % 1 5 ",
"5 2 $ 2 s s s s < % < 6 F G F G :.:.-.=.*.F F                                     F F ) ~ ~ Q ! D F D F < % < 6 s s s s < % < 6 ",
"5 < % < s s s s 1 $ 2 5 H G H G ;.=.=.*.*.G H                                     G G ~ ~ Q Q W G G G G 1 $ 2 5 s s s s 1 $ 2 5 ",
"5 2 $ 2 s s s s < 6 < 5 H J H J *.*.%.%.$.H H                                     H H Q W W W W G H G H < 6 < 5 s s s s < & < 5 ",
"5 < % < s s s s 2 % 1 5 K J K J &.$.$.#.#.J K                                     J J W W W W W J J J J 2 % 1 5 s s s s 2 % 1 5 ",
"5 2 $ 2 s s s s < % < 6 K L K L @.#.+.+.X.K K                                     K K W W W W W J K J K < % < 6 s s s s < % < 6 ",
"5 < % < s s s s 1 $ 2 5 P L P L #.O.O...o.L P                                     L L W W W W W L L L L 1 $ 2 5 s s s s 1 $ 2 5 ",
"5 2 $ 2 s s s s < 6 < 5 P I P I ..o. . .} P P                                     P P W W W W W L P L P < 6 < 5 s s s s < & < 5 ",
"5 < % < s s s s 2 % 1 5 U I U I o. . .[ { I U                                     I I W W W W W I I I I 2 % 1 5 s s s s 2 % 1 5 ",
"5 2 $ 2 E E E E < % < 6 U Y U Y } } ] ] ` U U                                     U U W W W W W I U I U < % < 6 E E E E < % < 6 ",
"5 < % < E E E E 1 $ 2 5 T Y T Y T ] ] ` ` Y T                                     Y Y W W W W Y Y Y Y Y 1 $ 2 5 E E E E 1 $ 2 5 ",
"5 2 $ 2 E E E E < 6 < 5 T R T R T R _ _ ^ T T                                     T T W W W Y T Y T Y T < 6 < 5 E E E E < & < 5 ",
"5 < % < E E E E 2 % 1 5 R R R R R R R R R R R                                     R R R R R R R R R R R 2 % 1 5 E E E E 2 % 1 5 ",
"5 2 $ 2 5 5 5 6 < % < 6 f f f f f f f f f f f f f f f f f f f f f f f f f f f f f f f f f f f f f f f f < % < 6 5 5 5 6 < % < 6 ",
"5 < % < 5 5 5 5 1 $ 2 5 d d d d d d d d d d d d d d d d d d d d d d d d d d d d d d d d d d d d d d d d 1 $ 2 5 5 5 5 5 1 $ 2 5 ",
"5 2 $ 2 5 6 5 5 < 6 < 5 8 8 8 8 8 8 8 8 8 8 8 8 8 8 8 8 8 8 8 8 8 8 8 8 8 8 8 8 8 8 8 8 8 8 8 8 8 8 8 8 < 6 < 5 5 6 5 5 < & < 5 ",
"5 < % < 5 5 5 5 2 % 1 5 7 7 7 7 7 7 7 7 7 7 7 7 7 7 7 7 7 7 7 7 7 7 7 7 7 7 7 7 7 7 7 7 7 7 7 7 7 7 7 7 2 % 1 5 5 5 5 5 2 % 1 5 "
};
