/* XPM */
static char *ccb5020d00fb4871fd541eb47da17a21uoKGxvgDgLAf3MTM[] = {
/* columns rows colors chars-per-pixel */
"64 64 131 2 ",
"   c #575D73",
".  c #585F73",
"X  c #5B6176",
"o  c #5C6279",
"O  c #60657E",
"+  c #636683",
"@  c #666A83",
"#  c #696E86",
"$  c #6A6B8E",
"%  c #6B7087",
"&  c #6E718E",
"*  c #70738F",
"=  c #6C6D91",
"-  c #736F9F",
";  c #6F7290",
":  c #737694",
">  c #767897",
",  c #75739E",
"<  c #777998",
"1  c #7A7C9B",
"2  c #7673A0",
"3  c #7976A3",
"4  c #7C7AA5",
"5  c #7F7CA9",
"6  c #807EA7",
"7  c #807DAA",
"8  c #7F829A",
"9  c #7F80A1",
"0  c #82849E",
"q  c #8283A4",
"w  c #8A8CA5",
"e  c #8584AC",
"r  c #8887AE",
"t  c #8888AE",
"y  c #8785B0",
"u  c #8985B3",
"i  c #8D8BB4",
"p  c #8F8DB8",
"a  c #918FB7",
"s  c #928FBC",
"d  c #9493B6",
"f  c #9A9BB5",
"g  c #9694BE",
"h  c #9895BF",
"j  c #9698BD",
"k  c #9D9CBC",
"l  c #A2A2BE",
"z  c #9692C0",
"x  c #9A96C4",
"c  c #9C9BC3",
"v  c #9F9BC9",
"b  c #A09EC4",
"n  c #A19DCB",
"m  c #9EA0C2",
"M  c #A2A3C3",
"N  c #A5A3CA",
"B  c #ABA7CF",
"V  c #ADAECB",
"C  c #A9A7D0",
"Z  c #ABA8D1",
"A  c #B2AFD2",
"S  c #AEB1D0",
"D  c #B4B5D4",
"F  c #B3B9D5",
"G  c #B9BDD6",
"H  c #B9B5D9",
"J  c #BCBCDD",
"K  c #BEBFE0",
"L  c #BEC2DA",
"P  c #C0C3DB",
"I  c #C0C4DA",
"U  c #C0C4DB",
"Y  c #C1C5DB",
"T  c #C1C4DE",
"R  c #C3C5E0",
"E  c #C5CFE5",
"W  c #C6D0E5",
"Q  c #C7D1E6",
"!  c #C7D2E7",
"~  c #C8D2E7",
"^  c #C8D3E7",
"/  c #CCD0E7",
"(  c #CFD2E9",
")  c #CFD8EA",
"_  c #D0D4EA",
"`  c #D3DBEC",
"'  c #D3DEEF",
"]  c #D5DCEC",
"[  c #D7DEEC",
"{  c #D7DEED",
"}  c #D8DEED",
"|  c #D8DFED",
" . c #D4DFF0",
".. c #D9E0EE",
"X. c #DAE0EE",
"o. c #DAE1EE",
"O. c #D6E1F2",
"+. c #D7E2F2",
"@. c #DBE6F5",
"#. c #DCE7F5",
"$. c #DDE4F3",
"%. c #DEEAF7",
"&. c #DFEBF8",
"*. c #E0E7F5",
"=. c #E0EAF6",
"-. c #E1EBF7",
";. c #E3ECF7",
":. c #E4EDF7",
">. c #E5EDF7",
",. c #E3EEF9",
"<. c #E5EDF8",
"1. c #E6EDF8",
"2. c #E6EEF8",
"3. c #E6EFF8",
"4. c #E7EFF8",
"5. c #E6EFF9",
"6. c #E7EFF9",
"7. c #E4EFFA",
"8. c #E7F0F9",
"9. c #E7F0FA",
"0. c #E8F0F9",
"q. c #E8F1FA",
"w. c #E9F1FA",
"e. c #E9F2FA",
"r. c #E9F2FB",
"t. c #EAF2FB",
"y. c #EAF3FB",
"u. c #EBF3FB",
"i. c #EBF4FC",
"p. c #ECF4FC",
"a. c #ECF5FD",
/* pixels */
"o o X X X . . . . . X . . . . .     .   . .         . .   . . . . . . . .               . .   . . . . .     .       . . . . o o ",
"o o X o O O X O X X o o o o o o   + o o o o o . + . o o   + o o o o . . + . . +   + o o . + .   + . + o . + o o o o o . o o o o ",
"o o o O O O % % O O O O O O O O + + @ @ @ + + + + + @ @ + + # $ @ + + + + + @ @ + + + $ @ + + + +   + + + @ @ @ # 8 O o O o o o ",
"X o O % * 6 0 0 0 6 6 * 0 * 6 0 ; 8 8 9 8 8 8 ; 8 ; 8 8 ; 8 9 9 8 8 ; 8 8 ; 8 8 ; 8 9 9 8 8 8 & 8 8 8 8 : : 8 9 9 9 8 8 8 O o . ",
"X X O > 0 l l f d i t e 0 w t t 9 9 z 9 9 9 9 9 9 9 9 9 j 9 9 9 j 9 9 9 9 9 9 p 9 p 9 9 9 u 9 u 9 9 9 u 9 p 9 c f l f 8 8 o . . ",
". o # 0 f V D A N k h g k h h h z z c z n c v x z c x z z v z z z c m z z z x c j j x x c j c x j j j z z x m C D F S f 8 o o . ",
"  o % 0 l D P H B b h g g h g h v x x v c x n c z n c c x n c c z z m z z c z z v x x v j j j j j j z z z z m Z F J L f 8 % o . ",
"  o # 0 f V H A b a t e e t e e 9 p 9 9 p 9 9 9 9 9 9 p 9 9 9 p 9 9 z 9 9 z 9 9 9 p 9 9 u u 9 9 9 p 9 p 9 p p m A H S m 8 % o . ",
". o # 8 d N B b a 6 > : : : : > 8 ; : 8 ; : 8 ; < < > < < < > > 9 9 8 ; 8 ; 9 8 = 8 8 = 9 9 $ 8 > : > : > > 8 a b B N d 8 # o . ",
". o @ > t c c d 0 % @ O @ @ @ @ @ + @ @ @ @ + + @ @ + # @ @ + + $ # @ + + + + + + + + + + + + + @ @ @ @ @ @ & 9 d c b t > # o . ",
". o @ > t h g t > # O O O O @ @ + + + + + + + o + o + o + o + + o + + + + + + + . + + + + o + o @ @ @ o o o @ 1 u h g t : @ o . ",
". o @ > e h g t : O o O # * : * @ + + + + + + + + + + + @ + @ + @ + + + + + + + + + + + + + + $ & ; : # O o O : e g g e : @ o . ",
". o @ : t g g e : @ O # > q q 4 3 - $ $ $ $ $ $ $ $ $ $ = = ; ; $ ; - $ $ $ = $ $ $ $ $ $ $ - 9 4 e 9 > # O @ : e g g t > @ o X ",
". o @ > t g g e : @ + & q i s i 9 9 - - - 2 2 - 2 , , 2 2 2 2 - 9 , - - 2 2 - 9 - 9 - 9 2 - 9 9 i d i 9 & @ @ : t g g t > @ o   ",
". o @ > t g g t : @ @ : q s h g z 9 p 9 9 9 9 z 9 9 e 9 5 3 3 3 - 3 3 9 9 9 u 9 9 9 u 9 9 y u p z z g q : @ @ > e h g t > @ o X ",
". o @ > t g g t > @ @ & 4 i g x x c v m m n m m m c m s u 9 3 3 2 9 9 u p c c m m j m m n m j c x z i 4 & O @ > t g g t > @ X   ",
". o @ > t g g t > @ + # , e p c m S F F F F F F F F V m i 9 4 2 2 3 9 i m Z F F F F F F F F S N x i e , $ + @ : t j g t > @ o X ",
". o @ > t g g t > @ + + ; 4 r c S T E ! ! E E ! ^ E L S z y 3 2 2 3 y j S L E ! ! W W E E E L S m t 3 ; + + @ > t j g t > @ X X ",
". o @ > t g g t > @ + + $ , e c F ! ' O.O. .' O.+. .! F m y 3 - 2 3 e m F W  .+.O.' O.O.+.O.! F c e , = + o @ > t g g t > @ o X ",
". o @ > t h g t < + o + $ , y m L ) @.%.%.@.@.%.&.@.) G m y 3 - - 3 e m L ) @.&.%.%.%.%.&.+.) G m e , $ + + @ > t z g t > O o   ",
"X o @ > t g g t > @ + + $ , r m G ` %.2.,.&.&.9.2.=.] G M t 3 - - 3 u m G ` =.2.&.&.&.,.6.&.` L m t , $ + o @ > t z j t > @ o X ",
"X o @ > t g g t > @ o + = , u M L ] ,.e.9.&.,.9.9.;.] L M u 3 - - 3 i m L ] ,.2.9.,.;.8.6.;.] J M r 2 $ + + @ > t d j t > @ o X ",
"  X @ > t h g t > @ o + $ , r M U { 2.e.e.:.,.e.u.:.[ L M r 3 , , 3 i m L { 2.u.e.2.2.e.u.<.| L M r 2 $ + + @ > t g g t > @ o   ",
"X o @ > t g g t > @ + + $ , r M P | :.i.e.8.8.e.u.:.[ P M r 3 - 2 4 t m L { 2.u.u.2.8.e.u.2.| P M r 2 $ + o @ : t g j t > @ o   ",
"X o @ > t g g t > @ O + = , t M P | 2.u.e.1.e.e.u.1.| P M t 3 - - 3 t m L ..3.i.e.2.2.u.u.2.| P M r 2 $ + o @ > u g g t > @ o X ",
"  X @ > t g j t > @ O + $ , r M L | 2.u.e.4.1.e.e.1.[ I M t 3 2 - 3 i M L ..:.e.e.2.2.u.u.2.| P M r , $ + + # > t g g t > @ X X ",
"X X @ > t g h t > # O + = , u M L | <.u.e.1.1.u.u.:.[ L M t 3 - - 3 r M L { :.e.e.2.2.e.u.;.{ L M r , $ + + @ > t g h t > @ o X ",
"X o @ > t g g t > @ o + $ , t M P ] <.u.e.1.1.9.u.:.[ L M u 3 - - 3 r m L { 2.u.e.2.2.e.9.2.| L M r , = + o @ > t g g t > O o   ",
"  o @ > t g g t > @ o + = 2 t M L | <.u.9.2.1.e.e.<.[ L M r 3 , , 3 r M L { :.e.e.2.2.e.u.2...L M r , $ + o @ < t g g t > @ o X ",
"  o @ > t g g t > @ + + $ , u M P | <.u.e.2.9.9.u.<.[ L M r 3 - - 3 r M L { <.u.u.2.2.e.u.2...L N r 2 $ + O @ > t g g t > @ o X ",
"  o O > t g g t > @ + + $ , y M L | 2.u.e.9.9.e.e.9.} P M r 3 - - 3 r M P | 2.e.e.2.2.e.u.,...L M r , $ + O @ > t g g t > % o   ",
"  o % > t j g t > @ o + $ 2 y M P | 9.p.p.9.9.u.p.9.| P M r 3 - 2 3 r M P | 9.p.u.e.e.u.i.2.+.L M r 2 $ + O @ > t g j t > O o   ",
"X o @ > t g h t : # O + $ , u M P | 9.p.u.u.6.u.p.0.} I M u 2 - - 3 u M U ..4.a.p.w.w.u.a.9...U M t , = + o @ > u g j t > @ o X ",
". o @ > t g g t , + O + $ , t M P | <.w.9.2.2.u.u.1.} I M 7 6 - - 3 r M L [ :.e.w.2.2.w.u.2.{ L M u , $ + + @ > t g g t > @ X X ",
". o @ > t g g t > @ O + = , r b G _ $.#.#.$.$.*.*.o._ G b t 3 - - 3 u l G _ $.*.#.$.$.#.#.$.( G c r , $ + o @ > t g g t < O X X ",
". o @ > t g g t > @ O + $ , e h A P / _ _ ( ( _ _ _ T A h e 6 - 2 3 e h S T ( _ _ ( ( ( _ / P A h e , = + + @ > u h g t < @ o   ",
". o O > t g g t > @ O + = , 7 s N Z J J J J J K J J A N s 7 6 - 3 3 7 s N D J K L K H K K H A N g q , = + O @ < t g g t > # o . ",
". o # > t g g t > @ O + = , 7 i x N Z Z Z C C C A C n x u 7 3 3 2 3 6 u h N C C Z Z Z Z Z C N x u 7 , = + O @ > t g g t > @ o . ",
"X o @ > t g h t : @ O @ = , 7 u s x n c x x g x h g s i 7 7 3 3 3 3 7 e i s z h g z x x v v x s u 7 2 = + O @ > t g h t < O o X ",
". o @ > t h h t , # O + = 2 7 u s x x g i r q 6 q e q 6 7 3 3 3 3 3 4 4 6 6 e q q e e i g x x s u 7 2 = + O # : t g j t < @ X   ",
". o @ > t g g t > # O + = , 7 u s x h a q > : ; * * : : , 6 3 3 3 3 3 , , : ; : & : > q a h z s u 7 , = + O @ > t h g t > @ o X ",
"X X @ > t g g t > + O + = , 7 u z x h i 1 & @ + O @ $ = : - 3 3 5 3 , , = # @ O O @ & 4 i h x z u 6 , = + + @ > t g g t > @ o   ",
"  o O > t g g t < @ O @ = , 7 i z x z u 1 & @ @ O @ # = - , 6 6 3 4 , , = # # O @ @ & 1 u h x z u 7 , = + O @ < t g g t > # o . ",
". o # > t g h t : # O + $ , 7 u z x x s e < : & : : : < < 2 3 3 3 4 , , : : : * : : 1 q s x x z u 7 , = @ O @ > t h g t > O o . ",
"  o @ > t g g t < @ O + = , 7 u s x c x d t e t 7 r 6 6 7 2 2 2 3 3 4 6 6 e r e q e r a z c x z u 7 2 = + O @ > t g g t > @ o X ",
". o # > t g g t < + O + = , 7 u s x n n x z g g x z g i 7 7 7 7 3 3 7 7 i s z z g g x x c n x s u 7 2 = @ O @ > t g g t > @ o . ",
". o @ > t g g t < # O + = , 7 u s x n n n n n n n n v z 7 7 2 2 3 3 7 u s x n n n n n n n n x s u 7 , = + O # > t j g t > # o . ",
". o @ > t g h t < + O + = , 7 u z x n n n n n N n n v x 7 7 2 7 3 3 7 u s x n N n n n C n n x z u 7 , = + O @ > t g g t > O o . ",
". o O < t g g t > @ O @ = , 7 u s z n n n n n n n n n z 7 7 7 2 3 3 7 7 z x n n n n n n n n x s u 7 , = + O # < r h g t > @ o X ",
". o # < t g g t > @ O + = , 7 u z x n n n n n n n n x z p 7 7 2 3 7 7 s z x n n n n n n n n x s u 7 , $ + O @ < e h g t > @ o . ",
"X o O < t g h t > @ O + $ , 7 u s x n n n n n n n n x z 7 7 7 3 2 3 7 7 s z n n n n n n n n x z u 7 , = + O @ > t h h t > # o . ",
". o @ > e g g t > @ O @ = , 7 u z x n n n n n n n n z s 7 7 2 2 3 3 7 7 z x n n n n n n n n x s u 7 , = @ O @ > e h g e > O o . ",
". o @ > t d g e < + O + = , 7 u s z n n n n n n n n x z 7 7 2 2 3 3 7 7 s x n n n n n n n n x s u 7 , = + O @ : e g h t : @ o X ",
"  o @ > t z g r < # O + = , 7 u z x n n n x n n n n z s 7 7 7 2 2 3 7 u z x n n n n n n n n x z u 7 , $ + O @ : t h h t > @ o   ",
". o @ > i c c i > # O + = , 7 u s x n n n n n n n n x s u 7 7 3 3 3 7 7 s x n n n n n n n n x s u 7 , = + O # > t b c t > @ o . ",
"  o % 8 d N N f 1 # O + $ , 4 u z x n n n n n n n n x z u 7 7 - 3 3 7 s s x n n n n n n n n x s u 3 , = + O # 6 f N N d 8 # o   ",
". O O 0 l A V l 0 # O + $ , 6 u z z n n n n n n n n x s 7 7 3 3 3 3 7 7 x x n n n n n n n n x z 7 6 , $ O O O w k A A l 0 % O   ",
". O % w l D G l q % O + $ , 7 u z x n n n n n n n n x s u 7 3 2 3 3 7 u z x n n n n n n n x x s u 7 , % O O O w l D D l 0 % X   ",
". X O w f V V f 0 % O @ ; 3 7 i z x n n n n n n n n x z u 7 3 3 2 3 7 u z x n n n n n n n n x z s 7 6 & * O O w k V V f 0 % O   ",
". X O : w f f w > O O * , e u s x x n n n n n n n n n z 7 7 3 3 3 3 7 7 s x n n n n n n n n n z z i q 0 * O O 0 w f f w > O X   ",
"X X O O > 0 0 8 % O + * 6 i s x x x n n n n n n n n x s s 7 3 3 3 3 7 7 s x n n n n x n n n n n x s u 6 O O O O 0 w 0 0 O O O X ",
"X X O O O # O O O o @ : q s x n n n n n n n n n n n x s 7 7 3 3 2 7 7 s s x n n n n n n n n n n n x s 6 6 O O O o O O O O O O X ",
"o o O O o o X X X o @ : r h n n n n n n n x n n n n x s u 7 3 3 3 3 7 7 s x n n n n b n n n n n n n h r : O X . . X X X o o X X ",
"o o o o . .     . o @ : r x n n n n n n n n n n n n x s 7 7 3 2 3 3 7 7 s x n n n n b n n n n n n n h t 0 O X . . . . X X X o o "
};
