/* XPM */
static char *result[] = {
/* columns rows colors chars-per-pixel */
"64 64 100 2 ",
"   c black",
".  c #171417",
"X  c #231010",
"o  c #231111",
"O  c #241010",
"+  c #261111",
"@  c #261212",
"#  c #271212",
"$  c #291313",
"%  c #2A1313",
"&  c #2A1414",
"*  c #2B1414",
"=  c #2C1414",
"-  c #2C1515",
";  c #2D1515",
":  c #2E1515",
">  c #2F1515",
",  c #2E1616",
"<  c #2F1616",
"1  c #301616",
"2  c #301717",
"3  c #311717",
"4  c #331717",
"5  c #331818",
"6  c #381A1A",
"7  c #391B1B",
"8  c #4F3114",
"9  c #573717",
"0  c #403434",
"q  c #783030",
"w  c #68431D",
"e  c #7A4F24",
"r  c #915050",
"t  c #A38888",
"y  c #A38989",
"u  c #A48989",
"i  c #A48A8A",
"p  c #A58B8B",
"a  c #A48C8C",
"s  c #A58C8C",
"d  c #A58D8D",
"f  c #A58E8E",
"g  c #A68E8E",
"h  c #A68F8F",
"j  c #A69090",
"k  c #A69191",
"l  c #A79191",
"z  c #A79292",
"x  c #A79393",
"c  c #A89393",
"v  c #A89494",
"b  c #A89595",
"n  c #A89696",
"m  c #A99696",
"M  c #A99797",
"N  c #A99898",
"B  c #AA9898",
"V  c #AA9999",
"C  c #AA9A9A",
"Z  c #AA9B9B",
"A  c #AB9B9B",
"S  c #AB9C9C",
"D  c #AB9D9D",
"F  c #AC9D9D",
"G  c #AC9E9E",
"H  c #AC9F9F",
"J  c #AD9F9F",
"K  c #ACA0A0",
"L  c #ADA0A0",
"P  c #ADA1A1",
"I  c #ADA2A2",
"U  c #AEA2A2",
"Y  c #AEA3A3",
"T  c #AEA4A4",
"R  c #AFA4A4",
"E  c #AEA5A5",
"W  c #AFA5A5",
"Q  c #AFA6A6",
"!  c #AFA7A7",
"~  c #B0A7A7",
"^  c #B0A8A8",
"/  c #B0A9A9",
"(  c #B0AAAA",
")  c #B1AAAA",
"_  c #B1ABAB",
"`  c #B1ACAC",
"'  c #B1ADAD",
"]  c #B2ACAC",
"[  c #B2ADAD",
"{  c #B2AEAE",
"}  c #B2AFAF",
"|  c #B3AFAF",
" . c #B3B0B0",
".. c #B3B1B1",
"X. c #B4B1B1",
"o. c #B4B2B2",
"O. c #B4B3B3",
"+. c #B4B4B4",
"@. c #B5B4B4",
"#. c gray71",
/* pixels */
"1 < : 1 1 3 1 3 1 3 1 3 1 3 1 3 1 3 1 3 1 3 1 3 1 3 1 3 1 3 1 3 1 3 1 3 1 3 1 3 1 3 1 3 1 3 1 3 1 3 1 3 1 3 1 3 1 3 1 3 > , < 3 ",
"& + o @ & % & & & % & & & % & & & % & & & % & & & % & & & % & & &   & & & % & & & % & & & % & & & % & & & % & & & % & & @ X # & ",
"1 * O * 1 3 1 3 1 3 1 3 1 3 1 3 1 3 1 3 1 3 1 3 1 3 1 3 1 3 1 3 1 3 1 3 1 3 1 3 1 3 1 3 1 3 1 3 1 3 1 3 1 3 1 3 1 3 1 3 $ @ $ 3 ",
"6 1 & 1 6 6 6 6 3 & 2 6 6 6 6 6 6 6 6 6 6 6 6 6 6 6 6 6 6 6 6 6 6 6 6 6 6 6 6 6 6 6 6 6 6 6 6 6 6 6 6 6 3 & 2 6 6 6 6 6 3 & 2 6 ",
"6 3 % 3 r r r r q q q q q q q q q q q q q q q q q q q q q q q q q q q q q q q q q q q q q q q q q q q q q q q q r r r r 1 & 1 7 ",
"6 1 & 1 r r r r q q q q q q q q q q q q q q q q q q q q q q q q q q q q q q q q q q q q q q q q q q q q q q q q r r r r 2 % 3 6 ",
"4 3 % 3 r r r r q q q q q q q q q q q q q q q q q q q q q q q q q q q q q q q q q q q q q q q q q q q q q q q q r r r r 1 * 1 5 ",
"; 1 & 1 r r r r q q q q q q q q q q q q q q q q q q q q q q q q q q q q q q q q q q q q q q q q q q q q q q q q r r r r 3 & 2 - ",
"% 3 % 3 q q q q % & % * % & % * % & % * % & % * % & % * % & % * % & % * % & % * % & % * % & % * % & % * % & % * q q q q 1 & 1 7 ",
"- 1 & 1 q q q q - = ; - - = ; - - = ; - - = ; - - = ; - - = ; - - = ; - - = ; - - = ; - - = ; - - = ; - - = ; - q q q q 2 % 3 - ",
"4 3 % 3 q q q q 4 5 4 5 4 5 4 5 4 5 4 5 4 5 4 5 4 5 4 5 4 5 4 5 4 5 4 5 4 5 4 5 4 5 4 5 4 5 4 5 4 5 4 5 4 5 4 5 q q q q 1 * 1 5 ",
"6 1 & 1 q q q q 3 & 2 6 6 6 6 6 6 6 6 6 6 6 6 6 6 6 6 6 6 6 6 6 6 6 6 6 6 6 6 6 6 6 6 6 6 6 6 6 6 6 6 6 3 & 2 6 q q q q 3 & 2 6 ",
"6 3 % 3 q q q q 1 & 1 7 0 0 0 0 0 0 0 0 0 0 . . . . . . . . . . . . . . . . . . . . 0 0 0 0 0 0 0 0 0 0 1 & 1 7 q q q q 1 & 1 7 ",
"6 1 & 1 q q q q 2 % 3 6 0 0 0 0 0 0 0 0 0 0 . . . . . . . . . . . . . . . . . . . . 0 0 0 0 0 0 0 0 0 0 2 % 3 6 q q q q 2 % 3 6 ",
"6 3 % 3 q q q q 1 7 1 6 0 0 0 0 0 0 0 0 0 0 . . . . . . . . . . . . . . . . . . . . 0 0 0 0 0 0 0 0 0 0 1 7 1 6 q q q q 1 * 1 6 ",
"6 1 & 1 q q q q 3 & 2 6 0 0 0 0 0 0 0 0 0 0 . . . . . . . . . . . . . . . . . . . . 0 0 0 0 0 0 0 0 0 0 3 & 2 6 q q q q 3 & 2 6 ",
"6 3 % 3 q q q q 1 & 1 7 0 0 0 0 0 0 0 0 0 0 . . . . . . . . . . . . . . . . . . . . 0 0 0 0 0 0 0 0 0 0 1 & 1 7 q q q q 1 & 1 7 ",
"6 1 & 1 q q q q 2 % 3 6 0 0 0 0 0 0 0 0 0 0 . . . . . . . . . . . . . . . . . . . . 0 0 0 0 0 0 0 0 0 0 2 % 3 6 q q q q 2 % 3 6 ",
"6 3 % 3 q q q q 1 7 1 6 0 0 0 0 0 0 0 0 0 0 . . . . . . . . . . . . . . . . . . . . 0 0 0 0 0 0 0 0 0 0 1 7 1 6 q q q q 1 * 1 6 ",
"6 1 & 1 q q q q 3 & 2 6 0 0 0 0 0 0 0 0 0 0 . . . . . . . . . . . . . . . . . . . . 0 0 0 0 0 0 0 0 0 0 3 & 2 6 q q q q 3 & 2 6 ",
"6 3 % 3 q q q q 1 & 1 7 0 0 0 0 0 0 0 0 0 0 . . . . . . . . . . . . . . . . . . . . 0 0 0 0 0 0 0 0 0 0 1 & 1 7 q q q q 1 & 1 7 ",
"6 1 & 1 q q q q 2 % 3 6 0 0 0 0 0 0 #.#.0 0 . . . . . . . . . . . . . . . . . . . . 0 0 X. .0 0 0 0 0 0 2 % 3 6 q q q q 2 % 3 6 ",
"6 3 % 3 q q q q 1 7 1 6 0 0 0 0 0 #.#.#.0 0 . . . . . . . . . . . . . . . . . . . . 0 0 } } [ 0 0 0 0 0 1 7 1 6 q q q q 1 * 1 6 ",
"6 1 & 1 q q q q 3 & 2 6 0 0 0 0 #.#.#.#.0 0 . . . . . . . . . . . . . . . . . . . . 0 0 { [ [ ` 0 0 0 0 3 & 2 6 q q q q 3 & 2 6 ",
"6 3 % 3 q q q q 1 & 1 7 0 0 0 0 #.#.#.#.0 0 . . . . . . . . . . . . . . . . . . . . 0 0 ` ` _ _ 0 0 0 0 1 & 1 7 q q q q 1 & 1 7 ",
"6 1 & 1 q q q q 2 % 3 6 0 0 0 0 #.#.#.#.0 0 . . . . . . . . . . . . . . . . . . . . 0 0 _ ) ) / 0 0 0 0 2 % 3 6 q q q q 2 % 3 6 ",
"6 3 % 3 q q q q 1 7 1 6 0 0 0 0 #.#.#.#.0 0 . . . . . . . . . . . . . . . . . . . . 0 0 / / ^ ^ 0 0 0 0 1 7 1 6 q q q q 1 * 1 6 ",
"6 1 & 1 q q q q 3 & 2 6 0 0 0 0 #.#.#.#.0 0 . . . . . . . . . . . . . . . . . . . . 0 0 ^ ! ~ Q 0 0 0 0 3 & 2 6 q q q q 3 & 2 6 ",
"6 3 % 3 q q q q 1 & 1 7 0 0 0 0 #.#.#.#.0 0 . . . . . . . . . . . . . . . . . . . . 0 0 Q Q E W 0 0 0 0 1 & 1 7 q q q q 1 & 1 7 ",
"6 1 & 1 q q q q 2 % 3 6 0 0 0 0 #.#.#.#.0 0 . . . . . . . . . . . . . . . . . . . . 0 0 Q E R Y 0 0 0 0 2 % 3 6 q q q q 2 % 3 6 ",
"6 3 % 3 q q q q 1 7 1 6 0 0 0 0 #.#.+.+.0 0 . . . . . . . . . . . . . . . . . . . . 0 0 T Y I U 0 0 0 0 1 7 1 6 q q q q 1 * 1 6 ",
"6 1 & 1 q q q q 3 & 2 6 0 0 0 0 @.O.O.o.0 0 . . . . . . . . . . . . . . . . . . . . 0 0 Y I I P 0 0 0 0 3 & 2 6 q q q q 3 & 2 6 ",
"6 3 % 3 q q q q 1 & 1 7 0 0 0 0 o.o.....0 0 . . . . . . . . . . . . . . . . . . . . 0 0 P P K H 0 0 0 0 1 & 1 7 q q q q 1 & 1 7 ",
"6 1 & 1 q q q q 2 % 3 6 0 0 0 0 X. . .| 0 0 . . . . . . . . . . . . . . . . . . . . 0 0 L H H G 0 0 0 0 2 % 3 6 q q q q 2 % 3 6 ",
"6 3 % 3 q q q q 1 7 1 6 0 0 0 0 } | { { 0 0 . . . . . . . . . . . . . . . . . . . . 0 0 G G D D 0 0 0 0 1 7 1 6 q q q q 1 * 1 6 ",
"6 1 & 1 q q q q 3 & 2 6 0 0 0 0 | { [ ` 0 0 . . . . . . . . . . . . . . . . . . . . 0 0 F S S A 0 0 0 0 3 & 2 6 q q q q 3 & 2 6 ",
"6 3 % 3 q q q q 1 & 1 7 0 0 0 0 ' ] _ _ 0 0 . . . . . . . . . . . . . . . . . . . . 0 0 Z A C C 0 0 0 0 1 & 1 7 q q q q 1 & 1 7 ",
"6 1 & 1 q q q q 2 % 3 6 0 0 0 0 ] _ _ ( 0 0 . . . . . . . . . . . . . . . . . . . . 0 0 A V V N 0 0 0 0 2 % 3 6 q q q q 2 % 3 6 ",
"6 3 % 3 q q q q 1 7 1 6 0 0 0 0 ( ) ^ ^ 0 0 . . . . . . . . . . . . . . . . . . . . 0 0 N B M M 0 0 0 0 1 7 1 6 q q q q 1 * 1 6 ",
"6 1 & 1 q q q q 3 & 2 6 0 0 0 0 / ^ ^ ! 0 0 . . . . . . . . . . . . . . . . . . . . 0 0 B M M b 0 0 0 0 3 & 2 6 q q q q 3 & 2 6 ",
"6 3 % 3 q q q q 1 & 1 7 0 0 0 0 ! ! Q Q 0 0 . . . . . . . . . . . . . . . . . . . . 0 0 n n v v 0 0 0 0 1 & 1 7 q q q q 1 & 1 7 ",
"6 1 & 1 q q q q 2 % 3 6 0 0 0 0 Q W W T 0 0 . . . . . . . . . . . . . . . . . . . . 0 0 b v v x 0 0 0 0 2 % 3 6 q q q q 2 % 3 6 ",
"6 3 % 3 q q q q 1 7 1 6 0 0 0 0 T T Y Y 0 0 . . . . . . . . . . . . . . . . . . . . 0 0 x x z l 0 0 0 0 1 7 1 6 q q q q 1 * 1 6 ",
"6 1 & 1 q q q q 3 & 2 6 0 0 0 0 T I U P 0 0 . . . . . . . . . . . . . . . . . . . . 0 0 z l l j 0 0 0 0 3 & 2 6 q q q q 3 & 2 6 ",
"6 3 % 3 q q q q 1 & 1 7 0 0 0 0 P P K L 0 0 . . . . . . . . . . . . . . . . . . . . 0 0 j j h h 0 0 0 0 1 & 1 7 q q q q 1 & 1 7 ",
"6 1 & 1 q q q q 2 % 3 6 0 0 0 0 P K J G 0 0 . . . . . . . . . . . . . . . . . . . . 0 0 h f g d 0 0 0 0 2 % 3 6 q q q q 2 % 3 6 ",
"6 3 % 3 q q q q 1 7 1 6 0 0 0 0 H G D F 0 0 . . . . . . . . . . . . . . . . . . . . 0 0 d d a s 0 0 0 0 1 7 1 6 q q q q 1 * 1 6 ",
"6 1 & 1 q q q q 3 & 2 6 0 0 0 0 G D F S 0 0 . . . . . . . . . . . . . . . . . . . . 0 0 d a p i 0 0 0 0 3 & 2 6 q q q q 3 & 2 6 ",
"6 3 % 3 q q q q 1 & 1 7 0 0 0 0 S S Z C 0 0 . . . . . . . . . . . . . . . . . . . . 0 0 i i y u 0 0 0 0 1 & 1 7 q q q q 1 & 1 7 ",
"6 1 & 1 q q q q 2 % 3 6 0 0 0 0 A C C V 0 0 . . . . . . . . . . . . . . . . . . . . 0 0 i y y t 0 0 0 0 2 % 3 6 q q q q 2 % 3 6 ",
"6 3 % 3 q q q q 1 7 1 6 0 0 0 0 V V N N 0 0 . . . . . . . . . . . . . . . . . . . . 0 0 t t t t 0 0 0 0 1 7 1 6 q q q q 1 * 1 6 ",
"6 1 & 1 q q q q 3 & 2 6 0 0 0 0 B M M m 0 0 . . . . . . . . . . . . . . . . . . . . 0 0 t t t t 0 0 0 0 3 & 2 6 q q q q 3 & 2 6 ",
"6 3 % 3 q q q q 1 & 1 7 0 0 0 0 n m b b 0 0 . . . . . . . . . . . . . . . . . . . . 0 0 t t t t 0 0 0 0 1 & 1 7 q q q q 1 & 1 7 ",
"6 1 & 1 q q q q 2 % 3 6 0 0 0 0 m v v x 0 0 . . . . . . . . . . . . . . . . . . . . 0 0 t t t t 0 0 0 0 2 % 3 6 q q q q 2 % 3 6 ",
"6 3 % 3 q q q q 1 7 1 6 0 0 0 0 x c z z 0 0 . . . . . . . . . . . . . . . . . . . . 0 0 t t t t 0 0 0 0 1 7 1 6 q q q q 1 * 1 6 ",
"6 1 & 1 q q q q 3 & 2 6 0 0 0 0 c z z j 0 0 . . . . . . . . . . . . . . . . . . . . 0 0 t t t t 0 0 0 0 3 & 2 6 q q q q 3 & 2 6 ",
"6 3 % 3 r r r r 1 & 1 7 0 0 0 0 k k h h 0 0 . . . . . . . . . . . . . . . . . . . . 0 0 t t t t 0 0 0 0 1 & 1 7 r r r r 1 & 1 7 ",
"6 1 & 1 r r r r 2 % 3 6 0 0 0 0 0 h h f 0 0 . . . . . . . . . . . . . . . . . . . . 0 0 t t t 0 0 0 0 0 2 % 3 6 r r r r 2 % 3 6 ",
"6 3 % 3 r r r r 1 7 1 6 0 0 0 0 0 0 d d 0 . . . . . . . . . . . . . . . . . . . . . . 0 t t 0 0 0 0 0 0 1 7 1 6 r r r r 1 * 1 6 ",
"6 1 & 1 r r r r 3 & 2 6 0 0 0 0 0 0 0 0 . . . . . . . . . . . . . . . . . . . . . . . . 0 0 0 0 0 0 0 0 3 & 2 6 r r r r 3 & 2 6 ",
"6 3 % 3 6 6 6 7 1 & 1 7 e e e e e e e e e e e e e e e e e e e e e e e e e e e e e e e e e e e e e e e e 1 & 1 7 6 6 6 7 1 & 1 7 ",
"6 1 & 1 6 6 6 6 2 % 3 6 w w w w w w w w w w w w w w w w w w w w w w w w w w w w w w w w w w w w w w w w 2 % 3 6 6 6 6 6 2 % 3 6 ",
"6 3 % 3 6 7 6 6 1 7 1 6 9 9 9 9 9 9 9 9 9 9 9 9 9 9 9 9 9 9 9 9 9 9 9 9 9 9 9 9 9 9 9 9 9 9 9 9 9 9 9 9 1 7 1 6 6 7 6 6 1 * 1 6 ",
"6 1 & 1 6 6 6 6 3 & 2 6 8 8 8 8 8 8 8 8 8 8 8 8 8 8 8 8 8 8 8 8 8 8 8 8 8 8 8 8 8 8 8 8 8 8 8 8 8 8 8 8 3 & 2 6 6 6 6 6 3 & 2 6 "
};
