/* XPM */
static char *result[] = {
/* columns rows colors chars-per-pixel */
"64 64 23 1 ",
"  c black",
". c gray13",
"X c #4A3C25",
"o c #5E431E",
"O c #705C3B",
"+ c #785F3F",
"@ c #7D603B",
"# c gray26",
"$ c gray38",
"% c gray46",
"& c #8C746C",
"* c #A6865B",
"= c #BA9F7D",
"- c #B8A183",
"; c gray74",
": c #C2AB90",
"> c #D9BD97",
", c #B39DDB",
"< c #90CAF9",
"1 c #DCD3ED",
"2 c #FFEBEE",
"3 c white",
"4 c None",
/* pixels */
"4444444444444444444444444444444444444444444444444444444444444444",
"4444444444444444444444444444444444444444444444444444444444444444",
"4444444444444444444444444444444444444444444444444444444444444444",
"4444444444444444444444444444444444444444444444444444444444444444",
"4444444444444444444444444444444444444444444444444444444444444444",
"4444444444444444444444444444444444444444444444444444444444444444",
"44444444444444444444444                  44444444444444444444444",
"44444444444444444444444                  44444444444444444444444",
"444444444444444444444  $$%%%%%%%%%%%%%%$$  444444444444444444444",
"444444444444444444444  $$%%%%%%%%%%%%%%$$  444444444444444444444",
"4444444444444444444  ##%%%%%%%%%%%%%%%%%%##  4444444444444444444",
"4444444444444444444  ##%%%%%%%%%%%%%%%%%%##  4444444444444444444",
"4444444444444444444  ##$$%%%%%%%%%%%%%%$$##  4444444444444444444",
"4444444444444444444  ##$$%%%%%%%%%%%%%%$$##  4444444444444444444",
"4444444444444444444##;;$$$$$$$$$$$$$$$$$$;;##4444444444444444444",
"4444444444444444444##;;$$$$$$$$$$$$$$$$$$;;##4444444444444444444",
"44444444444444444  ;;;;<<<<<<<<<<<<<<<<<<;;;;  44444444444444444",
"44444444444444444  ;;;;<<<<<<<<<<<<<<<<<<;;;;  44444444444444444",
"44444444444    ##$$$$;;<<<<<<<<<<<<<<<<<<;;$$$$##    44444444444",
"44444444444    ##$$$$;;<<<<<<<<<<<<<<<<<<;;$$$$##    44444444444",
"444444444  ##$$%%%%$$$$$$$$$$$$$$$$$$$$$$$$$$%%%%$$##  444444444",
"444444444  ##$$%%%%$$$$$$$$$$$$$$$$$$$$$$$$$$%%%%$$##  444444444",
"44444444444    ##$$%%%%%%%%%%%%%%%%%%%%%%%%%%$$##    44444444444",
"44444444444    ##$$%%%%%%%%%%%%%%%%%%%%%%%%%%$$##    44444444444",
"444444444444444        ##################        444444444444444",
"444444444444444        ##################        444444444444444",
"444444444444444ooXX-->>>>>>**>>**##**>>>>>>>>--oooo4444444444444",
"444444444444444ooXX-->>>>>>**>>**##**>>>>>>>>--oooo4444444444444",
"444444444444444oo@@****>>>>>>>>**>>##>>>>>*****@@oo4444444444444",
"444444444444444oo@@****>>>>>>>>**>>##>>>>>*****@@oo4444444444444",
"4444444444444ooooXX----****>>>>>>>>>>##>**-----XXoooo44444444444",
"4444444444444ooooXX----****>>>>>>>>>>##>**-----XXoooo44444444444",
"444444444444444oo@@**----->>>>>>>>>>>>>####--**@@oo4444444444444",
"444444444444444oo@@**----->>>>>>>>>>>>>####--**@@oo4444444444444",
"4444444444444ooooXX@@@@***::========::::***##@@XXoooo44444444444",
"4444444444444ooooXX@@@@***::========::::***##@@XXoooo44444444444",
"44444444444444444  **+++++============+++++++##oo444444444444444",
"44444444444444444  **+++++============+++++++##oo444444444444444",
"4444444444444444444oooo====================oooo44444444444444444",
"4444444444444444444oooo====================oooo44444444444444444",
"44444444444444444  ####oooooooooooooooooooo##$$  444444444444444",
"44444444444444444  ####oooooooooooooooooooo##$$  444444444444444",
"444444444444444    oo##$$$$############$$$$$$oo    4444444444444",
"444444444444444    oo##$$$$############$$$$$$oo    4444444444444",
"4444444444444    oo11&&##$$%%%%%%%%%%%%$$##**>>oo##  44444444444",
"4444444444444    oo11&&##$$%%%%%%%%%%%%$$##**>>oo##  44444444444",
"4444444444444    oo1111oo$$$$%%%%%%%%$$$$&&3333oo$$##  444444444",
"4444444444444    oo1111oo$$$$%%%%%%%%$$$$&&3333oo$$##  444444444",
"44444444444        oooooo3333333333333333oo3333oo$$##  444444444",
"44444444444        oooooo3333333333333333oo3334oo$$##  444444444",
"44444444444            oo**333333333333&&oooooo##$$$$  444444444",
"44444444444            oo**333333333333&&oooooo##$$$$  444444444",
"44444444444            oo&&&&,,,,,,&&&&OOoo%%oo$$$$$$..444444444",
"44444444444            oo&&&&,,,,,,&&&&OOoo%%oo$$$$$$..444444444",
"4444444444444  4444    oo**OOooooooOOoooo%%oo..$$$$..44444444444",
"4444444444444  4444    oo**OOooooooOOoooo%%oo..$$$$..44444444444",
"44444444444444444444444oo3333oo4444oo3333oo4444....4444444444444",
"44444444444444444444444oo3333oo4444oo3333oo4444....4444444444444",
"44444444444444444444444oo2222oo4444oo2222oo444444444444444444444",
"44444444444444444444444oo2222oo4444oo2222oo444444444444444444444",
"4444444444444444444444444oooo44444444oooo44444444444444444444444",
"4444444444444444444444444oooo44444444oooo44444444444444444444444",
"4444444444444444444444444444444444444444444444444444444444444444",
"4444444444444444444444444444444444444444444444444444444444444444"
};
