/* XPM */
static char *result[] = {
/* columns rows colors chars-per-pixel */
"64 64 17 1 ",
"  c gray13",
". c #367538",
"X c #5E431E",
"o c #705C3B",
"O c gray26",
"+ c gray38",
"@ c gray46",
"# c #8C7B5F",
"$ c #4CAF50",
"% c gray62",
"& c gray74",
"* c #D9BD97",
"= c #90CAF9",
"- c #CEC6DE",
"; c #DFDAE8",
": c white",
"> c None",
/* pixels */
">>>>>>>>>>>>>>>>>>>>>>>>>>>>>>>>>>>>>>>>>>>>>>>>>>>>>>>>>>>>>>>>",
">>>>>>>>>>>>>>>>>>>>>>>>>>>>>>>>>>>>>>>>>>>>>>>>>>>>>>>>>>>>>>>>",
">>>>>>>>>>>>>>>>>>>>>>>>>>>>>>>>>>>>>>>>>>>>>>>>>>>>>>>>>>>>>>>>",
">>>>>>>>>>>>>>>>>>>>>>>>>>>>>>>>>>>>>>>>>>>>>>>>>>>>>>>>>>>>>>>>",
">>>>>>>>>>>>>>>>>>>>>>                  >>>>>>>>>>>>>>>>>>>>>>>>",
">>>>>>>>>>>>>>>>>>>>>>                  >>>>>>>>>>>>>>>>>>>>>>>>",
">>>>>>>>>>>>>>>>>>>>  ++@@@@@@@@@@@@@@++  >>>>>>>>>>>>>>>>>>>>>>",
">>>>>>>>>>>>>>>>>>>>  ++@@@@@@@@@@@@@@++  >>>>>>>>>>>>>>>>>>>>>>",
">>>>>>>>>>>>>>>>>>  OO@@@@@@@@@@@@@@@@@@OO  >>>>>>>>>>>>>>>>>>>>",
">>>>>>>>>>>>>>>>>>  OO@@@@@@@@@@@@@@@@@@OO  >>>>>>>>>>>>>>>>>>>>",
">>>>>>>>>>>>>>>>>>  OO++@@@@@@@@@@@@@@++OO  >>>>>>>>>>>>>>>>>>>>",
">>>>>>>>>>>>>>>>>>  OO++@@@@@@@@@@@@@@++OO  >>>>>>>>>>>>>>>>>>>>",
">>>>>>>>>>>>>>>>>>OO&&++++++++++++++++++&&OO>>>>>>>>>>>>>>>>>>>>",
">>>>>>>>>>>>>>>>>>OO&&++++++++++++++++++&&OO>>>>>>>>>>>>>>>>>>>>",
">>>>>>>>>>>>>>>>  &&&&==================&&&&  >>>>>>>>>>>>>>>>>>",
">>>>>>>>>>>>>>>>  &&&&==================&&&&  >>>>>>>>>>>>>>>>>>",
">>>>>>>>>>    OO++++&&==================&&++++OO    >>>>>>>>>>>>",
">>>>>>>>>>    OO++++&&==================&&++++OO    >>>>>>>>>>>>",
">>>>>>>>  OO++@@@@++++++++++++++++++++++++++@@@@++OO  >>>>>>>>>>",
">>>>>>>>  OO++@@@@++++++++++++++++++++++++++@@@@++OO  >>>>>>>>>>",
">>>>>>>>>>    OO++@@@@@@@@@@@@@@@@@@@@@@@@@@++OO    >>>>>>>>>>>>",
">>>>>>>>>>    OO++@@@@@@@@@@@@@@@@@@@@@@@@@@++OO    >>>>>>>>>>>>",
">>>>>>>>>>>>>>        OOOOOOOOOOOOOOOOOO        >>>>>>>>>>>>>>>>",
">>>>>>>>>>>>>>        OOOOOOOOOOOOOOOOOO        >>>>>>>>>>>>>>>>",
">>>>>>>>>>>>>>  OO  ##******XX*****#########ooXX>>>>>>>>>>>>>>>>",
">>>>>>>>>>>>>>  OO  ##******XX*****#########ooXX>>>>>>>>>>>>>>>>",
">>>>>>>>>>>>>>  OO++  ****XXXX****************XX>>>>>>>>>>>>>>>>",
">>>>>>>>>>>>>>  OO++  ****XXXX****************XX>>>>>>>>>>>>>>>>",
">>>>>>>>>>>>>>  OO++  ****::..****####ooXX##ooXX>>>>>>>>>>>>>>>>",
">>>>>>>>>>>>>>  OO++  ****::..****####ooXX##ooXX>>>>>>>>>>>>>>>>",
">>>>>>>>>>>>>>  OO  ::::**$$$$****************XX>>>>>>>>>>>>>>>>",
">>>>>>>>>>>>>>  OO  ::::**$$$$****************XX>>>>>>>>>>>>>>>>",
">>>>>>>>>>>>>>XX##--XX::::********####ooXX##ooXX>>>>>>>>>>>>>>>>",
">>>>>>>>>>>>>>XX##--XX::::********####ooXX##ooXX>>>>>>>>>>>>>>>>",
">>>>>>>>>>>>>>>>XX++--++::::::::::::********XX>>>>>>>>>>>>>>>>>>",
">>>>>>>>>>>>>>>>XX++--++::::::::::::********XX>>>>>>>>>>>>>>>>>>",
">>>>>>>>>>>>>>>>>>XXXX--;;;;;;;;;;;;;;    XX>>>>>>>>>>>>>>>>>>>>",
">>>>>>>>>>>>>>>>>>XXXX--;;;;;;;;;;;;;;    XX>>>>>>>>>>>>>>>>>>>>",
">>>>>>>>>>>>>>>>>>>>>>XXXXXXXXXXXXXX  OOOO  >>>>>>>>>>>>>>>>>>>>",
">>>>>>>>>>>>>>>>>>>>>>XXXXXXXXXXXXXX  OOOO  >>>>>>>>>>>>>>>>>>>>",
">>>>>>>>>>>>>>>>>>>>  OOOOOO++++++OO++++++++  >>>>>>>>>>>>>>>>>>",
">>>>>>>>>>>>>>>>>>>>  OOOOOO++++++OO++++++++  >>>>>>>>>>>>>>>>>>",
">>>>>>>>>>>>>>>>>>>>  OO++@@@@@@++++##ooOO@@OO  >>>>>>>>>>>>>>>>",
">>>>>>>>>>>>>>>>>>>>  OO++@@@@@@++++##ooOO@@OO  >>>>>>>>>>>>>>>>",
">>>>>>>>>>>>>>>>>>>>  OOOO++++++;;XXoo##XX@@++  >>>>>>>>>>>>>>>>",
">>>>>>>>>>>>>>>>>>>>  OOOO++++++;;XXoo##XX@@++  >>>>>>>>>>>>>>>>",
">>>>>>>>>>>>>>>>>>>>>>XX--::::::;;XX:::>XX@@++OO  >>>>>>>>>>>>>>",
">>>>>>>>>>>>>>>>>>>>>>XX--::::::;;XX::::XX@@++OO  >>>>>>>>>>>>>>",
">>>>>>>>>>>>>>>>>>>>>>>>XX--::;;;;XX::::XX@@++OO  >>>>>>>>>>>>>>",
">>>>>>>>>>>>>>>>>>>>>>>>XX--::;;;;XX;;;;XX@@++OO  >>>>>>>>>>>>>>",
">>>>>>>>>>>>>>>>>>>>>>>>XXoo----;;XX;;;;XX++++OO  >>>>>>>>>>>>>>",
">>>>>>>>>>>>>>>>>>>>>>>>XXoo----;;ooXXXXXX++++OO  >>>>>>>>>>>>>>",
">>>>>>>>>>>>>>>>>>>>>>>>XX##XX####ooXXXXXX++++OO  >>>>>>>>>>>>>>",
">>>>>>>>>>>>>>>>>>>>>>>>XX##XX####ooXX@@%%++++OO  >>>>>>>>>>>>>>",
">>>>>>>>>>>>>>>>>>>>>>>>XX--XX####--XX@@%%++OO  >>>>>>>>>>>>>>>>",
">>>>>>>>>>>>>>>>>>>>>>>>XX--XX####--XXXXXX++OO  >>>>>>>>>>>>>>>>",
">>>>>>>>>>>>>>>>>>>>>>>>>>XXXX------XXXXXX    >>>>>>>>>>>>>>>>>>",
">>>>>>>>>>>>>>>>>>>>>>>>>>XXXX------XX>>>>    >>>>>>>>>>>>>>>>>>",
">>>>>>>>>>>>>>>>>>>>>>>>>>>>>>XXXXXX>>>>>>>>>>>>>>>>>>>>>>>>>>>>",
">>>>>>>>>>>>>>>>>>>>>>>>>>>>>>XXXXXX>>>>>>>>>>>>>>>>>>>>>>>>>>>>",
">>>>>>>>>>>>>>>>>>>>>>>>>>>>>>>>>>>>>>>>>>>>>>>>>>>>>>>>>>>>>>>>",
">>>>>>>>>>>>>>>>>>>>>>>>>>>>>>>>>>>>>>>>>>>>>>>>>>>>>>>>>>>>>>>>",
">>>>>>>>>>>>>>>>>>>>>>>>>>>>>>>>>>>>>>>>>>>>>>>>>>>>>>>>>>>>>>>>",
">>>>>>>>>>>>>>>>>>>>>>>>>>>>>>>>>>>>>>>>>>>>>>>>>>>>>>>>>>>>>>>>"
};
