/* XPM */
static char *f904de5780734ca6fc62a6a9a6d6b112wy2Fyo9ijJaxKput[] = {
/* columns rows colors chars-per-pixel */
"64 64 96 2 ",
"   c None",
".  c #463B4D",
"X  c #444357",
"o  c #434B60",
"O  c #41556C",
"+  c #405B74",
"@  c #3D6986",
"#  c #3D6E8B",
"$  c #3C718F",
"%  c #3B7493",
"&  c #377D9E",
"*  c #3A7D9E",
"=  c #367FA1",
"-  c #3680A1",
";  c #3982A4",
":  c #308AAF",
">  c #2F8CB1",
",  c #3691B7",
"<  c #3595BB",
"1  c #3498BF",
"2  c #0196C5",
"3  c #0398C7",
"4  c #069DCC",
"5  c #089ECD",
"6  c #279CC6",
"7  c #2F9AC2",
"8  c #339CC4",
"9  c #339FC8",
"0  c #0CA0CF",
"q  c #1DA1CD",
"w  c #0DA3D3",
"e  c #0FA8D8",
"r  c #11A7D6",
"t  c #11A8D7",
"y  c #14ABDB",
"u  c #1FABD9",
"i  c #21ACDA",
"p  c #32A7D1",
"a  c #32A8D2",
"s  c #2AB1DF",
"d  c #1CB4E4",
"f  c #1FB8E8",
"g  c #2FB5E2",
"h  c #24BDED",
"j  c #2EBCEB",
"k  c #31B4E1",
"l  c #27BFF0",
"z  c #2EC0EF",
"x  c #26C3F6",
"c  c #2CC5F6",
"v  c #2DC7F8",
"b  c #2FC8F9",
"n  c #2EC8F9",
"m  c #2CC8FA",
"M  c #2CC9FB",
"N  c #2CC8F9",
"B  c #2BCAFC",
"V  c #2BCAFD",
"C  c #2DCAFC",
"Z  c #2CCBFD",
"A  c #2DCBFD",
"S  c #2BCCFE",
"D  c #2BC8FA",
"F  c #30C5F5",
"G  c #30C6F5",
"H  c #37C6F4",
"J  c #3CC7F2",
"K  c #3FC7F2",
"L  c #39C8F5",
"P  c #55CCEF",
"I  c #41C9F3",
"U  c #45C8F1",
"Y  c #46C8F1",
"T  c #49C9F0",
"R  c #4BC9F0",
"E  c #61CCEC",
"W  c #69CEEA",
"Q  c #7DCFE6",
"!  c #70CEE9",
"~  c #72CEE8",
"^  c #73CEE8",
"/  c #76CEE8",
"(  c #A0D3DF",
")  c #A1D5DF",
"_  c #A4D4DE",
"`  c #AFD5DC",
"'  c #B7D6DB",
"]  c #BCD8D8",
"[  c #80D0E5",
"{  c #83D1E5",
"}  c #86D0E4",
"|  c #C7D8D8",
" . c #D5DBD4",
".. c #DEDBD3",
"X. c #DADBD4",
"o. c #E1DDD1",
/* pixels */
"                                                                                                                                ",
"                                                                                                                                ",
"                                                                                                                                ",
"                                                                                                                                ",
"                                                                                                                                ",
"                                                                                                                                ",
"                                                                                                                                ",
"                                                                                                                                ",
"                          c c c c c b                     c c c c c c                                                           ",
"                        c c c c c c c c                 c c c c c c c c                                                         ",
"                        c c c c c c c c                 c c c c c c c c                                                         ",
"                        c c c c c c c c c               c c c c b c c b b                                                       ",
"                        c c c c c c c c c c c           c c c c c c G b b c N                                                   ",
"                        c c c c c c c c c c c c         c c c c c c c c c c c c                                                 ",
"                        c c c c c c c c c c c c         c c c c c h h h l h j x                                                 ",
"                          c c c c c c c c c c c           c h h h d d d d d d d                                                 ",
"                              c c c c c c c c c               d y r w e e t r t                                                 ",
"                                c c c c c c c c                 w 5 5 5 4 4 4 4                                                 ",
"                                c c c c c c c c                 5 5 4 4 4 5 5 0                                                 ",
"                                c c c c c c c c c             d y r r w e e r y d                                               ",
"                                c c c c c c c c c c c c c c l h f d d d d d d d h c c                                           ",
"                                c c c c c c c c c c c c c c c c c h h h c h h c c c c c                                         ",
"                                c c c c b c c c c c c c c c c c c c c c c c c c c c c c                                         ",
"                                c c c c c c c c c c b c D b N N b b b b b N c c c c c c N                                       ",
"                                c c c c c c c c c c c b c D D N D c c c c b c b c c c D D B A                                   ",
"                                c c c c c c c c c c c c c c c c c c c c c c c c c c c c c c c c                                 ",
"                                c c c c c c c c D c c j j g k j j c c c b c c c b c c j j g g s                                 ",
"                                c c c c c c c c c c j g p 9 9 p g j c D c c c c N c j g a 9 8 <                                 ",
"                                c c c c c c c D D c j p , ; ; , p j c b D c c D D c j a < ; * %                                 ",
"                                c c c c G c c D D c k 8 * @ @ * 8 g c N D c c D D c g 8 ; @ + O                                 ",
"                                c c c c c c c D D c g < % + + $ , g c V D c c b B c g < % + o X                                 ",
"                                c c c c b c b D B c s , # O O # , g c V m D b m A c k , $ O X .                                 ",
"                                c c c c c c c D D c k , # O O # , k c B V N b N S c k < $ O X .                                 ",
"                                c c c c c c c D D c g < % + + $ < g c D D c c D D c k < % + o X                                 ",
"                                c c c c c c b b D c g 8 * @ @ & 1 s h x x l l x x h s 1 & @ + O                                 ",
"                                c c c c c c c N D c j p , - = : 6 u d d d d d d d d u 6 > - % %                                 ",
"                                b c c c c c c c c c j k p 9 7 6 q r e e e e e e e w e q 6 8 1 1                                 ",
"                                c c c c c c c c c c c c j g s u r 0 4 0 4 4 4 4 4 0 0 r i s k k                                 ",
"                                c c c c c c c c c c c c b c l d y 0 4 3 3 3 3 3 3 4 w y f l c c                                 ",
"                                c c c c c c c c c c c c B B x l d y w 4 3 3 3 3 0 w y d h x D V                                 ",
"                                c c c c c c c c c c c b D D x l h d y t 5 3 3 4 r y h h h c D D                                 ",
"                                c c c c c c c c c c c c c c c c c h h d w 4 4 r y h h c c c c D                                 ",
"                                c c c c c c c c c b c c c c c b c c h d t w w t d j c c c c c c                                 ",
"                              c c c c c c c c c c c c c c c c c b c z h d y y d h c c c c c c h d                               ",
"                  c c c c c c c c c c c c c c c c c c c c c c c c c c h h d d h l c c N b c c d y w 3                           ",
"                c c c c c c c c c c c c c c c c c c c c c c c c c c c c c x h c c x c c b c h d t 5 3 2                         ",
"                c c c c c c c c c c c c c c c c c c c c c c c c c c c c c c c c c c c c c c j d r 4 3 3                         ",
"              c c c c D x x x D c c c c c c c c c c c c c c c c c c c c c c c c c c c c N c x d e 4 3 4 t                       ",
"          c c c c c c c x x x x x c b c c c c c c c c c c c c c c c c c b c c b c c c c D c h d r 4 4 w y h c                   ",
"        c c c c c c c c c c D b c c c c c c c c c c c c c c c c c c c c c c c c c c c c b c l d e 4 4 w d h c G                 ",
"        c c c c c c c H J U U J H F b c c c c c c c c c c c c b c c c c c c c c c c c b c c l d t 5 4 t d h c b                 ",
"        c c c c c c H R E ~ ~ E T H c x c c c c c c c c c c c c c c c c c c c c c c c c c c j h y 5 w y h x c b                 ",
"        c c c D D c J E } ( ( } E J c x x c c c c c c c c c c c c c c c c c c c c c c c c c c h d     d h c c c                 ",
"        c c D x x c Y ~ _ | | _ ~ U c c x c c c c c c c c c c c c c c c c c c c c c c c c c c l         l c c c                 ",
"        c c c x x c R Q ' ..X.` / U c x D c c c c c c c c c c c c c c c c c c c c c c c c c c c         c c c c                 ",
"          c c x x c R [ ] o. .( W I b x D c b c c c c c c c c c c c c c c c c c c b c b c b c c           c c                   ",
"                              [ P L b D c b c c c c c c c c c c c c c c c c c c D c b c b b b b                                 ",
"                                J c c c c c c c c c c c c c c c c c c c c c c c c c c c c c c c                                 ",
"                                j l h h h h l l c c c c c c c c c c c c c c c c c l j h h h h l                                 ",
"                                d d d d d d d h h c c b c c c c c c c b c c l h f d d d d d d d                                 ",
"                                r r r r r r y y y                             d y r r r r r e e                                 ",
"                                4 4 4 4 5 4 4 5                                 5 4 5 4 4 4 4 4                                 ",
"                                2 2 2 2 3 3 3 3                                 2 2 2 2 3 2 3 3                                 ",
"                                2 2 2 2 2 2 2 2                                 2 2 2 2 2 2 2 2                                 "
};
