/* XPM */
static char *result[] = {
/* columns rows colors chars-per-pixel */
"64 64 16 1 ",
"  c gray13",
". c #5E431E",
"X c #705C3B",
"o c gray26",
"O c gray38",
"+ c gray46",
"@ c #8C7B5F",
"# c #4CAF50",
"$ c gray62",
"% c gray74",
"& c #D9BD97",
"* c #90CAF9",
"= c #CEC6DE",
"- c #DFDAE8",
"; c white",
": c None",
/* pixels */
"::::::::::::::::::::::::::::::::::::::::::::::::::::::::::::::::",
"::::::::::::::::::::::::::::::::::::::::::::::::::::::::::::::::",
"::::::::::::::::::::::::::::::::::::::::::::::::::::::::::::::::",
"::::::::::::::::::::::::::::::::::::::::::::::::::::::::::::::::",
"::::::::::::::::::::::::                  ::::::::::::::::::::::",
"::::::::::::::::::::::::                  ::::::::::::::::::::::",
"::::::::::::::::::::::  OO++++++++++++++OO  ::::::::::::::::::::",
"::::::::::::::::::::::  OO++++++++++++++OO  ::::::::::::::::::::",
"::::::::::::::::::::  oo++++++++++++++++++oo  ::::::::::::::::::",
"::::::::::::::::::::  oo++++++++++++++++++oo  ::::::::::::::::::",
"::::::::::::::::::::  ooOO++++++++++++++OOoo  ::::::::::::::::::",
"::::::::::::::::::::  ooOO++++++++++++++OOoo  ::::::::::::::::::",
"::::::::::::::::::::oo%%OOOOOOOOOOOOOOOOOO%%oo::::::::::::::::::",
"::::::::::::::::::::oo%%OOOOOOOOOOOOOOOOOO%%oo::::::::::::::::::",
"::::::::::::::::::  %%%%******************%%%%  ::::::::::::::::",
"::::::::::::::::::  %%%%******************%%%%  ::::::::::::::::",
"::::::::::::    ooOOOO%%******************%%OOOOoo    ::::::::::",
"::::::::::::    ooOOOO%%******************%%OOOOoo    ::::::::::",
"::::::::::  ooOO++++OOOOOOOOOOOOOOOOOOOOOOOOOO++++OOoo  ::::::::",
"::::::::::  ooOO++++OOOOOOOOOOOOOOOOOOOOOOOOOO++++OOoo  ::::::::",
"::::::::::::    ooOO++++++++++++++++++++++++++OOoo    ::::::::::",
"::::::::::::    ooOO++++++++++++++++++++++++++OOoo    ::::::::::",
"::::::::::::::::        oooooooooooooooooo        ::::::::::::::",
"::::::::::::::::        oooooooooooooooooo        ::::::::::::::",
"::::::::::::::::..XX@@@@@@@@@&&&  oooo  &&&&&&@@..::::::::::::::",
"::::::::::::::::..XX@@@@@@@@@&&&  oooo  &&&&&&@@..::::::::::::::",
"::::::::::::::::..&&&&&&&&&&&&  oo++++oo  &&&&....::::::::::::::",
"::::::::::::::::..&&&&&&&&&&&&  oo++++oo  &&&&....::::::::::::::",
"::::::::::::::::..XX@@..XX@@&&  oo++++oo  ;;&&;;..::::::::::::::",
"::::::::::::::::..XX@@..XX@@&&  oo++++oo  ;;&&;;..::::::::::::::",
"::::::::::::::::  &&&&&&&&&&&&&&  oooo  ;;;;;;##..::::::::::::::",
"::::::::::::::::  &&&&&&&&&&&&&&  oooo  ;;;;;;##..::::::::::::::",
"::::::::::::::::..oo@@..XX@@oooo&&&&&&;;;;..==--..::::::::::::::",
"::::::::::::::::..oo@@..XX@@oooo&&&&&&;;;;..==--..::::::::::::::",
"::::::::::::::::::..oooooooo;;;;;;;;;;;;OO==OO..::::::::::::::::",
"::::::::::::::::::..oooooooo;;;;;;;;;;;;OO==OO..::::::::::::::::",
"::::::::::::::::::::..    --------------==....::::::::::::::::::",
"::::::::::::::::::::..    --------------==....::::::::::::::::::",
"::::::::::::::::::::  oooo  ..............::::::::::::::::::::::",
"::::::::::::::::::::  oooo  ..............::::::::::::::::::::::",
"::::::::::::::::::  OOOOOOOOooOOOOOOoooooo  ::::::::::::::::::::",
"::::::::::::::::::  OOOOOOOOooOOOOOOoooooo  ::::::::::::::::::::",
"::::::::::::::::  oo++ooXX@@OOOO++++++OOoo  ::::::::::::::::::::",
"::::::::::::::::  oo++ooXX@@OOOO++++++OOoo  ::::::::::::::::::::",
"::::::::::::::::  OO++..@@XX..--OOOOOOoooo  ::::::::::::::::::::",
"::::::::::::::::  OO++..@@XX..--OOOOOOoooo  ::::::::::::::::::::",
"::::::::::::::  ooOO++..:;;;..--;;;;;;==..::::::::::::::::::::::",
"::::::::::::::  ooOO++..;;;;..--;;;;;;==..::::::::::::::::::::::",
"::::::::::::::  ooOO++..;;;;..----;;==..::::::::::::::::::::::::",
"::::::::::::::  ooOO++..----..----;;==..::::::::::::::::::::::::",
"::::::::::::::  ooOOOO..----..--====XX..::::::::::::::::::::::::",
"::::::::::::::  ooOOOO......XX--====XX..::::::::::::::::::::::::",
"::::::::::::::  ooOOOO......XX@@@@..@@..::::::::::::::::::::::::",
"::::::::::::::  ooOOOO$$++..XX@@@@..@@..::::::::::::::::::::::::",
"::::::::::::::::  ooOO$$++..==@@@@..==..::::::::::::::::::::::::",
"::::::::::::::::  ooOO......==@@@@..==..::::::::::::::::::::::::",
"::::::::::::::::::    ......======....::::::::::::::::::::::::::",
"::::::::::::::::::    ::::..======....::::::::::::::::::::::::::",
"::::::::::::::::::::::::::::......::::::::::::::::::::::::::::::",
"::::::::::::::::::::::::::::......::::::::::::::::::::::::::::::",
"::::::::::::::::::::::::::::::::::::::::::::::::::::::::::::::::",
"::::::::::::::::::::::::::::::::::::::::::::::::::::::::::::::::",
"::::::::::::::::::::::::::::::::::::::::::::::::::::::::::::::::",
"::::::::::::::::::::::::::::::::::::::::::::::::::::::::::::::::"
};
