/* XPM */
static char *result[] = {
/* columns rows colors chars-per-pixel */
"64 64 22 1 ",
"  c black",
". c gray13",
"X c #4A3C25",
"o c #266E29",
"O c #5E431E",
"+ c #705C3B",
"@ c gray26",
"# c gray38",
"$ c gray46",
"% c #855B3F",
"& c #8C746C",
"* c #4CAF50",
"= c #A6865B",
"- c gray74",
"; c #D9BD97",
": c #B39DDB",
"> c #90CAF9",
", c #D1C4E9",
"< c #DCD3ED",
"1 c #FFEBEE",
"2 c white",
"3 c None",
/* pixels */
"3333333333333333333333333333333333333333333333333333333333333333",
"3333333333333333333333333333333333333333333333333333333333333333",
"3333333333333333333333333333333333333333333333333333333333333333",
"3333333333333333333333333333333333333333333333333333333333333333",
"3333333333333333333333333333333333333333333333333333333333333333",
"3333333333333333333333333333333333333333333333333333333333333333",
"33333333333333333333333                  33333333333333333333333",
"33333333333333333333333                  33333333333333333333333",
"333333333333333333333  ##$$$$$$$$$$$$$$##  333333333333333333333",
"333333333333333333333  ##$$$$$$$$$$$$$$##  333333333333333333333",
"3333333333333333333  @@$$$$$$$$$$$$$$$$$$@@  3333333333333333333",
"3333333333333333333  @@$$$$$$$$$$$$$$$$$$@@  3333333333333333333",
"3333333333333333333  @@##$$$$$$$$$$$$$$##@@  3333333333333333333",
"3333333333333333333  @@##$$$$$$$$$$$$$$##@@  3333333333333333333",
"3333333333333333333@@--##################--@@3333333333333333333",
"3333333333333333333@@--##################--@@3333333333333333333",
"33333333333333333  ---->>>>>>>>>>>>>>>>>>----  33333333333333333",
"33333333333333333  ---->>>>>>>>>>>>>>>>>>----  33333333333333333",
"33333333333    @@####-->>>>>>>>>>>>>>>>>>--####@@    33333333333",
"33333333333    @@####-->>>>>>>>>>>>>>>>>>--####@@    33333333333",
"333333333  @@##$$$$##########################$$$$##@@  333333333",
"333333333  @@##$$$$##########################$$$$##@@  333333333",
"33333333333    @@##$$$$$$$$$$$$$$$$$$$$$$$$$$##@@    33333333333",
"33333333333    @@##$$$$$$$$$$$$$$$$$$$$$$$$$$##@@    33333333333",
"333333333333333        @@@@@@@@@@@@@@@@@@        333333333333333",
"333333333333333        @@@@@@@@@@@@@@@@@@        333333333333333",
"333333333333333OOXX==  @@@@  ;;%%;;;;;;OO;;;;%%OOOO3333333333333",
"333333333333333OOXX==  @@@@  ;;%%;;;;;;OO;;;;%%OOOO3333333333333",
"333333333333333OO==  @@####@@  ;;;;;;OOOO;;;;;;==OO3333333333333",
"333333333333333OO==  @@####@@  ;;;;;;OOOO;;;;;;==OO3333333333333",
"3333333333333OOOOXX  @@####@@  22;;;;22oo;;;;%%XXOOOO33333333333",
"3333333333333OOOOXX  @@####@@  22;;;;22oo;;;;%%XXOOOO33333333333",
"333333333333333OO==;;  @@@@  222222;;****;;;;;;==OO3333333333333",
"333333333333333OO==;;  @@@@  222222;;****;;;;;;==OO3333333333333",
"3333333333333OOOOXX@@%%;;;;2222222222;;;;222222XXOOOO33333333333",
"3333333333333OOOOXX@@%%;;;;2222222222;;;;222222XXOOOO33333333333",
"33333333333333333  ==<<222222$$22$$2222222222<<OO333333333333333",
"33333333333333333  ==<<222222$$22$$2222222222<<OO333333333333333",
"3333333333333333333OOOO,,,,<<<<<<<<<<<<,,,,OOOO33333333333333333",
"3333333333333333333OOOO,,,,<<<<<<<<<<<<,,,,OOOO33333333333333333",
"33333333333333333  @@@@OOOOOOOOOOOOOOOOOOOO@@##  333333333333333",
"33333333333333333  @@@@OOOOOOOOOOOOOOOOOOOO@@##  333333333333333",
"333333333333333    OO@@####@@@@@@@@@@@@######OO    3333333333333",
"333333333333333    OO@@####@@@@@@@@@@@@######OO    3333333333333",
"3333333333333    OO<<&&@@##$$$$$$$$$$$$##@@==;;OO@@  33333333333",
"3333333333333    OO<<&&@@##$$$$$$$$$$$$##@@==;;OO@@  33333333333",
"3333333333333    OO<<<<OO####$$$$$$$$####&&2222OO##@@  333333333",
"3333333333333    OO<<<<OO####$$$$$$$$####&&2222OO##@@  333333333",
"33333333333        OOOOOO2222222222222222OO2222OO##@@  333333333",
"33333333333        OOOOOO2222222222222222OO2223OO##@@  333333333",
"33333333333            OO==222222222222&&OOOOOO@@####  333333333",
"33333333333            OO==222222222222&&OOOOOO@@####  333333333",
"33333333333            OO&&&&::::::&&&&++OO$$OO######..333333333",
"33333333333            OO&&&&::::::&&&&++OO$$OO######..333333333",
"3333333333333  3333    OO==++OOOOOO++OOOO$$OO..####..33333333333",
"3333333333333  3333    OO==++OOOOOO++OOOO$$OO..####..33333333333",
"33333333333333333333333OO2222OO3333OO2222OO3333....3333333333333",
"33333333333333333333333OO2222OO3333OO2222OO3333....3333333333333",
"33333333333333333333333OO1111OO3333OO1111OO333333333333333333333",
"33333333333333333333333OO1111OO3333OO1111OO333333333333333333333",
"3333333333333333333333333OOOO33333333OOOO33333333333333333333333",
"3333333333333333333333333OOOO33333333OOOO33333333333333333333333",
"3333333333333333333333333333333333333333333333333333333333333333",
"3333333333333333333333333333333333333333333333333333333333333333"
};
