/* XPM */
static char *c1a013b357f841098da2e22319635be2MsnWzHEpDIcXhnon[] = {
/* columns rows colors chars-per-pixel */
"64 64 142 2 ",
"   c None",
".  c #6E3D43",
"X  c #713F44",
"o  c #744145",
"O  c #7A4746",
"+  c #7D4A47",
"@  c #7E4649",
"#  c #804749",
"$  c #82494A",
"%  c #8D4F4E",
"&  c #8C534C",
"*  c #91534E",
"=  c #945C4D",
"-  c #945450",
";  c #9C5B52",
":  c #A55D56",
">  c #A85E57",
",  c #A95F58",
"<  c #99614E",
"1  c #A46253",
"2  c #A96257",
"3  c #A36A51",
"4  c #AC6B54",
"5  c #AC6258",
"6  c #AF6858",
"7  c #B16659",
"8  c #B46A5A",
"9  c #B96E5B",
"0  c #B37356",
"q  c #B77956",
"w  c #B97A57",
"e  c #B67159",
"r  c #BD745C",
"t  c #BB7B58",
"y  c #C1775C",
"u  c #C57B5D",
"i  c #C97F5E",
"p  c #C28259",
"a  c #CC825E",
"s  c #CF8A5E",
"d  c #D0875F",
"f  c #D2895F",
"g  c #D6915F",
"h  c #D8935F",
"j  c #D58C60",
"k  c #D88F61",
"l  c #DB9161",
"z  c #DA9161",
"x  c #DA9261",
"c  c #DB9261",
"v  c #D99061",
"b  c #DC9261",
"n  c #DC9361",
"m  c #DC9262",
"M  c #DA9460",
"N  c #DB9660",
"B  c #DD9461",
"V  c #DC9660",
"C  c #DD9462",
"Z  c #DE9562",
"A  c #DF9562",
"S  c #DF9662",
"D  c #DB9261",
"F  c #DF9A61",
"G  c #E09662",
"H  c #E09762",
"J  c #E09662",
"K  c #E09862",
"L  c #E39963",
"P  c #E39A63",
"I  c #E39B63",
"U  c #E49B63",
"Y  c #E29D61",
"T  c #E59C63",
"R  c #E69D63",
"E  c #E49E62",
"W  c #E49F62",
"Q  c #E59F62",
"!  c #E69E63",
"~  c #E79E63",
"^  c #E69C64",
"/  c #E79E64",
"(  c #E79F64",
")  c #E59D63",
"_  c #E89F64",
"`  c #E99F64",
"'  c #E89F64",
"]  c #E5A062",
"[  c #E7A163",
"{  c #E5A062",
"}  c #E8A064",
"|  c #E9A064",
" . c #E9A164",
".. c #EAA164",
"X. c #EBA264",
"o. c #EBA364",
"O. c #EBA265",
"+. c #ECA165",
"@. c #ECA365",
"#. c #EDA365",
"$. c #ECA465",
"%. c #EDA465",
"&. c #EDA565",
"*. c #EEA565",
"=. c #EEA665",
"-. c #EFA765",
";. c #ECA465",
":. c #F0A765",
">. c #F0A566",
",. c #F0A766",
"<. c #F0A865",
"1. c #F1A865",
"2. c #F1A965",
"3. c #F1A966",
"4. c #F2A966",
"5. c #F2AA66",
"6. c #F3AA66",
"7. c #F3AB66",
"8. c #F4AA66",
"9. c #F4AB67",
"0. c #F4AC66",
"q. c #F5AD66",
"w. c #F5AC67",
"e. c #F6AD66",
"r. c #F6AD67",
"t. c #F6AE66",
"y. c #F6AE67",
"u. c #F7AE67",
"i. c #F7AF67",
"p. c #F4AC66",
"a. c #F8AF67",
"s. c #F8AF67",
"d. c #F8B067",
"f. c #F9B167",
"g. c #FAB167",
"h. c #F8B067",
"j. c #FAB168",
"k. c #FAB268",
"l. c #FBB268",
"z. c #FBB368",
"x. c #FCB368",
"c. c #FAB168",
/* pixels */
"        . . . . . . . . . . . . . . . . . . . . . . . . . . . . . . . . . . . . . . . . . . . . . . . . . . . . . . o .         ",
"        . o . o . . . . . . . o . . . . . . . . . . . . . . . . . . . . . . . . . . . . . . . . . . . . . . . . . . . .         ",
"      . . . o . . . . . . . . . . . . . . . . . . . . . . . . . . . . . . . . . . . . . . . . . . . . . . . . . . . . . X       ",
"    . X . . . . . . . . . . . . . . . . . . . . . . . . . . . . . . . . . . . . . . . . . . . . . . . . . . . . . . . . . .     ",
". X o . . . . . . . . . . . . . . . . . . . . . . . . . . . . . . . . . . . . . . . . . . . . . . . . . . . . . . . . . . X . . ",
"X . . . . . o o o O o o o o o o O O O O O O O O . . O O O o O O O o o O . o O O O O o O O O O O o . O O O o + O o o o . X . . X ",
". . X . o o o $ & & = < < < < < < < < < < < < < = < < < < < < < & & & = = < = < < < < < < < < < = < < < < < < < & + o . . . X . ",
". X . . . o + & < 3 0 q p p p p p p p p p t p p p p p p p p p w 0 4 4 0 q p p p p p p t p p p p p p p p p p p t < & o . . . o . ",
". . . . . o & < e a f V Y ] ] { Y R Y Y } Y Y ^ { Y R ] R R H g a u a s N Y ] R { Y { Y Y R Y Y ] Y R Y ] } { h q < o . . . . . ",
". . . . . O & 4 a h ^ *.e.e.e.e.e.e.e.e.7.e.e.e.e.e.e.8.<.+.~ H h f h F @.e.i.e.7.e.e.e.e.e.e.e.e.i.e.e.7.<.$.V q < o . . . . . ",
". . . . . O = 0 f R :.8.e.k.k.k.k.k.k.k.k.k.k.k.z.z.g.8.~ H h h b H ^ +.<.k.k.k.k.k.k.k.k.k.k.k.k.z.k.k.e.O.V a 4 & O . . . o . ",
". . . . . O = w h :.8.e.e.i.i.e.i.i.e.e.i.i.i.i.g.g.e.+.g a u a k R -.8.e.e.i.e.i.i.i.i.e.a.e.a.i.g.k.e.@.v a 8 < & O . . . . . ",
". . . . . O = p R <.s.e.e.7.<.7.<.<.<.<.<.<.<.<.<.<.*.K a e 9 u k +.7.e.e.7.<.e.<.<.<.<.<.<.<.<.<.7.<.*.V a 9 > * + o . . . . . ",
". . . . . O < p ] e.k.i.7.<.*.O.O.` ` O.O.` O.O.] R V j y 7 8 y v *.i.i.i.7.<.*.O.O.^ ` O.O.O.O.} ^ I V j u 8 : * O o . . . . . ",
". . . . . O < p ] e.k.s.<.*.^ F b b b v v V v v j j a y 8 7 7 y v *.e.i.i.<.&.R V v v k v b V b v j d a y 9 5 : - # o . . . . . ",
". . . . . O < p { e.k.k.<.O.H j f a d j f f j a u y 8 7 5 5 8 u b *.e.g.t.2.] V j j j d f f d d d u r 8 8 7 5 : - # o . . . . o ",
". . . . . X ; p ] e.k.i.<.O.b d a i i a a a a u y 8 5 , : , 7 u h &.i.i.e.<.` b j a i i a a a a u r 8 5 5 5 5 : - + o . . . . X ",
". . . . . . < p Y 7.k.i.<.^ v j i i i i a a i u r 7 5 , > , 7 u v -.e.i.e.<.R v a i i a i i a i u r 8 5 > > 5 : - $ X . . . . . ",
". . . . . O < p R e.k.i.<.} v a i i i i a a a u r 8 , , > , 7 u v *.i.g.i.<.^ v d i i i i a a i u r 8 5 5 5 2 : - $ o . . . X . ",
". . . . . O = p Y e.k.e.<.O.V j a i a a a a i i y 8 7 , > , 8 u v *.e.g.e.<.` v d a i i a a a a u r 8 5 5 > 5 : - $ o . . . . X ",
". . . . . O < p ] e.k.k.<.O.v d a i a a a d a i y 8 5 , : 5 7 u v *.e.g.i.7.} N j i i a a a a a u r 8 5 5 5 5 : - $ o . . . . o ",
". . . . . O < p Y i.z.k.i.O.Z j a a i a a a a i y 8 7 , : 5 8 u N *.e.g.i.7.O.v d i a a a a d a i r 8 5 5 5 5 : - + o . . . . . ",
". . . . . O < t Y e.k.k.<.` m j a a a a a a i i y 8 2 , , 5 7 u v *.e.i.i.<.^ z d a i a i a a a u r 8 5 5 5 5 : - $ o . . . . . ",
". . . . . O < p R <.i.*.O.K k a u u u u i i u u r 8 7 , : , 8 u N *.7.7.*.O.Z j a i u u i i i i u r 8 5 5 5 > > - $ o . . . o . ",
". . . . . O < p ] <.-.U k j u y y r r y y y r r 9 7 5 5 , , 7 u V *.<.O.K j d u y r r r y r u r r 8 7 5 5 5 > : - $ o . . . . . ",
". . . . . O < p ] <.R f u r 9 8 8 9 8 8 8 8 8 8 7 5 5 , , , 8 u Z *.$.F d u r r r 8 8 8 8 8 8 8 8 8 5 5 5 5 5 : - $ o . . . . . ",
". . . . . O < p Y ^ v u 8 7 7 5 7 5 7 5 5 7 7 5 5 5 5 , , 5 7 u v O.^ j r 8 5 5 5 5 5 5 7 5 5 5 5 5 5 5 5 5 5 > - $ o . . . X . ",
". . . . . O = q g v a 9 , : > > , , , , , , , , 5 , 5 , , , 7 y j v k a 8 5 > : , , 5 , 5 , 5 5 5 5 5 , 5 5 , ; - @ o . . . o . ",
". . . . . X & 4 y a r 7 > : : > > > : , : > , : , > : > > > 2 e u a i r 8 > : : , > : , : > > > > > > > , , , : - @ o . . . . o ",
". . . . . o & ; 6 8 8 6 > > > > , , 5 , , , 5 , 5 , 5 5 , 5 2 7 8 8 8 8 5 5 > > 5 5 , , , 5 , > , 5 , , 5 5 , : - O o . . . . . ",
". . . . . o $ * 2 8 8 8 8 8 7 8 7 8 7 8 8 7 8 7 7 7 7 8 7 8 7 7 5 8 6 5 5 8 8 8 8 5 7 8 8 6 6 8 8 5 8 8 8 8 8 5 - $ o . . . . . ",
". . . . . X $ ; 2 8 r r u u u u u u u u u u u u u u u u u u u y 9 8 8 r u u u u u u u u u u u u i u u u u a i r 3 & o . . . o . ",
". . . . . o & ; 8 u a j v v v N v v v h v v v h N v v N C Z k j i r u a j k N v v N v v v N v N v v v N V Z Z d 0 = o . . . . . ",
". . . . . o & 1 r d b R $.<.*.$.*.*.*.&.*.*.*.-.O.*.*.*.$.$.^ Z j d d v K O.<.*.$.*.*.*.@.*.*.*.*.$.*.*.<.<.*.N t = O . . . . . ",
". . . . . o & 4 p v R *.7.i.e.i.i.e.i.i.e.i.i.e.i.e.i.7.<.$.I Z j j z K *.7.i.i.e.e.e.e.e.e.e.i.e.e.e.e.7.<.$.h w = O . . . . . ",
". . . . . O = 0 f R *.<.i.i.k.i.i.i.i.g.i.i.i.g.k.k.i.<.I v j j z Z ^ $.<.e.i.i.g.i.g.g.i.g.i.i.i.g.k.i.<.^ N a 4 & O . . . . . ",
". . . . . O = q F *.<.e.e.e.e.i.i.i.t.t.e.i.e.i.i.k.7.O.j i u a v R *.<.7.e.i.e.e.e.e.a.e.a.a.a.i.i.i.e.O.k u 8 ; $ o . . . . . ",
". . . . . O < p Y e.g.e.e.e.<.<.<.<.<.<.<.<.<.<.<.<.$.V a 9 8 u v *.7.i.i.7.7.7.8.:.<.<.:.<.:.:.<.<.<.*.V a 9 : - + o . . . . . ",
". . . . . O < p ] i.g.e.8.<.@.O.~ ~ ..R O.R R R ^ K v f y 8 8 y v *.i.i.i.7.<.$.` ~ ~ ~ ~ ~ ` ~ ] I K v j u 7 : - # o . . . . . ",
". . . . . O < p ] e.k.i.<.*.U b b k h h b v N v j a a r 8 5 7 y v *.i.i.e.<.$.Y V b k b b h b k v j d u r 8 5 : - $ o . . . . . ",
". . . . . o = p { 7.k.i.<.O.H j d d d d d d d d u r 8 7 5 5 8 u N $.e.i.e.<...H f d d d d d d d a u r 8 8 5 5 ; - # o . . . . . ",
". . . . . X < p { 7.k.i.<.O.v j i i i a a a i u r 8 5 5 > , 7 u v *.i.i.a.<.~ h d i i i a a d i i r 8 5 5 5 5 : - $ X . . . . X ",
". . . . . O < p R e.k.i.<.] v a i i i i i a i u r 8 , , : , 7 u h &.i.i.e.<.~ v j i i i i a a i u r 8 5 > 5 5 : - $ o . . . X . ",
". . . . . O < p Y e.k.i.<...V j i i i a a i a i r 8 5 , , , 8 u v -.i.i.a.<.~ v a i i i i i a a u r 8 5 > 5 2 : - $ o . . . X . ",
". . . . . O = p { e.g.i.8.~ B d a i i i d i i i r 8 5 , > 5 6 u v *.i.i.i.<.R v j i i i a a a a u r 8 5 5 5 > : - @ o . . . o . ",
". . . . . O < p Y e.g.i.8.` J d d a a i i d d u u 8 7 5 : , 8 u v *.e.g.i.7.O.b d i i a a a a a u r 8 5 5 5 5 : - + o . . . . . ",
". . . . . O < p { e.z.g.e...B f i i a d a d a u r 8 5 , , , 8 u N *.e.g.i.7.] V d a a a a d a a u y 8 7 5 5 5 : - $ o . . . . . ",
". . . . . O < p R e.g.e.<...B d a i i a i i d u y 8 5 , > , 6 u v *.e.i.i.2.R b d a i i a a a a u r 8 5 5 5 5 : - $ o . . . . o ",
". . . . . O < p ] 7.i.*.` V j a u u u u u u u u r 8 5 5 > , 8 u v *.7.7.&.^ m j a u i i u i u i y r 8 5 5 5 > : - @ o . . . . . ",
". . . . . O < p ] <.*.K j d i y y y r r r y y r 8 7 5 5 > , 8 u Z <.<.O.Z j d i r r r r r r r r r 8 7 5 5 5 5 > - $ o . . . . . ",
". . . . . O < p ] *.Y a u 9 8 9 8 8 8 8 8 8 8 8 7 5 5 5 , , 6 i Z *.&.Z d y r 8 8 8 8 8 8 8 8 8 8 7 5 5 5 5 5 : - $ o . . o o . ",
". . . . . + < p Y R k u 7 6 5 5 7 5 5 5 5 5 5 5 , 5 5 5 , , 8 i v } ^ j r 7 5 5 5 5 5 5 5 5 5 5 5 5 5 5 5 5 2 : - $ o . . . . . ",
". . . . . . = q f k d 9 5 > , 5 , 5 5 5 5 5 5 5 5 5 5 5 , 5 8 r j v k a 9 5 , , 5 5 5 5 5 5 5 5 5 5 5 5 5 5 5 : - @ o . . . . . ",
". . . . . X & 4 u u y 8 5 , , 5 5 5 5 5 5 5 5 5 5 5 5 5 5 5 5 r u i i r 8 5 , , 5 5 5 5 5 5 5 5 5 5 5 5 5 7 5 > - O o . . . . . ",
". . . . . o $ ; 8 8 8 7 , > , 7 , , 5 5 5 5 5 5 5 5 5 5 5 5 5 5 8 8 8 8 5 5 , 5 5 5 5 5 5 2 5 5 5 5 5 5 5 5 5 : - $ o . . o o . ",
". . . . . X $ * : : : , : : : : : : ; : : ; : 2 , : : : : : : : : : : : ; : : : : : : : : : : : : : : : > > > ; * @ o . . . . . ",
". o . . . o O $ % * - - - - - - - - - - - - - - - - - - - - - * * * - - - - - - * - - - - - - - - - - - - - - * $ O X . . . o . ",
". . . . . . o o @ $ $ $ # # $ $ @ O + @ $ $ @ @ $ $ $ @ $ + @ @ $ @ @ $ # $ $ $ O O + $ $ $ $ @ $ $ $ $ $ $ $ O O O o X . . . . ",
". . . o . o o o X o o o o o o o o o o o o o o o o o o o O o o o o o o X o X X o o o o o o o o o o o o o o o o o X o . . . . . . ",
"o . . . . . . . . . . . . . . . . . . . o . . . X X . . . . . . . X . . X . . X . . . . X . . . . . . . . . . . . . . . o . . o ",
"    . . . o . . . . . . . . . . . . . . . . . . . . . . . . . . . . . . . . . . . . . . . . . . . . . . . . . . . o . . . .     ",
"      X . . . . . o . . . . . . . . . . . . . . . . . . . . . . . . . . X X . . . . . o . . . o . . . . . . . . . . . o .       ",
"        o . . . . . X . . X . . . o o . o . o . . . . . . . . . . . X . . X . . . . . . . . . . . . . o . . . . . . . .         ",
"        . . . o . . . X . . X . . . . . . . . . . o . . o . . o . . . . X . X . . o . . o . . . o . . . o . . o . . X .         "
};
