/* XPM */
static char *result[] = {
/* columns rows colors chars-per-pixel */
"64 64 11 1 ",
"  c #572121",
". c #4F3B35",
"X c #773030",
"o c #783030",
"O c #795548",
"+ c #AB3F3F",
"@ c #825C50",
"# c #B85A5A",
"$ c #9E8F8B",
"% c #B8AEAB",
"& c #D1BAB3",
/* pixels */
"................................................................",
"OOOOOOOOOOOOOOOOOOOOOOOOOOOOOOOOOOOOOOOOOOOOOOOOOOOOOOOOOOOOOOOO",
"@@@@@@@@@@@@@@@@@@@@@@@@@@@@@@@@@@@@@@@@@@@@@@@@@@@@@@@@@@@@@@@@",
"%%%%%%%%%%%%%%%%%%%%%%%%%%%%%%%%%%%%%%%%%%%%%%%%%%%%%%%%%%%%%%%%",
"%%%%%%%%%%%%%%%%%%%%%%%%%%%%%%%%%%%%%%%%%%%%%%%%%%%%%%%%%%%%%%%%",
"&&&&&&&&&&&&&&&&&&&&&&&&&&&&&&&&&&&&&&&&&&&&&&&&&&&&&&&&&&&&&&&&",
"&&&&&&&&&&&&&&&&&&&&&&&&&&&&&&&&&&&&&&&&&&&&&&&&&&&&&&&&&&&&&&&&",
"%%%%%%%%%%%%%%%%%%%%%%%%%%%%%%%%%%%%%%%%%%%%%%%%%%%%%%%%%%%%%%%%",
"%%%%%%%%%%%%%%%%%%%%%%%%%%%%%%%%%%%%%%%%%%%%%%%%%%%%%%%%%%%%%%%%",
"$$$$$$$$$$$$$$$$$$$$$$$$$$$$$$$$$$$$$$$$$$$$$$$$$$$$$$$$$$$$$$$$",
"$$$$$$$$$$$$$$$$$$$$$$$$$$$$$$$$$$$$$$$$$$$$$$$$$$$$$$$$$$$$$$$$",
"@@@@@@@@@@@@@@@@@@@@@@@@@@@@@@@@@@@@@@@@@@@@@@@@@@@@@@@@@@@@@@@@",
"OOOOOOOOOOOOOOOOOOOOOOOOOOOOOOOOOOOOOOOOOOOOOOOOOOOOOOOOOOOOOOOO",
"................................................................",
"................................................................",
"++++++++++++++++++++++++++++++++++++++++++++++++++++++++++++++++",
"++++++++++++++++++++++++++++++++++++++++++++++++++++++++++++++++",
"++++++++++++++++++++++++++++++++++++++++++++++++++++++++++++++++",
"++++++++++++++++++++++++++++++++++++++++++++++++++++++++++++++++",
"+++++++++++++++++++++++++++++++oooooooo+++++++++++++          ++",
"+++++++++++++++++++++++++++++++oooooooo+++++++++++++          ++",
"+++++++++++++++++++++++++++++++oooooooo+++++++++++++          ++",
"+++######################++++++oooooooo+++++++++++++          ++",
"+++######################+++++++++++++++++++++++++++++++++++++++",
"+++######################+++++++++++++++++++++++++++++++++++++++",
"+++######################+++++++++++++++++++++++++++++++++++++++",
"+++######################+++++++++++++++++++++++++++++++++++++++",
"+++######################+++++++++++++++++++++++++++++++++++++++",
"+++######################+++++++++++++#############+++++++++++++",
"+++######################+++++++++++++#############+++++++++++++",
"+++######################+++++++++++++#############+++++++++++++",
"+++###################        ++++++++#############+++++++++++++",
"++++++++++++++++++++++        ++++++++#############+++++++++++++",
"++++++++++++++++++++++        ++++++++#############+++++++++++++",
"++++++++++++++++++++++        ++++++++#############+++++++++++++",
"++++++++++++++++++++++        ++++++++#############+++++++++++++",
"++++++++++++++++++++++++++++++++++++++#############+++++++++++++",
"++++++++++++++++++++++++++++++++++++++++++++++++++++++++++++++++",
"++++++++++++++++++++++++++++++++++++++++++++++++++++++++++++++++",
"++++++++++++++++++++++++++++++++++++++++++++++++++++++++++++++++",
"++++++++++++++++++++++++++++++++++++++++++++++++++++++++++++++++",
"++++++++++++++++++++++++++++++++++++++++++++++++ooooooooo+++++++",
"++++++++++++++++++++++++++++++++++++++++++++++++ooooooooo+++++++",
"++++++++++++++++++++++++++++++++++++++++++++++++ooooooooo+++++++",
"++++++++++++++++++++++++++++++++++++++++++++++++ooooooooo+++++++",
"++++++++++oooooooooooooooooooooooo++++++++++++++ooooooooo+++++++",
"++++++++++oooooooooooooooooooooooo++++++++++++++++++++++++++++++",
"++++++++++oooooooooooooooooooooooo++++++++++++++++++++++++++++++",
"++++++++++ooooooooooooXXoooooooooo++++++++++++++++++++++++++++++",
"++++++++++oooooooooooXXXXXoooooo                   +++++++++++++",
"++++++++++oooooooooooXXXXXXooooo                   +++++++++++++",
"++++++++++ooooooooooXXXXXXXooooo                   +++++++++++++",
"++++++++++ooooooooooXXXXXXXooooo                   +++++++++++++",
"++++++++++oooooooooooXXXXXoooooo                   +++++++++++++",
"++++++++++ooooooooooooXXoooooooo                   +++++++++++++",
"++++++++++oooooooooooooooooooooo                   +++++++++++++",
"++++++++++oooooooooooooooooooooo                   +++++++++++++",
"++++++++++oooooooooooooooooooooooo++++++++++++++++++++++++++++++",
"++++++++++oooooooooooooooooooooooo++++++++++++++++++++++++++++++",
"++++++++++++++++++++++++++++++++++++++++++++++++++++++++++++++++",
"++++++++++++++++++++++++++++++++++++++++++++++++++++++++++++++++",
"++++++++++++++++++++++++++++++++++++++++++++++++++++++++++++++++",
"++++++++++++++++++++++++++++++++++++++++++++++++++++++++++++++++",
"++++++++++++++++++++++++++++++++++++++++++++++++++++++++++++++++"
};
