/* XPM */
static char *result[] = {
/* columns rows colors chars-per-pixel */
"64 64 8 1 ",
"  c #572121",
". c #4F3B35",
"X c #573C33",
"o c #773030",
"O c #783030",
"+ c #795548",
"@ c #AB3F3F",
"# c #B85A5A",
/* pixels */
"..++++#######@@@@@@@@@@@@@@@@@@@@@@@@@@@@@@@@@@@@@@@@@@@@@@@@@@@",
"..++++#######@@@@@@@@@@@@@@@@@@@@@@@@@@@@@@@@@@@@@@@@@@@@@@@@@@@",
"..++++#######@@@@@@@@@@@@@@@@@@@@@@@@@@@@@@@@@@@@@@@@@@@@@@@@@@@",
"..XXXXXXXX###@@@@@@@@@@@@@@@@@@@@@@@@@@@@@@@@@@@@@@@@@@@@@@@@@@@",
"..XXXXXXXX###@@@@@              @@@@@@OOOOOOOOOOOOOOOOOOOOOOOOOO",
"..XXXXXXXX###@@@@@              @@@@@@OOOOOOOOOOOOOOOOOOOOOOOOOO",
"..XXXXXXXX###@@@@@              @@@@@@OOOOOOOOOOOOOOOOOOOOOOOOOO",
"..XXXXXXXX###@@@@@              @@@@@@OOOOOOOOOOOOOOOOOOOOOOOOOO",
"..XXXXXXXX###@@@@@              @@@@@@OOOOOOOOOOOOOOOOOOOOOOOOOO",
"..XXXXXXXX###@@@@@              @@@@@@OOOOOOOOOOOOOOOOOOOOOOOOOO",
"..XXXXXXXX###@@@@@              @@@@@@OOOOOOOOOOOOOOOOOOOOOOOOOO",
"..++++#######@@@@@@@@@@@@@@@@@@@@@@@@@OOOOOOOOOOOOOOOOOOOOOOOOOO",
"..++++#######@@@@@@@@@@@@@@@@@@@@@@@@@OOOOOOOOOOOOOOOOOOOOOOOOOO",
"..++++#######@@@@@@@@@@@@@@@@@@@@@@@@@OOOOOOOOOOOOOOOOOOOOOOOOOO",
"..++++#######@@@@@@@@@@@@@@@@@@@@@@@@@@@@@@@@@@@@@@@@@@@@@@@@@@@",
"..++++#######@@@@@@@@@@@@@@@@@@@@@@@@@@@@@@@@@@@@@@@@@@@@@@@@@@@",
"..++++#######@@@@@@@@@@@@@@@@@@@@@@@@@@@@@@@@@@@@@@@@@@@@@@@@@@@",
"..++++#######@@@@@@@@@@@@@@@@@@@@@@@@@@@@@@@@@@@@@@@@@@@@@@@@@@@",
"..++++#######@@@@@@@@@@@@@@@@@@@@@@@@@@@@@@@@@@@@@@@@@@@@@@@@@@@",
"..XXXXXXXX###@@@@@@@@@@@@@@@@@@OOOOOOOO@@@@@@@@@@@@@          @@",
"..XXXXXXXX###############@@@@@@OOOOOOOO@@@@@@@@@@@@@          @@",
"..XXXXXXXX###############@@@@@@OOOOOOOO@@@@@@@@@@@@@          @@",
"..XXXXXXXX###############@@@@@@OOOOOOOO@@@@@@@@@@@@@          @@",
"..XXXXXXXX###############@@@@@@@@@@@@@@@@@@@@@@@@@@@@@@@@@@@@@@@",
"..XXXXXXXX###############@@@@@@@@@@@@@@@@@@@@@@@@@@@@@@@@@@@@@@@",
"..XXXXXXXX###############@@@@@@@@@@@@@@@@@@@@@@@@@@@@@@@@@@@@@@@",
"..XXXXXXXX###############@@@@@@@@@@@@@@@@@@@@@@@@@@@@@@@@@@@@@@@",
"..++++###################@@@@@@@@@@@@@@@@@@@@@@@@@@@@@@@@@@@@@@@",
"..++++###################@@@@@@@@@@@@@#############@@@@@@@@@@@@@",
"..++++###################@@@@@@@@@@@@@#############@@@@@@@@@@@@@",
"..++++###################@@@@@@@@@@@@@#############@@@@@@@@@@@@@",
"..++++################        @@@@@@@@#############@@@@@@@@@@@@@",
"..++++#######@@@@@@@@@        @@@@@@@@#############@@@@@@@@@@@@@",
"..++++#######@@@@@@@@@        @@@@@@@@#############@@@@@@@@@@@@@",
"..++++#######@@@@@@@@@        @@@@@@@@#############@@@@@@@@@@@@@",
"..XXXXXXXX###@@@@@@@@@        @@@@@@@@#############@@@@@@@@@@@@@",
"..XXXXXXXX###@@@@@@@@@@@@@@@@@@@@@@@@@#############@@@@@@@@@@@@@",
"..XXXXXXXX###@@@@@@@@@@@@@@@@@@@@@@@@@@@@@@@@@@@@@@@@@@@@@@@@@@@",
"..XXXXXXXX###@@@@@@@@@@@@@@@@@@@@@@@@@@@@@@@@@@@@@@@@@@@@@@@@@@@",
"..XXXXXXXX###@@@@@@@@@@@@@@@@@@@@@@@@@@@@@@@@@@@@@@@@@@@@@@@@@@@",
"..XXXXXXXX###@@@@@@@@@@@@@@@@@@@@@@@@@@@@@@@@@@@@@@@@@@@@@@@@@@@",
"..XXXXXXXX###@@@@@@@@@@@@@@@@@@@@@@@@@@@@@@@@@@@OOOOOOOOO@@@@@@@",
"..XXXXXXXX###@@@@@@@@@@@@@@@@@@@@@@@@@@@@@@@@@@@OOOOOOOOO@@@@@@@",
"..++++#######@@@@@@@@@@@@@@@@@@@@@@@@@@@@@@@@@@@OOOOOOOOO@@@@@@@",
"..++++#######@@@@@@@@@@@@@@@@@@@@@@@@@@@@@@@@@@@OOOOOOOOO@@@@@@@",
"..++++####OOOOOOOOOOOOOOOOOOOOOOOO@@@@@@@@@@@@@@OOOOOOOOO@@@@@@@",
"..++++####OOOOOOOOOOOOOOOOOOOOOOOO@@@@@@@@@@@@@@@@@@@@@@@@@@@@@@",
"..++++####OOOOOOOOOOOOOOOOOOOOOOOO@@@@@@@@@@@@@@@@@@@@@@@@@@@@@@",
"..++++####OOOOOOOOOOOOooOOOOOOOOOO@@@@@@@@@@@@@@@@@@@@@@@@@@@@@@",
"..++++####OOOOOOOOOOOoooooOOOOOO                   @@@@@@@@@@@@@",
"..++++####OOOOOOOOOOOooooooOOOOO                   @@@@@@@@@@@@@",
"..XXXXXXXXOOOOOOOOOOoooooooOOOOO                   @@@@@@@@@@@@@",
"..XXXXXXXXOOOOOOOOOOoooooooOOOOO                   @@@@@@@@@@@@@",
"..XXXXXXXXOOOOOOOOOOOoooooOOOOOO                   @@@@@@@@@@@@@",
"..XXXXXXXXOOOOOOOOOOOOooOOOOOOOO                   @@@@@@@@@@@@@",
"..XXXXXXXXOOOOOOOOOOOOOOOOOOOOOO                   @@@@@@@@@@@@@",
"..XXXXXXXXOOOOOOOOOOOOOOOOOOOOOO                   @@@@@@@@@@@@@",
"..XXXXXXXXOOOOOOOOOOOOOOOOOOOOOOOO@@@@@@@@@@@@@@@@@@@@@@@@@@@@@@",
"..XXXXXXXXOOOOOOOOOOOOOOOOOOOOOOOO@@@@@@@@@@@@@@@@@@@@@@@@@@@@@@",
"..++++#######@@@@@@@@@@@@@@@@@@@@@@@@@@@@@@@@@@@@@@@@@@@@@@@@@@@",
"..++++#######@@@@@@@@@@@@@@@@@@@@@@@@@@@@@@@@@@@@@@@@@@@@@@@@@@@",
"..++++#######@@@@@@@@@@@@@@@@@@@@@@@@@@@@@@@@@@@@@@@@@@@@@@@@@@@",
"..++++#######@@@@@@@@@@@@@@@@@@@@@@@@@@@@@@@@@@@@@@@@@@@@@@@@@@@",
"..++++#######@@@@@@@@@@@@@@@@@@@@@@@@@@@@@@@@@@@@@@@@@@@@@@@@@@@"
};
