/* XPM */
static char *result[] = {
/* columns rows colors chars-per-pixel */
"64 64 8 1 ",
"  c #AB3F3F",
". c #B85A5A",
"X c #795548",
"o c #4F3B35",
"O c #573C33",
"+ c #783030",
"@ c #572121",
"# c #773030",
/* pixels */
"                                                   .......XXXXoo",
"                                                   .......XXXXoo",
"                                                   .......XXXXoo",
"                                                   ...OOOOOOOOoo",
"++++++++++++++++++++++++++      @@@@@@@@@@@@@@     ...OOOOOOOOoo",
"++++++++++++++++++++++++++      @@@@@@@@@@@@@@     ...OOOOOOOOoo",
"++++++++++++++++++++++++++      @@@@@@@@@@@@@@     ...OOOOOOOOoo",
"++++++++++++++++++++++++++      @@@@@@@@@@@@@@     ...OOOOOOOOoo",
"++++++++++++++++++++++++++      @@@@@@@@@@@@@@     ...OOOOOOOOoo",
"++++++++++++++++++++++++++      @@@@@@@@@@@@@@     ...OOOOOOOOoo",
"++++++++++++++++++++++++++      @@@@@@@@@@@@@@     ...OOOOOOOOoo",
"++++++++++++++++++++++++++                         .......XXXXoo",
"++++++++++++++++++++++++++                         .......XXXXoo",
"++++++++++++++++++++++++++                         .......XXXXoo",
"                                                   .......XXXXoo",
"                                                   .......XXXXoo",
"                                                   .......XXXXoo",
"                                                   .......XXXXoo",
"                                                   .......XXXXoo",
"  @@@@@@@@@@             ++++++++                  ...OOOOOOOOoo",
"  @@@@@@@@@@             ++++++++      ...............OOOOOOOOoo",
"  @@@@@@@@@@             ++++++++      ...............OOOOOOOOoo",
"  @@@@@@@@@@             ++++++++      ...............OOOOOOOOoo",
"                                       ...............OOOOOOOOoo",
"                                       ...............OOOOOOOOoo",
"                                       ...............OOOOOOOOoo",
"                                       ...............OOOOOOOOoo",
"                                       ...................XXXXoo",
"             .............             ...................XXXXoo",
"             .............             ...................XXXXoo",
"             .............             ...................XXXXoo",
"             .............        @@@@@@@@................XXXXoo",
"             .............        @@@@@@@@         .......XXXXoo",
"             .............        @@@@@@@@         .......XXXXoo",
"             .............        @@@@@@@@         .......XXXXoo",
"             .............        @@@@@@@@         ...OOOOOOOOoo",
"             .............                         ...OOOOOOOOoo",
"                                                   ...OOOOOOOOoo",
"                                                   ...OOOOOOOOoo",
"                                                   ...OOOOOOOOoo",
"                                                   ...OOOOOOOOoo",
"       +++++++++                                   ...OOOOOOOOoo",
"       +++++++++                                   ...OOOOOOOOoo",
"       +++++++++                                   .......XXXXoo",
"       +++++++++                                   .......XXXXoo",
"       +++++++++              ++++++++++++++++++++++++....XXXXoo",
"                              ++++++++++++++++++++++++....XXXXoo",
"                              ++++++++++++++++++++++++....XXXXoo",
"                              ++++++++++##++++++++++++....XXXXoo",
"             @@@@@@@@@@@@@@@@@@@++++++#####+++++++++++....XXXXoo",
"             @@@@@@@@@@@@@@@@@@@+++++######+++++++++++....XXXXoo",
"             @@@@@@@@@@@@@@@@@@@+++++#######++++++++++OOOOOOOOoo",
"             @@@@@@@@@@@@@@@@@@@+++++#######++++++++++OOOOOOOOoo",
"             @@@@@@@@@@@@@@@@@@@++++++#####+++++++++++OOOOOOOOoo",
"             @@@@@@@@@@@@@@@@@@@++++++++##++++++++++++OOOOOOOOoo",
"             @@@@@@@@@@@@@@@@@@@++++++++++++++++++++++OOOOOOOOoo",
"             @@@@@@@@@@@@@@@@@@@++++++++++++++++++++++OOOOOOOOoo",
"                              ++++++++++++++++++++++++OOOOOOOOoo",
"                              ++++++++++++++++++++++++OOOOOOOOoo",
"                                                   .......XXXXoo",
"                                                   .......XXXXoo",
"                                                   .......XXXXoo",
"                                                   .......XXXXoo",
"                                                   .......XXXXoo"
};
