/* XPM */
static char *result[] = {
/* columns rows colors chars-per-pixel */
"64 64 14 1 ",
"  c #0F3D2C",
". c #422F13",
"X c #214537",
"o c #705735",
"O c #325749",
"+ c #4D7867",
"@ c #859FA1",
"# c #86A0A2",
"$ c #86A1A3",
"% c #87A1A3",
"& c #87A2A4",
"* c #88A2A4",
"= c #88A3A5",
"- c #89A4A6",
/* pixels */
"--------------------------------------*@@@@@@@@@*---------------",
"--------------------------------------%@@@@@@@@@=---------------",
"-----=%@*-----------------------------%@@@@@@@@@----------------",
"---=$@@@#---------=$------------------$@@@@@@@@@----------------",
"---@@@@@@*-------=@@#=----------------#@@@@@@@@@----------------",
"---&@@@@@#------=@@@@@=-----------------=**%%##$----------------",
"----@@@@@@=----=@@@@@@@=----      ------------------------------",
"----&@@@&=----=@@@@@@@@@=-  XXXXX   ----------------------------",
"-----#&-------#@@@@@@@@@@  XXXXXXXX  ----==---------------------",
"-------------#@@@@@@@@@@  XXXXOOXXXX  ---#@&-----------------=*%",
"*------------&@@@@@@@@@   XXXOOOOXXXX  -&@@@$------------=&$@@@@",
"%-------------&@@@@@@@@  XXXOOOOOOXXX  =@@@@@@=---------%@@@@@@@",
"#--------------&@@@@@@  XXXXOO+++OOXX   @@@@@@=---------=@@@@@@@",
"@---------------*@@@@   XXXOOO+++OOXXX   @@@@*-----------@@@@@@@",
"@=---------------=@@@  XXXOOOO++++OXXX   @@@%------------#@@@@@@",
"@%----------------=@   XXOOOO+++++OOXXX   $#-------------%@@@@@@",
"@#-----------------=  XXXOOO++++++OOOXX   ---------------*@@@@@@",
"*-------------------  XXXOOO++++++OOOXXX  ----------------@@@@#%",
"-------------------  XXXOOO++++++++OOXXX   ---------------&&=---",
"----------=%=------  XXXOOO++++++++OOOXXX  ---------------------",
"----------$@@@#%=--  XXOOOO++++++++OOOXXX  ------=$-------------",
"----------@@@@@@@@# XXXOOOO++++++++OOOOXX  -----=@@#------------",
"---------=@@@@@@@@@ XXXOOOO++++++++OOOOXXX ----=@@@@@=----------",
"---------&@@@@@@@@  XXOOOO++++++++++OOOXXX  --=@@@@@@@=---------",
"---------$@@@@@@@@  XXOOOO+++++++++++OOOXX  --=@@@@@@#----------",
"---------@@@@@@@@@ XXXOOOO+++++++++++OOOXX   --=@@@@#-----------",
"--------=@@@@@@@@@ XXXOOO++++++++++++OOOXX   ---=@@@=-----------",
"--------&@@@@@@@@@ XXOOOO+++++++++++++OOXXX  ----=#=------------",
"--------$@@@@@@@@  XXOOOO+++++++++++++OOXXX   ------------------",
"--------=%#@@@@@@ XXXOOO++++++++++++++OOOXX   ------------------",
"------------&$@@@ XXXOOO++++++++++++++OOOXXX  -------%=---------",
"---------------=& XXOOO++++++++++++++++OOXXX  =-----=@@#&-------",
"----------------  XXOOO++++++++++++++++OOOXXX  =----#@@@@@=-----",
"---------------- XXXOOO++++++++++++++++OOOXXX  @=--=@@@@@@------",
"%%-------------- XXXOOO++++++++++++++++OOOOXX  %---&@@@@@$--=***",
"@@=-------=*---- XXOOO+++++++++++++++++OOOOXX  ----&@@@@@=--*@@@",
"@@*------=@@$--  XXOOO++++++++++++++++++OOOXX   -----=#@@---=@@@",
"@@%------#@@@@= XXXOOO++++++++++++++++++OOOXXX  -------==----@@@",
"@@$-----&@@@@@@ XXOOOO++++++++++++++++++OOOXXX  -------------@@@",
"@@$----=@@@@@@% XXOOOO+++++++++++++++++++OOOXX  -------------#@@",
"--------=@@@@@ XXXOOO++++++++++++++++++++OOOXX   ------------=**",
"---------=#@@= XXXOOO++++++++++++++++++++OOOXXX  ---------------",
"-----------&%- XXOOOO++++++++++++++++++++OOOXXX  #&-------------",
"--------------XXXOOO+++++++++++++++++++++OOOOXX  @#-------------",
"------------- XXXOOO+++++++++++++++++++++OOOOXX   @-------------",
"------------& XXOOOO++++++++++++++++++++++OOOXXX  @&------------",
"---------*#@@ XXOOOO++++++++++++++++++++++OOOXXX  @#------------",
"--------&@@@@ XXOOOO++++++++++++++++++++++OOOOXXX @@------------",
"---------@@@  XXOOOOO+++++++++++++++++++++OOOOXXX  @=-----------",
"---------#@@ XXXOOOOO+++++++++++++++++++++OOOOOXXX #*--=**------",
"---------=@@ XXXOOOOO+++++++++++++++++++++OOOOOXXX ----#@@@@#---",
"----------%= XXOOOOO+++++++++++++++++++++OOOOOOXXX ----@@@@@%---",
"------------ XXOOOOO+++++++OO+++++++++++OOOOOOOXX  ----@@@@@%---",
"------------ XXXOOOOOO++++OOOOOOOOOOOOOOOOOOOXXXX  ---=@@@@@*---",
"-------------XXXXXOOOOOOOOOOXXXXXXXXOOOOOOOOXXXXX ----*@@@@@=---",
"------------- XXXXXOOOOOOOXXXXXXXXXXXOOOXXXXXXX   ----=**&%%----",
"---=&%#=------  XXXXXXXXXXXXXX     XXXXXXXXXXX   ---------------",
"-=@@@@@%------   XXXXXXXXXX          XXXXX       ---------------",
"--@@@@@%--------            ooooooo            -----------------",
"--#@@@@#---------------  .ooooooooooo.  #$%**-------------------",
"--#@@@@@----------------..ooooooooooo..@@@@@@@@#$---------------",
"--%@@@@#----------------...............@@@@@@@@@#---------------",
"--=*=-------------------...............@@@@@@@@@$---------------",
"--------------------------------------*@@@@@@@@@%---------------"
};
