/* XPM */
static char *result[] = {
/* columns rows colors chars-per-pixel */
"64 64 11 1 ",
"  c #AB3F3F",
". c #783030",
"X c #572121",
"o c #773030",
"O c #B85A5A",
"+ c #4F3B35",
"@ c #795548",
"# c #825C50",
"$ c #9E8F8B",
"% c #B8AEAB",
"& c #D1BAB3",
/* pixels */
"                                                                ",
"                                                                ",
"                                                                ",
"                                                                ",
"                                                                ",
"                              ........................          ",
"                              ........................          ",
"             XXXXXXXXXXXXXXXXXXX......................          ",
"             XXXXXXXXXXXXXXXXXXX......................          ",
"             XXXXXXXXXXXXXXXXXXX........oo............          ",
"             XXXXXXXXXXXXXXXXXXX......ooooo...........          ",
"             XXXXXXXXXXXXXXXXXXX.....ooooooo..........          ",
"             XXXXXXXXXXXXXXXXXXX.....ooooooo..........          ",
"             XXXXXXXXXXXXXXXXXXX.....oooooo...........          ",
"             XXXXXXXXXXXXXXXXXXX......ooooo...........          ",
"                              ..........oo............          ",
"                              ........................          ",
"                              ........................          ",
"       .........              ........................          ",
"       .........                                                ",
"       .........                                                ",
"       .........                                                ",
"       .........                                                ",
"                                                                ",
"                                                                ",
"                                                                ",
"                                                                ",
"             OOOOOOOOOOOOO                                      ",
"             OOOOOOOOOOOOO        XXXXXXXX                      ",
"             OOOOOOOOOOOOO        XXXXXXXX                      ",
"             OOOOOOOOOOOOO        XXXXXXXX                      ",
"             OOOOOOOOOOOOO        XXXXXXXX                      ",
"             OOOOOOOOOOOOO        XXXXXXXXOOOOOOOOOOOOOOOOOOO   ",
"             OOOOOOOOOOOOO             OOOOOOOOOOOOOOOOOOOOOO   ",
"             OOOOOOOOOOOOO             OOOOOOOOOOOOOOOOOOOOOO   ",
"             OOOOOOOOOOOOO             OOOOOOOOOOOOOOOOOOOOOO   ",
"                                       OOOOOOOOOOOOOOOOOOOOOO   ",
"                                       OOOOOOOOOOOOOOOOOOOOOO   ",
"                                       OOOOOOOOOOOOOOOOOOOOOO   ",
"                                       OOOOOOOOOOOOOOOOOOOOOO   ",
"                                       OOOOOOOOOOOOOOOOOOOOOO   ",
"  XXXXXXXXXX             ........      OOOOOOOOOOOOOOOOOOOOOO   ",
"  XXXXXXXXXX             ........                               ",
"  XXXXXXXXXX             ........                               ",
"  XXXXXXXXXX             ........                               ",
"                                                                ",
"                                                                ",
"                                                                ",
"                                                                ",
"++++++++++++++++++++++++++++++++++++++++++++++++++++++++++++++++",
"++++++++++++++++++++++++++++++++++++++++++++++++++++++++++++++++",
"@@@@@@@@@@@@@@@@@@@@@@@@@@@@@@@@@@@@@@@@@@@@@@@@@@@@@@@@@@@@@@@@",
"################################################################",
"$$$$$$$$$$$$$$$$$$$$$$$$$$$$$$$$$$$$$$$$$$$$$$$$$$$$$$$$$$$$$$$$",
"$$$$$$$$$$$$$$$$$$$$$$$$$$$$$$$$$$$$$$$$$$$$$$$$$$$$$$$$$$$$$$$$",
"%%%%%%%%%%%%%%%%%%%%%%%%%%%%%%%%%%%%%%%%%%%%%%%%%%%%%%%%%%%%%%%%",
"%%%%%%%%%%%%%%%%%%%%%%%%%%%%%%%%%%%%%%%%%%%%%%%%%%%%%%%%%%%%%%%%",
"&&&&&&&&&&&&&&&&&&&&&&&&&&&&&&&&&&&&&&&&&&&&&&&&&&&&&&&&&&&&&&&&",
"&&&&&&&&&&&&&&&&&&&&&&&&&&&&&&&&&&&&&&&&&&&&&&&&&&&&&&&&&&&&&&&&",
"%%%%%%%%%%%%%%%%%%%%%%%%%%%%%%%%%%%%%%%%%%%%%%%%%%%%%%%%%%%%%%%%",
"%%%%%%%%%%%%%%%%%%%%%%%%%%%%%%%%%%%%%%%%%%%%%%%%%%%%%%%%%%%%%%%%",
"################################################################",
"@@@@@@@@@@@@@@@@@@@@@@@@@@@@@@@@@@@@@@@@@@@@@@@@@@@@@@@@@@@@@@@@",
"++++++++++++++++++++++++++++++++++++++++++++++++++++++++++++++++"
};
